<svg width="24" height="24" viewBox="0 0 24 24" fill="none" xmlns="http://www.w3.org/2000/svg">
<g clip-path="url(#clip0_19389_66141)">
<path d="M23.2741 6.74301L17.3281 0.800014C16.9073 0.364752 16.347 0.0912968 15.745 0.0274959C15.143 -0.0363051 14.5377 0.113611 14.0351 0.451014C13.7388 0.661752 13.492 0.934597 13.3119 1.25052C13.1319 1.56644 13.0229 1.91784 12.9926 2.2802C12.9624 2.64256 13.0115 3.00717 13.1366 3.34859C13.2617 3.69001 13.4598 4.00002 13.7171 4.25701L14.3091 4.84801C14.4599 4.99977 14.5446 5.20505 14.5446 5.41901C14.5446 5.63298 14.4599 5.83825 14.3091 5.99001L12.2091 8.09001C12.0248 8.2735 11.7961 8.40614 11.5453 8.47501C11.2946 8.54388 11.0302 8.54664 10.7781 8.48301L9.95808 8.27301C9.01246 8.02617 8.03005 7.95199 7.05808 8.05401C6.41932 8.12045 5.81287 8.36812 5.31022 8.76783C4.80757 9.16754 4.42967 9.70263 4.22108 10.31C3.99261 10.9378 3.94812 11.6179 4.09285 12.2701C4.23757 12.9224 4.5655 13.5197 5.03808 13.992L6.78408 15.8L0.293081 22.293C0.197571 22.3853 0.121389 22.4956 0.0689798 22.6176C0.0165708 22.7396 -0.0110155 22.8708 -0.0121693 23.0036C-0.0133231 23.1364 0.0119786 23.2681 0.0622595 23.391C0.11254 23.5139 0.186794 23.6255 0.280686 23.7194C0.374579 23.8133 0.486231 23.8876 0.609127 23.9378C0.732023 23.9881 0.863703 24.0134 0.996482 24.0123C1.12926 24.0111 1.26048 23.9835 1.38249 23.9311C1.50449 23.8787 1.61483 23.8025 1.70708 23.707L8.17408 17.24L9.42408 18.534C10.2715 19.4331 11.4403 19.9601 12.6751 20C13.0743 20.0005 13.4706 19.9328 13.8471 19.8C14.4216 19.6018 14.9263 19.2412 15.3001 18.762C15.6738 18.2828 15.9007 17.7055 15.9531 17.1C16.0543 16.1369 15.9818 15.1635 15.7391 14.226L15.5271 13.2C15.4676 12.9498 15.4732 12.6885 15.5432 12.441C15.6132 12.1935 15.7454 11.968 15.9271 11.786L18.0161 9.70001C18.1786 9.55095 18.3887 9.46448 18.6091 9.45601C18.7058 9.45582 18.8016 9.47491 18.8909 9.51217C18.9802 9.54943 19.0612 9.60411 19.1291 9.67301L19.6351 10.179C20.0536 10.6259 20.6178 10.909 21.2262 10.9775C21.8346 11.0461 22.4476 10.8956 22.9551 10.553C23.2515 10.3424 23.4984 10.0696 23.6785 9.75369C23.8586 9.43781 23.9677 9.08643 23.9981 8.72406C24.0284 8.3617 23.9794 7.99707 23.8543 7.65561C23.7293 7.31415 23.5313 7.00407 23.2741 6.74701V6.74301Z" fill="#E66100"/>
</g>
<defs>
<clipPath id="clip0_19389_66141">
<rect width="24" height="24" fill="white"/>
</clipPath>
</defs>
</svg>
