<svg width="25" height="25" viewBox="0 0 25 25" fill="none" xmlns="http://www.w3.org/2000/svg">
<g clip-path="url(#clip0_7484_1102)">
<path d="M1.36101e-06 12.4889C0.0031877 5.59407 5.60795 0 12.5032 0C19.4112 0 25.0096 5.61315 25 12.5239C24.9904 19.4186 19.3793 25.0127 12.4841 25.0032C5.58884 24.9905 -0.00318498 19.3868 1.36101e-06 12.4889ZM20.1982 12.5111H20.2205C20.2205 11.5793 20.2269 10.6443 20.2173 9.7125C20.2141 9.34678 20.2014 8.97787 20.144 8.6185C19.9019 7.01883 19.1117 5.82623 17.5631 5.22198C16.9195 4.97074 16.2439 4.86261 15.5589 4.85943C13.6025 4.85307 11.6429 4.84989 9.68647 4.85943C9.27224 4.85943 8.85165 4.88487 8.44379 4.95484C6.86974 5.2188 5.70036 6.02023 5.11726 7.55629C4.87828 8.18598 4.77951 8.84111 4.77951 9.51533C4.77951 11.4553 4.77632 13.3984 4.77951 15.3384C4.77951 15.6946 4.79862 16.0571 4.85279 16.4069C5.08221 17.8921 5.79276 19.0434 7.20112 19.6826C7.89256 19.9975 8.63179 20.1342 9.38695 20.1374C11.4613 20.1501 13.5356 20.1501 15.6099 20.1374C16.416 20.131 17.1998 19.9816 17.9295 19.6158C19.4239 18.8685 20.0835 17.5709 20.1823 15.9808C20.2555 14.8264 20.195 13.6656 20.195 12.508L20.1982 12.5111Z" fill="white"/>
<path d="M12.5096 6.30322C13.5164 6.30322 14.5265 6.29368 15.5334 6.30958C15.8807 6.31594 16.2344 6.35092 16.5721 6.43043C17.7989 6.71347 18.5923 7.60712 18.7452 8.8665C18.7771 9.14 18.7962 9.41351 18.7962 9.68701C18.7994 11.6047 18.8121 13.5192 18.7898 15.4369C18.7835 15.8949 18.7165 16.3751 18.57 16.8076C18.1844 17.9557 17.3177 18.5567 16.1356 18.6426C15.1 18.7189 14.0549 18.7126 13.013 18.7189C11.8309 18.7253 10.6455 18.7189 9.46341 18.6903C9.10017 18.684 8.73374 18.6299 8.37687 18.5567C7.02587 18.2705 6.4109 17.2083 6.25477 16.1366C6.21335 15.8662 6.2006 15.5896 6.2006 15.3161C6.19742 13.392 6.18467 11.4648 6.20698 9.54072C6.21335 9.08912 6.28345 8.62162 6.42683 8.19547C6.8092 7.05694 7.66632 6.45587 8.83571 6.36364C9.85533 6.28413 10.8845 6.30322 11.9073 6.28095C12.1081 6.27777 12.3088 6.28095 12.5064 6.28095C12.5064 6.2905 12.5064 6.29686 12.5064 6.3064L12.5096 6.30322ZM12.5096 8.43717C10.2409 8.43717 8.43423 10.2467 8.43741 12.5143C8.43741 14.7595 10.2568 16.5595 12.5159 16.5627C14.7464 16.5627 16.5689 14.7404 16.5626 12.5079C16.5562 10.2436 14.7559 8.43399 12.5096 8.43399V8.43717ZM16.6008 9.26403C17.0469 9.25767 17.4038 8.89195 17.3974 8.44671C17.391 8.00147 17.031 7.64529 16.5817 7.64529C16.126 7.64529 15.7596 8.02055 15.7724 8.47533C15.7851 8.92693 16.1452 9.26722 16.5976 9.26403H16.6008Z" fill="white"/>
<path d="M12.5032 15.1222C11.0534 15.1254 9.88082 13.9582 9.87763 12.5048C9.87444 11.0546 11.0438 9.88429 12.4936 9.88111C13.9434 9.87793 15.116 11.0451 15.1192 12.4985C15.1223 13.9487 13.9561 15.119 12.5032 15.1222Z" fill="white"/>
</g>
<defs>
<clipPath id="clip0_7484_1102">
<rect width="25" height="25" fill="white"/>
</clipPath>
</defs>
</svg>
