<svg width="25" height="25" viewBox="0 0 25 25" fill="none" xmlns="http://www.w3.org/2000/svg">
<path d="M11.7188 0C12.2397 0 12.7603 0 13.2812 0C13.3438 0.0136719 13.4058 0.0351562 13.4692 0.0400391C15.4155 0.185547 17.2378 0.744141 18.8979 1.76611C22.1245 3.75244 24.1123 6.60986 24.8086 10.3457C24.8931 10.7993 24.9375 11.2607 25.0005 11.7183V13.2808C24.9805 13.4409 24.958 13.6011 24.9404 13.7612C24.6729 16.2334 23.7769 18.4517 22.1992 20.3745C20.2368 22.7656 17.7266 24.251 14.6772 24.8057C14.2158 24.8896 13.7471 24.9355 13.2817 24.9995H11.7192C11.4141 24.9619 11.1084 24.9292 10.8042 24.8857C8.31592 24.5303 6.11572 23.5381 4.23584 21.8677C2.06494 19.939 0.709473 17.541 0.194336 14.6782C0.111328 14.2158 0.0639648 13.7471 0 13.2812C0 12.7603 0 12.2397 0 11.7188C0.0200195 11.5586 0.0415039 11.3984 0.059082 11.2383C0.348145 8.59033 1.34961 6.24902 3.11572 4.25293C5.05811 2.05811 7.47754 0.693359 10.3711 0.188477C10.8174 0.11084 11.2695 0.0620117 11.7188 0ZM13.5952 18.8882C13.5952 18.1182 13.5928 17.3706 13.5957 16.623C13.5996 15.5737 13.5947 14.5244 13.6177 13.4751C13.6299 12.9146 13.9272 12.4863 14.3823 12.1816C15.2637 11.5913 16.377 11.9868 16.6631 13.0034C16.7583 13.3423 16.79 13.708 16.793 14.062C16.8066 15.583 16.7988 17.1045 16.7988 18.626C16.7988 18.7119 16.7988 18.7974 16.7988 18.8804H19.832C19.8359 18.8003 19.8418 18.7363 19.8418 18.6719C19.8418 17.0039 19.8457 15.3364 19.8389 13.6685C19.8374 13.3359 19.8135 13.002 19.7739 12.6714C19.561 10.8779 18.4878 9.74561 16.7603 9.54834C15.5161 9.40625 14.4629 9.78369 13.7212 10.8511C13.6968 10.8862 13.6631 10.9146 13.5947 10.9873C13.5947 10.6104 13.5854 10.2871 13.5981 9.96484C13.6055 9.78418 13.5498 9.72705 13.3652 9.729C12.4946 9.73779 11.6245 9.73242 10.7539 9.73389C10.6914 9.73389 10.6289 9.74609 10.5679 9.75244V18.8882H13.5952ZM8.85889 18.8901C8.86426 18.8281 8.87061 18.7886 8.87061 18.7495C8.87109 15.812 8.86963 12.8745 8.875 9.93701C8.875 9.74756 8.79004 9.72998 8.63867 9.73096C7.77637 9.73535 6.91357 9.73291 6.05127 9.73389C5.98047 9.73389 5.91016 9.74414 5.83838 9.75V18.8901H8.85889ZM5.64844 6.90723C5.64941 7.83447 6.35938 8.49512 7.34961 8.49023C8.34717 8.48535 9.07178 7.82275 9.0708 6.9165C9.06982 5.99121 8.36035 5.3252 7.37305 5.32324C6.35791 5.32129 5.64746 5.97412 5.64844 6.90771V6.90723Z" fill="white"/>
</svg>
