<svg width="25" height="25" viewBox="0 0 25 25" fill="none" xmlns="http://www.w3.org/2000/svg">
<g clip-path="url(#clip0_7484_1106)">
<path d="M25 12.5759C25 18.8145 20.4229 23.9863 14.4479 24.9249V16.2134H17.3531L17.9062 12.6093H14.4479V10.2707C14.4479 9.28426 14.9312 8.32384 16.4792 8.32384H18.051V5.2551C18.051 5.2551 16.624 5.01134 15.2604 5.01134C12.4125 5.01134 10.5521 6.73739 10.5521 9.86135V12.6082H7.38646V16.2124H10.5521V24.9238C4.57812 23.9843 0 18.8134 0 12.5759C0 5.6728 5.59687 0.0759277 12.5 0.0759277C19.4031 0.0759277 25 5.67176 25 12.5759Z" fill="white"/>
</g>
<defs>
<clipPath id="clip0_7484_1106">
<rect width="25" height="25" fill="white"/>
</clipPath>
</defs>
</svg>
