<svg width="25" height="25" viewBox="0 0 25 25" fill="none" xmlns="http://www.w3.org/2000/svg">
<g clip-path="url(#clip0_7484_1109)">
<path d="M11.7188 0H13.2812C13.3438 0.0136719 13.4058 0.0351562 13.4692 0.0400391C15.4155 0.185547 17.2378 0.744141 18.8979 1.76611C22.1245 3.75244 24.1123 6.60986 24.8086 10.3457C24.8931 10.7993 24.9375 11.2607 25.0005 11.7183V13.2808C24.9805 13.4409 24.958 13.6011 24.9409 13.7617C24.6733 16.2339 23.7773 18.4521 22.1992 20.375C20.2368 22.7661 17.7266 24.2515 14.6772 24.8062C14.2158 24.8901 13.7471 24.936 13.2817 25H11.7192C11.4141 24.9624 11.1084 24.9297 10.8042 24.8867C8.49805 24.5586 6.42676 23.6802 4.62646 22.1997C2.23633 20.2349 0.748047 17.728 0.194336 14.6782C0.110352 14.2158 0.0639648 13.7471 0 13.2812C0 12.7603 0 12.2397 0 11.7188C0.0361328 11.4214 0.0668945 11.123 0.108887 10.8262C0.460449 8.3374 1.44824 6.13477 3.11572 4.25244C5.05957 2.05908 7.47754 0.693359 10.3711 0.188477C10.8179 0.11084 11.2695 0.0620117 11.7188 0ZM7.22559 13.8062C7.36914 14.2544 7.58887 14.6108 7.88623 14.9189C8.41553 15.4683 9.07275 15.7505 9.89307 15.811C8.62451 16.7583 7.2627 17.1313 5.70312 17.0029C5.78857 17.0659 5.82373 17.0972 5.86377 17.1196C8.55078 18.6274 11.3145 18.7573 14.0083 17.2764C16.8159 15.7334 18.1226 13.2026 18.2075 10.0264C18.2129 9.83154 18.2515 9.70264 18.415 9.57959C18.874 9.23242 19.2612 8.81299 19.5898 8.32373C19.0835 8.46045 18.6011 8.59131 18.1187 8.72168C18.1089 8.69873 18.0986 8.67578 18.0889 8.65283C18.625 8.28418 19.0146 7.80713 19.2158 7.21582C18.6904 7.40137 18.165 7.58398 17.6421 7.77441C17.4907 7.82959 17.3945 7.78564 17.2769 7.68115C16.4185 6.91602 15.4248 6.70605 14.3521 7.09961C13.269 7.49707 12.6431 8.30859 12.4961 9.4585C12.4556 9.77393 12.4897 10.0991 12.4897 10.4351C10.1221 10.2705 8.17627 9.26172 6.60889 7.43164C5.92236 8.94824 6.21191 10.2012 7.44434 11.2505C7.43359 11.2686 7.42285 11.2866 7.41211 11.3042C7.01953 11.1938 6.62646 11.083 6.23682 10.9736C6.10547 12.0986 6.99805 13.2476 8.40918 13.8062H7.22559Z" fill="white"/>
</g>
<defs>
<clipPath id="clip0_7484_1109">
<rect width="25" height="25" fill="white"/>
</clipPath>
</defs>
</svg>
