<svg width="24" height="24" viewBox="0 0 24 24" fill="none" xmlns="http://www.w3.org/2000/svg">
<g clip-path="url(#clip0_19389_66159)">
<path d="M1.00003 24C1.26523 24 1.51954 23.8946 1.70703 23.707L8.32603 17.088L9.57403 18.38C10.5147 19.374 11.8111 19.9544 13.179 19.994C13.6351 19.9954 14.0879 19.9186 14.518 19.767C15.1826 19.5382 15.7664 19.1214 16.1986 18.5672C16.6309 18.013 16.893 17.3453 16.953 16.645C17.0615 15.6309 16.9863 14.6055 16.731 13.618L16.517 12.576C16.4765 12.4094 16.4795 12.2351 16.5257 12.07C16.5719 11.9048 16.6599 11.7544 16.781 11.633L18.368 10.045C18.4306 9.98216 18.5153 9.94628 18.604 9.94501C18.6352 9.93922 18.6673 9.94223 18.6968 9.95372C18.7263 9.9652 18.752 9.9847 18.771 10.01C19.2733 10.5427 19.9491 10.8788 20.6769 10.958C21.4047 11.0371 22.137 10.8542 22.742 10.442C23.0971 10.1889 23.3927 9.86143 23.6083 9.48242C23.8238 9.1034 23.9542 8.68195 23.9903 8.24741C24.0264 7.81287 23.9673 7.37569 23.8172 6.96631C23.667 6.55694 23.4295 6.18521 23.121 5.87701L18.2 0.954008C17.6947 0.436109 17.0235 0.112293 16.3036 0.0391742C15.5838 -0.0339445 14.8611 0.148287 14.262 0.554008C13.9069 0.807041 13.6112 1.13445 13.3955 1.51342C13.1799 1.8924 13.0494 2.31383 13.0132 2.74837C12.9771 3.18292 13.0361 3.62012 13.1861 4.02954C13.3361 4.43896 13.5736 4.81074 13.882 5.11901L13.958 5.19501C14.0153 5.2527 14.0475 5.33071 14.0475 5.41201C14.0475 5.49331 14.0153 5.57131 13.958 5.62901L12.358 7.22901C12.2353 7.35149 12.0828 7.43995 11.9156 7.48571C11.7483 7.53147 11.572 7.53295 11.404 7.49001L10.587 7.28101C9.58208 7.01855 8.53802 6.93962 7.50503 7.04801C6.77239 7.12389 6.07671 7.40764 5.50001 7.86582C4.9233 8.324 4.4896 8.9375 4.25003 9.63401C3.9886 10.3498 3.93704 11.1253 4.10145 11.8694C4.26585 12.6134 4.63936 13.295 5.17803 13.834L6.93603 15.654L0.293031 22.293C0.153222 22.4329 0.0580152 22.611 0.0194476 22.805C-0.0191199 22.9989 0.000683047 23.2 0.0763531 23.3827C0.152023 23.5654 0.280163 23.7215 0.444573 23.8314C0.608982 23.9413 0.802281 24 1.00003 24ZM6.13503 10.3C6.24772 9.95933 6.45675 9.65861 6.73681 9.43428C7.01687 9.20994 7.35597 9.0716 7.71303 9.03601C7.94325 9.01205 8.17456 9.00003 8.40603 9.00001C8.97335 9.00004 9.53831 9.07297 10.087 9.21701L10.91 9.42701C11.4142 9.55458 11.9429 9.54932 12.4445 9.41174C12.9461 9.27417 13.4035 9.00897 13.772 8.64201L15.372 7.04201C15.8038 6.609 16.0462 6.02248 16.0462 5.41101C16.0462 4.79954 15.8038 4.21302 15.372 3.78001L15.296 3.70401C15.1925 3.60071 15.1129 3.47596 15.0628 3.33855C15.0127 3.20113 14.9934 3.05441 15.0061 2.90871C15.0189 2.76301 15.0635 2.62189 15.1367 2.49529C15.21 2.3687 15.3101 2.25971 15.43 2.17601C15.6434 2.04683 15.8948 1.9952 16.1418 2.02981C16.3888 2.06442 16.6164 2.18316 16.786 2.36601L21.71 7.29001C21.8136 7.39331 21.8932 7.51806 21.9433 7.65547C21.9934 7.79288 22.0127 7.93961 21.9999 8.08531C21.9872 8.231 21.9426 8.37213 21.8693 8.49872C21.7961 8.62532 21.696 8.73431 21.576 8.81801C21.3603 8.94895 21.1057 9.00061 20.8561 8.96411C20.6064 8.92761 20.3772 8.80522 20.208 8.61801C20.0023 8.40586 19.7561 8.2371 19.484 8.12168C19.212 8.00626 18.9196 7.94653 18.624 7.94601C18.0006 7.94885 17.4028 8.19415 16.957 8.63001L15.371 10.217C15.0109 10.5774 14.7485 11.0236 14.6085 11.5134C14.4685 12.0033 14.4556 12.5208 14.571 13.017L14.79 14.075C14.9918 14.8464 15.0531 15.6479 14.971 16.441C14.9471 16.7645 14.8287 17.0738 14.6305 17.3305C14.4322 17.5872 14.1629 17.7801 13.856 17.885C13.3445 18.0195 12.8053 18.0063 12.3009 17.8471C11.7965 17.6878 11.3476 17.3889 11.006 16.985L6.60603 12.435C6.33167 12.1614 6.14148 11.8148 6.05801 11.4365C5.97453 11.0581 6.00126 10.6637 6.13503 10.3Z" fill="#E66100"/>
</g>
<defs>
<clipPath id="clip0_19389_66159">
<rect width="24" height="24" fill="white"/>
</clipPath>
</defs>
</svg>
