<svg width="1300" height="325" viewBox="0 0 1300 325" fill="none" xmlns="http://www.w3.org/2000/svg">
<rect width="1300" height="325" rx="16" fill="#E6E6E6"/>
<path d="M708.826 95.1667H592.16C584.117 95.1667 577.576 101.707 577.576 109.75V197.25C577.576 205.293 584.117 211.833 592.16 211.833H708.826C716.869 211.833 723.409 205.293 723.409 197.25V109.75C723.409 101.707 716.869 95.1667 708.826 95.1667ZM610.389 117.042C613.289 117.042 616.071 118.194 618.123 120.245C620.174 122.296 621.326 125.078 621.326 127.979C621.326 130.88 620.174 133.662 618.123 135.713C616.071 137.764 613.289 138.917 610.389 138.917C607.488 138.917 604.706 137.764 602.655 135.713C600.604 133.662 599.451 130.88 599.451 127.979C599.451 125.078 600.604 122.296 602.655 120.245C604.706 118.194 607.488 117.042 610.389 117.042V117.042ZM650.493 189.958H599.451L628.618 153.5L639.555 168.083L661.43 138.917L701.534 189.958H650.493Z" fill="#BABABA"/>
<path d="M546.271 237.2V254H543.079L534.703 243.8V254H530.863V237.2H534.079L542.431 247.4V237.2H546.271ZM556.126 254.192C554.766 254.192 553.542 253.912 552.454 253.352C551.382 252.776 550.542 251.984 549.934 250.976C549.326 249.968 549.022 248.824 549.022 247.544C549.022 246.264 549.326 245.12 549.934 244.112C550.542 243.104 551.382 242.32 552.454 241.76C553.542 241.184 554.766 240.896 556.126 240.896C557.486 240.896 558.702 241.184 559.774 241.76C560.846 242.32 561.686 243.104 562.294 244.112C562.902 245.12 563.206 246.264 563.206 247.544C563.206 248.824 562.902 249.968 562.294 250.976C561.686 251.984 560.846 252.776 559.774 253.352C558.702 253.912 557.486 254.192 556.126 254.192ZM556.126 251.12C557.086 251.12 557.87 250.8 558.478 250.16C559.102 249.504 559.414 248.632 559.414 247.544C559.414 246.456 559.102 245.592 558.478 244.952C557.87 244.296 557.086 243.968 556.126 243.968C555.166 243.968 554.374 244.296 553.75 244.952C553.126 245.592 552.814 246.456 552.814 247.544C552.814 248.632 553.126 249.504 553.75 250.16C554.374 250.8 555.166 251.12 556.126 251.12ZM572.769 237.2H576.657V254H572.769V237.2ZM596.916 240.896C598.532 240.896 599.812 241.376 600.756 242.336C601.716 243.28 602.196 244.704 602.196 246.608V254H598.452V247.184C598.452 246.16 598.236 245.4 597.804 244.904C597.388 244.392 596.788 244.136 596.004 244.136C595.124 244.136 594.428 244.424 593.916 245C593.404 245.56 593.148 246.4 593.148 247.52V254H589.404V247.184C589.404 245.152 588.588 244.136 586.956 244.136C586.092 244.136 585.404 244.424 584.892 245C584.38 245.56 584.124 246.4 584.124 247.52V254H580.38V241.088H583.956V242.576C584.436 242.032 585.02 241.616 585.708 241.328C586.412 241.04 587.18 240.896 588.012 240.896C588.924 240.896 589.748 241.08 590.484 241.448C591.22 241.8 591.812 242.32 592.26 243.008C592.788 242.336 593.452 241.816 594.252 241.448C595.068 241.08 595.956 240.896 596.916 240.896ZM610.76 240.896C612.76 240.896 614.296 241.376 615.368 242.336C616.44 243.28 616.976 244.712 616.976 246.632V254H613.472V252.392C612.768 253.592 611.456 254.192 609.536 254.192C608.544 254.192 607.68 254.024 606.944 253.688C606.224 253.352 605.672 252.888 605.288 252.296C604.904 251.704 604.712 251.032 604.712 250.28C604.712 249.08 605.16 248.136 606.056 247.448C606.968 246.76 608.368 246.416 610.256 246.416H613.232C613.232 245.6 612.984 244.976 612.488 244.544C611.992 244.096 611.248 243.872 610.256 243.872C609.568 243.872 608.888 243.984 608.216 244.208C607.56 244.416 607 244.704 606.536 245.072L605.192 242.456C605.896 241.96 606.736 241.576 607.712 241.304C608.704 241.032 609.72 240.896 610.76 240.896ZM610.472 251.672C611.112 251.672 611.68 251.528 612.176 251.24C612.672 250.936 613.024 250.496 613.232 249.92V248.6H610.664C609.128 248.6 608.36 249.104 608.36 250.112C608.36 250.592 608.544 250.976 608.912 251.264C609.296 251.536 609.816 251.672 610.472 251.672ZM633.825 241.088V251.84C633.825 254.208 633.209 255.968 631.977 257.12C630.745 258.272 628.945 258.848 626.577 258.848C625.329 258.848 624.145 258.696 623.025 258.392C621.905 258.088 620.977 257.648 620.241 257.072L621.729 254.384C622.273 254.832 622.961 255.184 623.793 255.44C624.625 255.712 625.457 255.848 626.289 255.848C627.585 255.848 628.537 255.552 629.145 254.96C629.769 254.384 630.081 253.504 630.081 252.32V251.768C629.105 252.84 627.745 253.376 626.001 253.376C624.817 253.376 623.729 253.12 622.737 252.608C621.761 252.08 620.985 251.344 620.409 250.4C619.833 249.456 619.545 248.368 619.545 247.136C619.545 245.904 619.833 244.816 620.409 243.872C620.985 242.928 621.761 242.2 622.737 241.688C623.729 241.16 624.817 240.896 626.001 240.896C627.873 240.896 629.297 241.512 630.273 242.744V241.088H633.825ZM626.745 250.304C627.737 250.304 628.545 250.016 629.169 249.44C629.809 248.848 630.129 248.08 630.129 247.136C630.129 246.192 629.809 245.432 629.169 244.856C628.545 244.264 627.737 243.968 626.745 243.968C625.753 243.968 624.937 244.264 624.297 244.856C623.657 245.432 623.337 246.192 623.337 247.136C623.337 248.08 623.657 248.848 624.297 249.44C624.937 250.016 625.753 250.304 626.745 250.304ZM649.958 247.592C649.958 247.64 649.934 247.976 649.886 248.6H640.118C640.294 249.4 640.71 250.032 641.366 250.496C642.022 250.96 642.838 251.192 643.814 251.192C644.486 251.192 645.078 251.096 645.59 250.904C646.118 250.696 646.606 250.376 647.054 249.944L649.046 252.104C647.83 253.496 646.054 254.192 643.718 254.192C642.262 254.192 640.974 253.912 639.854 253.352C638.734 252.776 637.87 251.984 637.262 250.976C636.654 249.968 636.35 248.824 636.35 247.544C636.35 246.28 636.646 245.144 637.238 244.136C637.846 243.112 638.67 242.32 639.71 241.76C640.766 241.184 641.942 240.896 643.238 240.896C644.502 240.896 645.646 241.168 646.67 241.712C647.694 242.256 648.494 243.04 649.07 244.064C649.662 245.072 649.958 246.248 649.958 247.592ZM643.262 243.728C642.414 243.728 641.702 243.968 641.126 244.448C640.55 244.928 640.198 245.584 640.07 246.416H646.43C646.302 245.6 645.95 244.952 645.374 244.472C644.798 243.976 644.094 243.728 643.262 243.728ZM670.576 250.4H662.776L661.288 254H657.304L664.792 237.2H668.632L676.144 254H672.064L670.576 250.4ZM669.352 247.448L666.688 241.016L664.024 247.448H669.352ZM689.759 241.088L684.311 254H680.447L675.023 241.088H678.887L682.463 249.872L686.159 241.088H689.759ZM696.073 240.896C698.073 240.896 699.609 241.376 700.681 242.336C701.753 243.28 702.289 244.712 702.289 246.632V254H698.785V252.392C698.081 253.592 696.769 254.192 694.849 254.192C693.857 254.192 692.993 254.024 692.257 253.688C691.537 253.352 690.985 252.888 690.601 252.296C690.217 251.704 690.025 251.032 690.025 250.28C690.025 249.08 690.473 248.136 691.369 247.448C692.281 246.76 693.681 246.416 695.569 246.416H698.545C698.545 245.6 698.297 244.976 697.801 244.544C697.305 244.096 696.561 243.872 695.569 243.872C694.881 243.872 694.201 243.984 693.529 244.208C692.873 244.416 692.313 244.704 691.849 245.072L690.505 242.456C691.209 241.96 692.049 241.576 693.025 241.304C694.017 241.032 695.033 240.896 696.073 240.896ZM695.785 251.672C696.425 251.672 696.993 251.528 697.489 251.24C697.985 250.936 698.337 250.496 698.545 249.92V248.6H695.977C694.441 248.6 693.673 249.104 693.673 250.112C693.673 250.592 693.857 250.976 694.225 251.264C694.609 251.536 695.129 251.672 695.785 251.672ZM705.677 241.088H709.421V254H705.677V241.088ZM707.549 239.288C706.861 239.288 706.301 239.088 705.869 238.688C705.437 238.288 705.221 237.792 705.221 237.2C705.221 236.608 705.437 236.112 705.869 235.712C706.301 235.312 706.861 235.112 707.549 235.112C708.237 235.112 708.797 235.304 709.229 235.688C709.661 236.072 709.877 236.552 709.877 237.128C709.877 237.752 709.661 238.272 709.229 238.688C708.797 239.088 708.237 239.288 707.549 239.288ZM712.896 236.192H716.64V254H712.896V236.192ZM725.323 240.896C727.323 240.896 728.859 241.376 729.931 242.336C731.003 243.28 731.539 244.712 731.539 246.632V254H728.035V252.392C727.331 253.592 726.019 254.192 724.099 254.192C723.107 254.192 722.243 254.024 721.507 253.688C720.787 253.352 720.235 252.888 719.851 252.296C719.467 251.704 719.275 251.032 719.275 250.28C719.275 249.08 719.723 248.136 720.619 247.448C721.531 246.76 722.931 246.416 724.819 246.416H727.795C727.795 245.6 727.547 244.976 727.051 244.544C726.555 244.096 725.811 243.872 724.819 243.872C724.131 243.872 723.451 243.984 722.779 244.208C722.123 244.416 721.563 244.704 721.099 245.072L719.755 242.456C720.459 241.96 721.299 241.576 722.275 241.304C723.267 241.032 724.283 240.896 725.323 240.896ZM725.035 251.672C725.675 251.672 726.243 251.528 726.739 251.24C727.235 250.936 727.587 250.496 727.795 249.92V248.6H725.227C723.691 248.6 722.923 249.104 722.923 250.112C722.923 250.592 723.107 250.976 723.475 251.264C723.859 251.536 724.379 251.672 725.035 251.672ZM742.559 240.896C743.759 240.896 744.847 241.176 745.823 241.736C746.815 242.28 747.591 243.056 748.151 244.064C748.711 245.056 748.991 246.216 748.991 247.544C748.991 248.872 748.711 250.04 748.151 251.048C747.591 252.04 746.815 252.816 745.823 253.376C744.847 253.92 743.759 254.192 742.559 254.192C740.783 254.192 739.431 253.632 738.503 252.512V254H734.927V236.192H738.671V242.456C739.615 241.416 740.911 240.896 742.559 240.896ZM741.911 251.12C742.871 251.12 743.655 250.8 744.263 250.16C744.887 249.504 745.199 248.632 745.199 247.544C745.199 246.456 744.887 245.592 744.263 244.952C743.655 244.296 742.871 243.968 741.911 243.968C740.951 243.968 740.159 244.296 739.535 244.952C738.927 245.592 738.623 246.456 738.623 247.544C738.623 248.632 738.927 249.504 739.535 250.16C740.159 250.8 740.951 251.12 741.911 251.12ZM751.498 236.192H755.242V254H751.498V236.192ZM771.364 247.592C771.364 247.64 771.34 247.976 771.292 248.6H761.524C761.7 249.4 762.116 250.032 762.772 250.496C763.428 250.96 764.244 251.192 765.22 251.192C765.892 251.192 766.484 251.096 766.996 250.904C767.524 250.696 768.012 250.376 768.46 249.944L770.452 252.104C769.236 253.496 767.46 254.192 765.124 254.192C763.668 254.192 762.38 253.912 761.26 253.352C760.14 252.776 759.276 251.984 758.668 250.976C758.06 249.968 757.756 248.824 757.756 247.544C757.756 246.28 758.052 245.144 758.644 244.136C759.252 243.112 760.076 242.32 761.116 241.76C762.172 241.184 763.348 240.896 764.644 240.896C765.908 240.896 767.052 241.168 768.076 241.712C769.1 242.256 769.9 243.04 770.476 244.064C771.068 245.072 771.364 246.248 771.364 247.592ZM764.668 243.728C763.82 243.728 763.108 243.968 762.532 244.448C761.956 244.928 761.604 245.584 761.476 246.416H767.836C767.708 245.6 767.356 244.952 766.78 244.472C766.204 243.976 765.5 243.728 764.668 243.728Z" fill="#9A9A9A"/>
</svg>
