<svg width="40" height="41" viewBox="0 0 40 41" fill="none" xmlns="http://www.w3.org/2000/svg">
<g clip-path="url(#clip0_186_5189)">
<path d="M17.5356 28.9448C17.5901 22.6821 22.682 17.5902 28.8086 17.6991C35.1258 17.7808 40.0543 22.791 39.9999 29.0538C39.9454 35.2621 34.8807 40.2723 28.7269 40.2178C22.4913 40.1634 17.4811 35.0987 17.5356 28.9448ZM32.5118 26.0585C32.3212 25.8135 32.1578 25.5684 31.94 25.405C31.6132 25.1872 31.2592 25.3233 31.0142 25.5956C29.1626 27.4472 27.2837 29.3261 25.4321 31.2049C25.0509 31.5861 25.0509 32.049 25.3777 32.3758C25.7044 32.7025 26.1945 32.7025 26.5485 32.3485C28.4274 30.4969 30.279 28.6181 32.1306 26.7393C32.2939 26.5759 32.3484 26.3581 32.5118 26.0585ZM31.1775 32.5664C32.0761 32.5664 32.7841 31.8584 32.7841 30.9598C32.7841 30.0885 32.0761 29.3805 31.2048 29.3533C30.3334 29.3533 29.571 30.0613 29.571 30.9598C29.571 31.8584 30.279 32.5664 31.1775 32.5664ZM27.9645 26.9571C27.9645 26.0585 27.2837 25.3233 26.3852 25.3233C25.5138 25.3233 24.7514 26.0585 24.7786 26.9299C24.7786 27.8012 25.4866 28.5092 26.3579 28.5364C27.2293 28.5364 27.9917 27.8284 27.9917 26.9571H27.9645Z" fill="#E66100"/>
<path d="M6.75282 19.0334C8.46827 17.2907 10.1565 15.5752 11.8447 13.8325C15.8474 9.74813 19.8502 5.69095 23.8529 1.63376C24.9965 0.462899 26.0585 0.462899 27.2293 1.63376C28.2368 2.61402 29.2171 3.59428 30.2246 4.57454C30.4969 4.84683 30.5241 5.03744 30.2518 5.36419C29.2443 6.58952 29.326 8.25051 30.3879 9.28523C31.4499 10.3199 33.1109 10.3744 34.309 9.33969C34.6357 9.06739 34.7991 9.09462 35.0714 9.36692C36.1061 10.4289 37.1953 11.4636 38.2572 12.5255C39.2103 13.4786 39.2375 14.6494 38.3117 15.6025C37.4676 16.4466 36.5962 17.2634 35.7249 18.1076C31.5316 15.6297 27.1749 15.3029 22.7909 17.5902C18.407 19.9047 16.2286 23.6896 15.8747 28.727C12.7977 25.4595 9.77528 22.2737 6.72559 19.0334H6.75282Z" fill="#E66100"/>
<path d="M5.77307 20.3403C7.189 21.838 8.71385 23.4445 10.2387 25.0783C12.1175 27.066 14.0236 29.081 15.8752 31.0687C16.0386 31.2321 16.1475 31.4499 16.2019 31.6678C16.5559 33.1382 17.1005 34.5541 17.9174 35.8066C18.0808 36.0517 18.0263 36.1606 17.8357 36.3512C16.8554 37.3315 15.9024 38.3118 14.9222 39.292C14.0236 40.1906 12.8527 40.1906 11.9541 39.292C11.0011 38.339 10.0481 37.386 9.06783 36.4602C8.60493 36.0245 8.52324 35.5616 8.74108 34.9898C9.39458 33.3015 8.49601 31.5589 6.80779 31.1504C6.18151 31.0143 5.55524 31.0415 4.95619 31.3138C4.4116 31.5589 3.97593 31.4499 3.56749 31.0415C2.61446 30.0612 1.60697 29.1082 0.626715 28.128C-0.190168 27.3111 -0.271856 26.113 0.545026 25.2961C2.23325 23.6079 3.97593 22.0013 5.74584 20.3131L5.77307 20.3403Z" fill="#E66100"/>
<path d="M21.1569 2.09666C15.3026 8.0599 9.52999 13.9142 3.64844 19.8775C4.13857 17.6447 4.60147 15.5208 5.0916 13.4241C5.96294 9.53029 6.83428 5.66372 7.70562 1.76991C8.00514 0.462898 8.95817 -0.163378 10.2652 0.0272278C10.837 0.108916 11.4088 0.245063 11.9806 0.353981C12.498 0.435669 12.7975 0.762422 12.8792 1.25255C13.0698 2.28727 13.6416 3.02246 14.7036 3.21307C15.7655 3.4309 16.6369 2.99523 17.2631 2.09666C17.5899 1.63376 17.9983 1.47039 18.5702 1.60653C19.4143 1.79714 20.2584 1.93329 21.1842 2.09666H21.1569Z" fill="#E66100"/>
</g>
<defs>
<clipPath id="clip0_186_5189">
<rect width="40" height="40.2178" fill="white"/>
</clipPath>
</defs>
</svg>
