<svg width="1025" height="254" viewBox="0 0 1025 254" fill="none" xmlns="http://www.w3.org/2000/svg">
<g clip-path="url(#clip0_12908_75468)">
<rect width="1025" height="254" rx="16" fill="#E6E6E6"/>
<path d="M541.827 78.1667H445.16C438.497 78.1667 433.077 83.5861 433.077 90.2501V162.75C433.077 169.414 438.497 174.833 445.16 174.833H541.827C548.491 174.833 553.91 169.414 553.91 162.75V90.2501C553.91 83.5861 548.491 78.1667 541.827 78.1667ZM460.265 96.2917C462.668 96.2917 464.973 97.2465 466.673 98.9461C468.372 100.646 469.327 102.951 469.327 105.354C469.327 107.758 468.372 110.063 466.673 111.762C464.973 113.462 462.668 114.417 460.265 114.417C457.861 114.417 455.556 113.462 453.856 111.762C452.157 110.063 451.202 107.758 451.202 105.354C451.202 102.951 452.157 100.646 453.856 98.9461C455.556 97.2465 457.861 96.2917 460.265 96.2917V96.2917ZM493.494 156.708H451.202L475.369 126.5L484.431 138.583L502.556 114.417L535.785 156.708H493.494Z" fill="#BABABA"/>
</g>
<defs>
<clipPath id="clip0_12908_75468">
<rect width="1025" height="254" rx="16" fill="white"/>
</clipPath>
</defs>
</svg>
