<svg width="500" height="500" viewBox="0 0 500 500" fill="none" xmlns="http://www.w3.org/2000/svg">
<rect width="500" height="500" fill="white"/>
<path d="M142.225 351.967V366.667H139.432L132.103 357.742V366.667H128.743V351.967H131.557L138.865 360.892V351.967H142.225ZM152.822 366.919C151.296 366.919 149.917 366.59 148.685 365.932C147.467 365.274 146.508 364.371 145.808 363.223C145.122 362.061 144.779 360.759 144.779 359.317C144.779 357.875 145.122 356.58 145.808 355.432C146.508 354.27 147.467 353.36 148.685 352.702C149.917 352.044 151.296 351.715 152.822 351.715C154.348 351.715 155.72 352.044 156.938 352.702C158.156 353.36 159.115 354.27 159.815 355.432C160.515 356.58 160.865 357.875 160.865 359.317C160.865 360.759 160.515 362.061 159.815 363.223C159.115 364.371 158.156 365.274 156.938 365.932C155.72 366.59 154.348 366.919 152.822 366.919ZM152.822 364.021C153.69 364.021 154.474 363.825 155.174 363.433C155.874 363.027 156.42 362.467 156.812 361.753C157.218 361.039 157.421 360.227 157.421 359.317C157.421 358.407 157.218 357.595 156.812 356.881C156.42 356.167 155.874 355.614 155.174 355.222C154.474 354.816 153.69 354.613 152.822 354.613C151.954 354.613 151.17 354.816 150.47 355.222C149.77 355.614 149.217 356.167 148.811 356.881C148.419 357.595 148.223 358.407 148.223 359.317C148.223 360.227 148.419 361.039 148.811 361.753C149.217 362.467 149.77 363.027 150.47 363.433C151.17 363.825 151.954 364.021 152.822 364.021ZM169.369 351.967H172.771V366.667H169.369V351.967ZM189.637 366.667L189.616 357.847L185.29 365.113H183.757L179.452 358.036V366.667H176.26V351.967H179.074L184.576 361.102L189.994 351.967H192.787L192.829 366.667H189.637ZM205.997 363.517H199.172L197.87 366.667H194.384L200.936 351.967H204.296L210.869 366.667H207.299L205.997 363.517ZM204.926 360.934L202.595 355.306L200.264 360.934H204.926ZM222.122 359.086H225.23V365.05C224.432 365.652 223.508 366.114 222.458 366.436C221.408 366.758 220.351 366.919 219.287 366.919C217.761 366.919 216.389 366.597 215.171 365.953C213.953 365.295 212.994 364.392 212.294 363.244C211.608 362.082 211.265 360.773 211.265 359.317C211.265 357.861 211.608 356.559 212.294 355.411C212.994 354.249 213.96 353.346 215.192 352.702C216.424 352.044 217.81 351.715 219.35 351.715C220.638 351.715 221.807 351.932 222.857 352.366C223.907 352.8 224.789 353.43 225.503 354.256L223.319 356.272C222.269 355.166 221.002 354.613 219.518 354.613C218.58 354.613 217.747 354.809 217.019 355.201C216.291 355.593 215.724 356.146 215.318 356.86C214.912 357.574 214.709 358.393 214.709 359.317C214.709 360.227 214.912 361.039 215.318 361.753C215.724 362.467 216.284 363.027 216.998 363.433C217.726 363.825 218.552 364.021 219.476 364.021C220.456 364.021 221.338 363.811 222.122 363.391V359.086ZM239.772 363.937V366.667H228.39V351.967H239.499V354.697H231.771V357.889H238.596V360.535H231.771V363.937H239.772ZM258.108 363.517H251.283L249.981 366.667H246.495L253.047 351.967H256.407L262.98 366.667H259.41L258.108 363.517ZM257.037 360.934L254.706 355.306L252.375 360.934H257.037ZM277.838 351.967L271.475 366.667H268.115L261.773 351.967H265.448L269.921 362.467L274.457 351.967H277.838ZM288.254 363.517H281.429L280.127 366.667H276.641L283.193 351.967H286.553L293.126 366.667H289.556L288.254 363.517ZM287.183 360.934L284.852 355.306L282.521 360.934H287.183ZM294.651 351.967H298.053V366.667H294.651V351.967ZM301.542 351.967H304.944V363.895H312.315V366.667H301.542V351.967ZM324.02 363.517H317.195L315.893 366.667H312.407L318.959 351.967H322.319L328.892 366.667H325.322L324.02 363.517ZM322.949 360.934L320.618 355.306L318.287 360.934H322.949ZM341.211 359.023C342.051 359.289 342.709 359.737 343.185 360.367C343.661 360.983 343.899 361.746 343.899 362.656C343.899 363.944 343.395 364.938 342.387 365.638C341.393 366.324 339.937 366.667 338.019 366.667H330.417V351.967H337.599C339.391 351.967 340.763 352.31 341.715 352.996C342.681 353.682 343.164 354.613 343.164 355.789C343.164 356.503 342.989 357.14 342.639 357.7C342.303 358.26 341.827 358.701 341.211 359.023ZM333.798 354.529V357.994H337.179C338.019 357.994 338.656 357.847 339.09 357.553C339.524 357.259 339.741 356.825 339.741 356.251C339.741 355.677 339.524 355.25 339.09 354.97C338.656 354.676 338.019 354.529 337.179 354.529H333.798ZM337.767 364.105C338.663 364.105 339.335 363.958 339.783 363.664C340.245 363.37 340.476 362.915 340.476 362.299C340.476 361.081 339.573 360.472 337.767 360.472H333.798V364.105H337.767ZM346.474 351.967H349.876V363.895H357.247V366.667H346.474V351.967ZM370.53 363.937V366.667H359.148V351.967H370.257V354.697H362.529V357.889H369.354V360.535H362.529V363.937H370.53Z" fill="#BABABA"/>
<path d="M348.758 129H151.64C138.051 129 127 140.25 127 154.083V304.583C127 318.417 138.051 329.667 151.64 329.667H348.758C362.347 329.667 373.398 318.417 373.398 304.583V154.083C373.398 140.25 362.347 129 348.758 129ZM182.44 166.625C187.341 166.625 192.041 168.607 195.507 172.135C198.972 175.663 200.919 180.448 200.919 185.437C200.919 190.427 198.972 195.212 195.507 198.74C192.041 202.268 187.341 204.25 182.44 204.25C177.538 204.25 172.838 202.268 169.372 198.74C165.907 195.212 163.96 190.427 163.96 185.437C163.96 180.448 165.907 175.663 169.372 172.135C172.838 168.607 177.538 166.625 182.44 166.625ZM250.199 292.042H163.96L213.239 229.333L231.719 254.417L268.679 204.25L336.438 292.042H250.199Z" fill="#BABABA"/>
</svg>
