<svg width="300" height="300" viewBox="0 0 300 300" fill="none" xmlns="http://www.w3.org/2000/svg">
<rect width="300" height="300" rx="16" fill="#E6E6E6"/>
<path d="M183.329 116.667H116.662C112.067 116.667 108.329 120.404 108.329 125V175C108.329 179.596 112.067 183.333 116.662 183.333H183.329C187.925 183.333 191.662 179.596 191.662 175V125C191.662 120.404 187.925 116.667 183.329 116.667ZM127.079 129.167C128.737 129.167 130.326 129.825 131.499 130.997C132.671 132.169 133.329 133.759 133.329 135.417C133.329 137.074 132.671 138.664 131.499 139.836C130.326 141.008 128.737 141.667 127.079 141.667C125.422 141.667 123.832 141.008 122.66 139.836C121.488 138.664 120.829 137.074 120.829 135.417C120.829 133.759 121.488 132.169 122.66 130.997C123.832 129.825 125.422 129.167 127.079 129.167V129.167ZM149.996 170.833H120.829L137.496 150L143.746 158.333L156.246 141.667L179.162 170.833H149.996Z" fill="#BABABA"/>
</svg>
