<svg width="163" height="165" viewBox="0 0 163 165" fill="none" xmlns="http://www.w3.org/2000/svg">
<path d="M50.6974 128.374C47.2716 115.38 36.7571 89.4075 29.1545 93.2935C21.5518 97.1795 38.6412 116.385 43.2397 130.092" fill="url(#paint0_linear_0_5)"/>
<path opacity="0.25" d="M33.1073 98.5806C33.1073 98.5806 42.5809 117.244 43.3846 123.893" stroke="url(#paint1_linear_0_5)" stroke-width="0.667373" stroke-linecap="round" stroke-linejoin="round"/>
<path d="M51.0531 126.906C40.2751 118.91 15.8993 105.229 12.3813 113.028C8.86327 120.826 34.1746 125.109 46.3097 132.92" fill="url(#paint2_linear_0_5)"/>
<path opacity="0.25" d="M17.072 114.931C26.4138 117.654 43.938 127.541 43.938 127.541" stroke="url(#paint3_linear_0_5)" stroke-width="0.667373" stroke-linecap="round" stroke-linejoin="round"/>
<path d="M10.5533 140.455C16.1004 143.164 57.9873 138.604 59.5025 141.301C61.0178 143.997 36.9582 142.992 31.2398 143.838C25.5214 144.671 24.52 152.945 37.3008 152.602C50.0816 152.271 66.9075 150.751 65.2209 153.791C63.5344 156.831 48.5663 155.14 49.2383 160.704C49.9103 166.282 81.3616 164.762 99.0308 164.921C116.687 165.093 121.404 159.026 107.608 157.506C93.8131 155.985 84.2209 155.14 89.7944 153.448C95.3547 151.769 151.841 156.316 150.668 148.729C149.495 141.129 130.653 146.865 132.498 143.667C134.356 140.455 161.261 144.512 162.948 136.912C163.633 133.819 141.814 132.445 114.882 131.903C93.3519 131.48 68.5677 131.599 49.3701 131.837C33.5456 132.022 21.529 132.299 18.2877 132.392C6.17885 132.749 5.00617 137.758 10.5533 140.455Z" fill="url(#paint4_linear_0_5)"/>
<path d="M49.2383 133.066C49.9103 138.631 81.3617 137.11 99.0308 137.282C111.851 137.401 117.859 134.229 114.882 131.903C93.3519 131.48 68.5677 131.599 49.3701 131.837C49.2383 132.193 49.1856 132.603 49.2383 133.066Z" fill="url(#paint5_linear_0_5)"/>
<path d="M42.5976 52.397H9.90771C10.0131 47.8104 14.6906 46.7795 15.7447 49.3834C16.6539 45.8806 18.9729 44.6778 20.8966 44.9158C21.6081 43.3693 22.649 42.1004 23.8612 41.4791C26.9444 39.9062 31.9381 41.2016 33.6247 47.784C35.2453 43.7922 42.4263 45.3652 42.5976 52.397Z" fill="url(#paint6_linear_0_5)"/>
<path d="M98.53 20.522H131.22C131.115 15.9354 126.437 14.9045 125.383 17.5084C124.474 14.0056 122.155 12.8028 120.231 13.0408C119.52 11.4943 118.479 10.2254 117.266 9.60413C114.183 8.03121 109.189 9.32655 107.503 15.909C105.882 11.9172 98.7013 13.4902 98.53 20.522Z" fill="url(#paint7_linear_0_5)"/>
<g clip-path="url(#clip0_0_5)">
<path d="M43.117 61.9675L42.7929 52.2343L52.4614 51.908L52.7854 61.6413L43.117 61.9675ZM43.658 53.049L43.9263 61.0966L51.9203 60.8266L51.6521 52.779L43.658 53.049Z" fill="black"/>
<path d="M141.303 65.0621C141.303 66.337 140.276 67.3702 139.01 67.3702C137.744 67.3702 136.718 66.3366 136.718 65.0621C136.718 63.7876 137.744 62.7539 139.01 62.7539C140.277 62.7539 141.303 63.7876 141.303 65.0621Z" fill="#EC6750"/>
<path d="M65.6206 48.5887C65.6206 50.2798 64.2585 51.6515 62.5782 51.6515C60.8978 51.6515 59.5361 50.2803 59.5361 48.5887C59.5361 46.8971 60.8983 45.5258 62.5782 45.5258C64.2581 45.5258 65.6206 46.8971 65.6206 48.5887Z" fill="#EC6750"/>
<path d="M114.492 48.4291L114.324 49.0796L120.746 50.7649L120.915 50.1144L114.492 48.4291Z" fill="black"/>
<path d="M118.138 46.2812L116.463 52.7466L117.109 52.9163L118.784 46.4509L118.138 46.2812Z" fill="black"/>
<path d="M131.159 59.0813C128.225 58.8079 126.06 56.1828 126.331 53.2299C126.603 50.2765 129.211 48.0964 132.144 48.3698C135.078 48.6432 137.243 51.2683 136.972 54.2217C136.7 57.1751 134.092 59.3551 131.159 59.0817L131.159 59.0813ZM132.071 49.1642C129.573 48.9314 127.352 50.7882 127.121 53.3034C126.89 55.8186 128.734 58.054 131.232 58.2869C133.731 58.5197 135.951 56.6629 136.183 54.1477C136.414 51.6325 134.569 49.3971 132.071 49.1642Z" fill="black"/>
<path d="M84.8329 46.7855L39.3752 120.013C35.7509 125.851 39.7147 133.612 46.3152 133.603C111.698 133.519 87.3364 133.606 137.227 133.621C143.824 133.623 147.78 125.866 144.158 120.031L98.689 46.7855C95.4148 41.5109 88.1071 41.5109 84.8325 46.7855H84.8329Z" fill="#FE5A3E"/>
<path d="M87.2378 115.228C87.2378 112.433 89.1657 110.414 91.788 110.414C94.5644 110.414 96.3383 112.433 96.3383 115.228C96.3383 118.023 94.5644 120.041 91.788 120.041C89.0117 120.041 87.2378 117.945 87.2378 115.228ZM89.1368 103.117L88.1172 67.9271C88.1004 67.3423 88.5667 66.8589 89.1481 66.8589H94.4284C95.0097 66.8589 95.4761 67.3423 95.4593 67.9271L94.4397 103.117C94.4233 103.679 93.9666 104.125 93.4087 104.125H90.1677C89.6099 104.125 89.1531 103.679 89.1368 103.117Z" fill="white" stroke="white" stroke-width="21.3308" stroke-miterlimit="10"/>
<path d="M78.7232 46.8937L39.444 123.659C36.3125 129.779 40.901 137.183 47.4779 136.624C112.629 131.091 88.3585 133.208 138.079 129.065C144.653 128.517 147.959 120.456 143.869 114.943L92.5318 45.7388C88.835 40.7553 81.5524 41.3643 78.7232 46.8937Z" stroke="black" stroke-miterlimit="10"/>
<path d="M86.7487 114.901C86.5187 112.115 88.2742 109.943 90.8872 109.724C93.6539 109.493 95.5877 111.357 95.8178 114.142C96.0411 116.85 94.446 119.087 91.6793 119.318C88.9894 119.543 86.9725 117.608 86.7487 114.901ZM87.6449 102.674L83.7348 67.6892C83.6697 67.1078 84.095 66.5872 84.6742 66.5386L89.9364 66.0987C90.5157 66.0501 91.0203 66.4929 91.0513 67.0773L92.9294 102.232C92.9592 102.792 92.5411 103.275 91.9849 103.322L88.7548 103.592C88.199 103.638 87.707 103.231 87.6445 102.674H87.6449Z" stroke="black" stroke-miterlimit="10"/>
</g>
<defs>
<linearGradient id="paint0_linear_0_5" x1="32.4511" y1="87.3232" x2="46.356" y2="142.061" gradientUnits="userSpaceOnUse">
<stop stop-color="#6DE19D"/>
<stop offset="1" stop-color="#5975AD"/>
</linearGradient>
<linearGradient id="paint1_linear_0_5" x1="41.8114" y1="108.137" x2="34.6949" y2="114.269" gradientUnits="userSpaceOnUse">
<stop stop-color="#42363F"/>
<stop offset="1" stop-color="#594469"/>
</linearGradient>
<linearGradient id="paint2_linear_0_5" x1="7.62251" y1="113.559" x2="79.1923" y2="136.686" gradientUnits="userSpaceOnUse">
<stop stop-color="#6DE19D"/>
<stop offset="1" stop-color="#5975AD"/>
</linearGradient>
<linearGradient id="paint3_linear_0_5" x1="35.3471" y1="117.027" x2="25.6618" y2="125.373" gradientUnits="userSpaceOnUse">
<stop stop-color="#42363F"/>
<stop offset="1" stop-color="#594469"/>
</linearGradient>
<linearGradient id="paint4_linear_0_5" x1="105.5" y1="241.69" x2="68.6206" y2="52.7719" gradientUnits="userSpaceOnUse">
<stop stop-color="white"/>
<stop offset="1" stop-color="#D9E5FF"/>
</linearGradient>
<linearGradient id="paint5_linear_0_5" x1="89.7021" y1="84.7285" x2="81.2437" y2="140.407" gradientUnits="userSpaceOnUse">
<stop stop-color="white"/>
<stop offset="1" stop-color="#D9E5FF"/>
</linearGradient>
<linearGradient id="paint6_linear_0_5" x1="24.2038" y1="14.7924" x2="27.1341" y2="68.3367" gradientUnits="userSpaceOnUse">
<stop stop-color="white"/>
<stop offset="1" stop-color="#D9E5FF"/>
</linearGradient>
<linearGradient id="paint7_linear_0_5" x1="116.924" y1="-17.0826" x2="113.98" y2="36.4616" gradientUnits="userSpaceOnUse">
<stop stop-color="white"/>
<stop offset="1" stop-color="#D9E5FF"/>
</linearGradient>
<clipPath id="clip0_0_5">
<rect width="108" height="95" fill="white" transform="translate(38 42)"/>
</clipPath>
</defs>
</svg>
