<svg width="24" height="24" viewBox="0 0 24 24" fill="none" xmlns="http://www.w3.org/2000/svg">
<g clip-path="url(#clip0_17618_3131)">
<path d="M23.954 5.54199L15.536 13.96C14.5974 14.8962 13.3257 15.422 12 15.422C10.6743 15.422 9.40263 14.8962 8.464 13.96L0.046 5.54199C0.032 5.69999 0 5.84299 0 5.99999V18C0.00158786 19.3256 0.528882 20.5964 1.46622 21.5338C2.40356 22.4711 3.67441 22.9984 5 23H19C20.3256 22.9984 21.5964 22.4711 22.5338 21.5338C23.4711 20.5964 23.9984 19.3256 24 18V5.99999C24 5.84299 23.968 5.69999 23.954 5.54199Z" fill="white"/>
<path d="M14.1219 12.546L23.2559 3.411C22.8134 2.67732 22.1893 2.07004 21.4439 1.64773C20.6984 1.22542 19.8567 1.00234 18.9999 1H4.9999C4.14312 1.00234 3.3014 1.22542 2.55592 1.64773C1.81045 2.07004 1.18637 2.67732 0.743896 3.411L9.8779 12.546C10.4415 13.1073 11.2045 13.4225 11.9999 13.4225C12.7953 13.4225 13.5583 13.1073 14.1219 12.546Z" fill="white"/>
</g>
<defs>
<clipPath id="clip0_17618_3131">
<rect width="24" height="24" fill="white"/>
</clipPath>
</defs>
</svg>
