<svg width="599" height="431" viewBox="0 0 599 431" fill="none" xmlns="http://www.w3.org/2000/svg">
<g clip-path="url(#clip0_14415_77326)">
<path d="M573.153 430.049C535.369 430.049 24.5387 428.948 24.5387 428.887C24.327 428.392 -40.3086 349.192 41.0813 266.388C81.4103 225.36 4.0465 172.205 41.0813 126.565C104.521 48.3877 167.29 92.4165 219.58 70.4289C228.82 66.5467 238.091 60.3017 247.372 50.7149C252.597 45.3238 258.321 40.6107 264.45 36.5399C265.391 35.9129 266.34 35.3011 267.298 34.7072C270.967 32.4309 274.774 30.3739 278.693 28.5233C281.327 27.282 284.007 26.1349 286.74 25.0796C291.074 23.4049 295.529 21.9596 300.078 20.7387C306.539 19.0028 313.188 17.7105 319.971 16.8362C322.928 16.4513 325.911 16.1505 328.918 15.9236C387.347 11.5317 453.1 36.2315 487.034 72.333C493.865 79.6027 524.93 117.216 500.443 168.917C484.981 201.56 549.755 232.734 572.771 270.01C631.29 364.78 573.684 428.813 573.151 430.049H573.153Z" fill="#F8F8F8"/>
<g opacity="0.8">
<path d="M440.95 209.709C439.389 213.996 437.477 218.059 435.251 221.867C429.91 231.008 422.786 238.693 414.499 244.635C395.246 258.445 369.726 262.827 345.774 254.122C317.28 243.768 298.978 217.799 297.03 189.391C296.77 185.646 296.796 181.861 297.125 178.063C297.665 171.685 299.052 165.272 301.342 158.973C303.196 153.878 305.549 149.106 308.326 144.699C308.356 144.648 308.39 144.6 308.42 144.549C316.131 132.375 327.082 122.976 339.677 117.086C343.249 115.414 346.957 114.024 350.761 112.936C352.574 112.416 354.415 111.965 356.266 111.587C369.262 108.914 383.135 109.691 396.523 114.557C398.298 115.202 400.034 115.908 401.727 116.673C404.119 117.746 406.427 118.936 408.647 120.231C418.002 125.683 425.83 133.002 431.832 141.52H431.835C435.575 146.825 438.602 152.593 440.843 158.667C442.021 161.859 442.982 165.132 443.714 168.468C444.17 170.546 444.537 172.641 444.815 174.762C445.483 179.852 445.621 185.045 445.203 190.265C444.678 196.757 443.283 203.293 440.95 209.714V209.709Z" fill="#E6EEDD"/>
<path d="M358.79 144.487C354.402 147.885 355.565 156.977 347.967 151.854C340.369 146.728 335.601 143.942 333.449 148.415C331.294 152.889 338.028 155.336 336.256 160.21C334.484 165.083 330.879 165.598 327.079 161.596C323.275 157.594 323.166 153.743 317.011 153.87C310.853 153.998 308.227 151.467 308.528 146.845C308.579 146.032 308.497 145.329 308.326 144.701C308.357 144.65 308.39 144.602 308.421 144.551C316.131 132.377 327.082 122.979 339.678 117.088C343.25 115.416 346.957 114.027 350.761 112.938C352.574 112.418 354.415 111.967 356.266 111.59C358.413 112.462 360.715 114.231 361.934 117.779C364.614 125.587 368.961 123.749 365.269 130.289C361.575 136.828 363.097 138.433 367.125 139.634C371.157 140.835 375.8 142.522 375.167 145.708C374.532 148.895 363.181 141.087 358.79 144.487Z" fill="#A9D26D"/>
<path d="M440.95 209.709C439.39 213.996 437.478 218.059 435.252 221.867C429.91 231.008 422.786 238.693 414.499 244.635C412.434 244.571 410.555 243.87 408.972 242.456C401.531 235.81 411.391 228.755 416.583 225.319C421.774 221.885 412.136 220.746 407.276 214.055C402.416 207.364 413.796 198.294 406.483 197.805C399.17 197.315 390.277 196.841 388.788 189.011C387.299 181.18 394.991 182.791 393.645 176.194C392.299 169.598 398.66 168.361 405.466 170.245C412.271 172.126 413.11 167.112 421.544 169.389C429.981 171.665 426.009 182.044 435.315 184.639C444.622 187.234 443.454 189.174 443.454 189.174C444.112 189.393 444.696 189.76 445.201 190.257C444.675 196.75 443.281 203.285 440.948 209.706L440.95 209.709Z" fill="#A9D26D"/>
<path d="M444.816 174.759C435.955 175.685 436.555 164.627 429.033 165.285C421.447 165.945 424.693 160.554 420.94 154.987C417.182 149.42 404.522 152.438 407.095 146.802C409.668 141.171 416.738 145.576 420.05 141.528C423.362 137.478 430.369 141.337 430.369 141.337C430.848 141.329 431.338 141.39 431.833 141.52C431.833 141.52 431.833 141.518 431.835 141.52C435.576 146.825 438.602 152.591 440.843 158.667C442.021 161.859 442.982 165.132 443.714 168.468C444.171 170.546 444.538 172.641 444.816 174.762V174.759Z" fill="#A9D26D"/>
<path d="M388.67 131.699C388.67 131.699 394.685 127.442 389.03 123.484C383.372 119.528 382.689 121.768 378.005 119.477C373.319 117.185 370.032 120.262 372.192 125.709C374.349 131.156 374.435 140.136 379.275 137.126C384.114 134.115 384.637 130.692 388.673 131.699H388.67Z" fill="#A9D26D"/>
</g>
<path d="M41.4098 429.096H67.3151C68.7021 427.918 66.3538 425.244 63.901 425.066C62.8352 424.984 61.4864 425.209 59.9464 425.532C59.5894 420.799 57.5547 399.52 49.8826 400.376C41.2569 401.335 49.8826 409.746 52.3201 414.727C54.1279 418.415 56.0325 423.707 56.902 426.205C56.2008 426.356 55.4767 426.506 54.7347 426.641C53.5924 423.131 49.337 411.327 43.9264 412.015C37.5751 412.82 40.1273 417.554 44.6302 420.363C47.9321 422.43 51.9887 425.367 53.9163 426.784C52.2844 427.051 50.5787 427.23 48.85 427.189C44.4134 427.085 42.2462 428.39 41.4073 429.093L41.4098 429.096Z" fill="#A8D29F"/>
<path d="M453.676 429.096H429.614C428.324 428.002 430.507 425.52 432.786 425.351C433.775 425.278 435.027 425.484 436.458 425.785C436.789 421.388 438.679 401.623 445.805 402.418C453.819 403.308 445.805 411.123 443.541 415.749C441.863 419.175 440.094 424.09 439.283 426.409C439.933 426.549 440.606 426.687 441.295 426.815C442.358 423.554 446.307 412.589 451.333 413.228C457.233 413.978 454.862 418.372 450.68 420.982C447.613 422.902 443.844 425.629 442.054 426.947C443.571 427.194 445.155 427.363 446.759 427.324C450.882 427.228 452.891 428.441 453.671 429.093L453.676 429.096Z" fill="#A8D29F"/>
<path d="M470.858 271.42C470.858 271.42 471.432 265.725 468.454 265.922C465.476 266.115 464.685 267.482 465.019 268.578C465.351 269.671 468.25 273.293 468.25 273.293L470.861 271.422L470.858 271.42Z" fill="#FFB27D"/>
<path d="M517.271 282.832C517.271 282.832 513.974 286.706 506.883 291.175C506.213 291.6 505.509 292.026 504.77 292.457C502.016 294.06 498.785 295.704 495.055 297.236C494.645 297.404 494.163 297.59 493.62 297.787C489.369 299.321 481.552 301.496 476.707 301.692C476.287 301.71 475.886 301.71 475.514 301.694C468.14 301.396 467.24 272.784 467.24 272.784C467.24 272.784 468.061 269.921 471.85 270.642C471.85 270.642 477.605 286.803 479.665 288.121C481.496 289.291 492.024 273.339 501.085 272.223C507.184 271.471 517.271 282.839 517.271 282.839V282.832Z" fill="#AAD47F"/>
<path d="M497.46 422.369C497.46 422.369 498.005 428.668 496.672 429.323L479.627 429.287C479.627 429.287 479.627 427.319 482.365 426.883C485.104 426.448 489.913 424.844 490.726 421.276C491.539 417.707 497.46 422.369 497.46 422.369Z" fill="#1C3154"/>
<path d="M484.945 346.131C485.029 350.25 485.228 354.499 485.616 358.318C487.457 376.436 488.104 398.327 488.37 402.548C488.829 409.874 490.277 421.579 490.277 421.579C490.277 421.579 493.148 424.304 498.744 423.004C498.744 423.004 503.382 406.147 504.418 388.396C504.433 388.105 504.448 387.812 504.463 387.519C504.583 385.171 504.708 382.49 504.838 379.597C505.69 360.217 506.618 331.426 506.618 331.426L485.228 326.404C485.228 326.404 484.736 335.866 484.945 346.136V346.131Z" fill="#4D4D4D"/>
<path d="M484.945 346.131C490.366 355.481 500.698 372.707 504.838 379.592C505.69 360.212 506.618 331.421 506.618 331.421L485.228 326.399C485.228 326.399 484.736 335.861 484.945 346.131Z" fill="#292929"/>
<path d="M493.619 297.784C489.369 299.319 481.552 301.493 476.707 301.689C477.449 301.552 482.844 300.481 484.838 298.075C486.98 295.485 490.588 288.455 493.459 291.325C494.81 292.676 494.412 295.345 493.619 297.787V297.784Z" fill="#A9CF4B"/>
<path d="M529.561 343.085C529.561 343.085 530.889 348.29 530.67 349.447C530.453 350.605 529.155 354.52 528.347 355.494C527.539 356.465 527.505 351.27 526.967 350.452C526.429 349.636 526.72 352.391 526.289 352.618C525.858 352.843 525.139 350.531 524.821 349.71C524.502 348.889 525.968 346.034 526.106 343.987C526.241 341.941 529.558 343.085 529.558 343.085H529.561Z" fill="#FFB27D"/>
<path d="M539.92 415.209C539.92 415.209 542.954 417.977 542.363 419.942C541.771 421.91 539.033 423.22 538.663 425.624C538.293 428.028 536.815 429.338 535.481 429.338H529.132C529.132 429.338 528.151 427.646 530.519 427.136C532.888 426.626 533.78 423.802 533.633 421.179C533.485 418.556 533.854 415.061 533.854 415.061L538.885 413.896L539.92 415.206V415.209Z" fill="#1C3154"/>
<path d="M488.6 331.859C488.6 331.859 508.623 374.687 519.278 393.479C529.933 412.27 533.263 417.516 533.263 417.516C533.263 417.516 539.367 415.112 539.923 413.473C539.923 413.473 535.849 377.193 528.712 368.351C524.681 363.355 519.943 348.356 519.722 343.113C519.5 337.87 514.821 325.352 514.821 325.352L488.6 331.859Z" fill="#4D4D4D"/>
<path d="M484.867 329.631C484.867 329.631 491.386 336.646 502.465 338.764C507.327 339.695 517.197 340.595 519.645 337.133C520.219 336.32 520.224 335.117 520.096 333.238C519.767 328.357 518.538 318.918 524.084 299.951C524.602 298.187 524.948 296.494 525.15 294.881C526.361 285.177 526.228 277.854 517.809 273.941C505.191 268.078 500.012 272.901 500.012 272.901C500.012 272.901 493.301 276.036 490.234 285.172C484.102 303.446 484.864 329.629 484.864 329.629L484.867 329.631Z" fill="#AAD47F"/>
<path d="M510.236 272.333C508.112 273.842 504.375 274.731 500.813 272.949C500.537 272.812 500.573 270.928 500.642 269.077C500.711 267.263 500.881 265.478 500.881 265.478L505.371 262.532L509.655 259.723C509.142 269.386 511.198 271.647 510.239 272.33L510.236 272.333Z" fill="#FFB27D"/>
<path d="M508.897 263.712C508.897 263.712 505.983 268.083 500.639 269.077C500.708 267.263 500.901 265.262 500.901 265.262L505.368 262.534L508.9 263.714L508.897 263.712Z" fill="#ED985F"/>
<path d="M496.858 264.344C496.858 264.344 507.72 268.397 510.137 261.706C512.554 255.015 515.584 251.033 508.75 248.163C501.917 245.293 499.64 247.363 498.281 249.399C496.922 251.436 494.094 263.118 496.858 264.344Z" fill="#FFB27D"/>
<path d="M516.904 248.912C517.029 248.815 517.281 248.767 517.812 248.843C517.812 248.843 517.444 248.499 516.889 248.374C516.922 247.625 516.789 246.261 515.601 245.703C515.601 245.703 516.203 246.195 516.139 246.985C514.984 245.211 512.09 243.514 503.355 242.494C491.84 241.151 494.143 249.144 495.44 250.299C496.738 251.454 500.899 249.812 503.592 250.569C506.284 251.326 506.024 255.379 506.843 256.103C507.664 256.829 507.488 255.797 508.854 255.479C510.221 255.16 509.93 257.263 509.301 258.542C508.671 259.822 510.043 261.948 510.043 261.948L512.156 260.416C514.27 258.884 517.483 251.26 517.026 249.409C516.986 249.246 516.947 249.081 516.906 248.915L516.904 248.912Z" fill="#292929"/>
<path d="M520.098 333.241C519.769 328.359 518.54 318.921 524.086 299.953C524.604 298.19 524.95 296.497 525.152 294.883C521.031 293.525 513.525 296.545 513.525 296.545C513.525 296.545 511.761 321.617 520.101 333.238L520.098 333.241Z" fill="#A9CF4B"/>
<path d="M520.081 275.21C520.081 275.21 525.15 277.053 528.385 290.474C530.522 299.339 534.456 312.372 534.9 316.468C535.344 320.565 530.402 344.541 530.402 344.541C530.402 344.541 529.706 345.048 527.998 344.706C526.363 344.38 525.604 343.274 525.604 343.274C525.604 343.274 524.423 327.294 524.726 319.746C524.854 316.611 510.211 296.788 502.307 294.233C499.204 293.232 520.081 275.208 520.081 275.208V275.21Z" fill="#AAD47F"/>
<path d="M449.168 257.839C449.168 257.839 463.821 257.423 480.731 260.536L482.498 256.085L484.436 251.209C484.436 251.209 467.46 243.904 457.256 233.728L449.168 257.839Z" fill="#FE5A3E"/>
<path d="M465.517 276.319C467.151 276.645 468.757 275.575 469.086 273.941L471.983 259.45C472.309 257.813 471.238 256.21 469.604 255.881C467.967 255.555 466.363 256.626 466.034 258.26L463.138 272.751C462.811 274.387 463.882 275.99 465.517 276.319Z" fill="#FE5A3E"/>
<path d="M449.168 257.839C449.168 257.839 463.821 257.423 480.731 260.536L482.498 256.085C466.608 252.84 449.168 257.839 449.168 257.839Z" fill="#FE5A3E"/>
<path d="M449.168 257.839C449.168 257.839 463.821 257.423 480.731 260.536L482.498 256.085C466.608 252.84 449.168 257.839 449.168 257.839Z" fill="black" fill-opacity="0.2"/>
<path d="M476.055 259.641L480.634 260.446C480.565 260.449 484.887 261.288 486.305 257.457C486.435 257.194 486.519 256.937 486.577 256.631C487.679 251.856 485.058 250.977 485.058 250.977L479.165 248.68L477.294 255.305V255.328L476.06 259.641H476.055Z" fill="#FE5A3E"/>
<path d="M476.055 259.641L480.634 260.446C480.565 260.449 484.887 261.288 486.305 257.457C483.714 255.573 477.291 255.303 477.291 255.303V255.326L476.057 259.638L476.055 259.641Z" fill="#FE5A3E"/>
<path d="M476.055 259.641L480.634 260.446C480.565 260.449 484.887 261.288 486.305 257.457C483.714 255.573 477.291 255.303 477.291 255.303V255.326L476.057 259.638L476.055 259.641Z" fill="black" fill-opacity="0.2"/>
<path d="M465.907 262.287C465.907 262.287 468.148 263.179 467.735 264.165C467.325 265.152 464.477 266.508 464.028 265.73C463.579 264.953 464.497 261.456 465.907 262.289V262.287Z" fill="#FFB27D"/>
<path d="M470.902 270.523C470.902 270.523 471.325 268.231 471.351 267.178C471.376 266.126 471.501 265.267 471.254 265.236C471.006 265.205 470.825 265.399 470.726 265.738C470.624 266.077 470.236 268.175 470.236 268.175L470.433 270.202L470.904 270.52L470.902 270.523Z" fill="#FFB27D"/>
<path d="M249.35 269.029L236.66 419.879C236.66 419.879 235.332 429.022 242.135 429.04C253.32 429.065 297.816 429.04 297.816 429.04C297.816 429.04 289.396 427.136 289.498 422.853C289.618 417.806 304.33 267.602 304.33 267.602L249.35 269.029Z" fill="#292929"/>
<path d="M302.003 426.363C299.802 426.371 256.727 426.442 245.832 426.302C241.085 426.244 240.251 422.081 240.213 419.389C240.192 418.1 240.358 417.144 240.358 417.144L240.687 413.223L241.528 403.231L242.27 394.401L243.226 383.056L244.03 373.479L253.048 266.289L308.028 264.861C308.028 264.861 301.832 327.722 297.449 373.477C296.959 378.575 296.495 383.464 296.064 388.026C295.924 389.484 295.792 390.907 295.659 392.293C295.254 396.622 294.881 400.598 294.558 404.108C294.387 405.959 294.229 407.677 294.088 409.252C293.53 415.423 293.201 419.364 293.196 420.113C293.196 420.549 293.232 420.957 293.303 421.334C294.206 426.142 301.177 426.358 302.003 426.358V426.363Z" fill="#4D4D4D"/>
<path d="M115.832 186.941L146.742 311.072L150.975 328.074L165.373 385.89H432.852L379.785 186.941H115.832Z" fill="#343434"/>
<path d="M115.832 186.941L111.546 188.368L159.677 390.208L165.373 385.89L115.832 186.941Z" fill="#4D4D4D"/>
<path d="M159.677 390.208H425.509L432.85 385.89H165.373L159.677 390.208Z" fill="#3A3A3A"/>
<path d="M253.027 429.096H310.585V426.361H253.027V429.096Z" fill="#343434"/>
<path d="M295.955 390.206L295.659 392.299L241.528 403.229L242.27 394.401L242.625 390.206H295.955Z" fill="#343434"/>
<path opacity="0.4" d="M302.003 426.363C299.803 426.371 256.727 426.442 245.833 426.302C241.085 426.244 240.251 422.081 240.213 419.389L294.086 409.257C293.528 415.428 293.199 419.369 293.194 420.118C293.194 420.554 293.229 420.962 293.301 421.339C294.203 426.147 301.174 426.363 302 426.363H302.003Z" fill="#343434"/>
<path d="M115.832 186.941H379.785L422.613 346.832H155.649L115.832 186.941Z" fill="#292929"/>
<path d="M410.162 339.904H163.02L154.19 304.733L150.773 291.124L149.379 285.574L140.302 249.43L139.833 247.546L135.034 228.441L132.887 219.892L131.056 212.599L126.763 195.506H370.343L375.058 212.599L377.067 219.892L379.425 228.441L394.956 284.759V284.761L396.272 289.533L396.883 291.748L407.605 330.631L410.162 339.904Z" fill="white"/>
<path d="M375.057 212.602H131.056L126.765 195.506H370.343L375.057 212.602Z" fill="#F4F4F4"/>
<path d="M136.841 203.232C136.548 202.051 137.264 201.096 138.445 201.096C139.625 201.096 140.821 202.051 141.114 203.232C141.408 204.412 140.691 205.368 139.511 205.368C138.33 205.368 137.134 204.412 136.841 203.232Z" fill="white"/>
<path d="M143.945 203.232C143.651 202.051 144.368 201.096 145.548 201.096C146.729 201.096 147.925 202.051 148.218 203.232C148.511 204.412 147.795 205.368 146.614 205.368C145.434 205.368 144.238 204.412 143.945 203.232Z" fill="white"/>
<path d="M151.592 203.232C151.299 202.051 152.015 201.096 153.196 201.096C154.376 201.096 155.572 202.051 155.865 203.232C156.159 204.412 155.442 205.368 154.262 205.368C153.081 205.368 151.885 204.412 151.592 203.232Z" fill="white"/>
<path d="M321.89 96.1177C331.88 84.3923 347.283 60.8395 357.653 48.7802C359.787 46.2975 358.012 42.4664 354.738 42.4664H335.868L353.667 2.22787C354.427 0.509842 352.086 -0.85897 350.959 0.644939L307.92 58.2319C306.666 59.9117 308.037 62.2772 310.121 62.0197L331.485 59.3892L318.774 94.2952C318.076 96.2171 320.564 97.6726 321.89 96.1152V96.1177Z" fill="#E66100"/>
<path d="M233.042 167.533C235.289 156.009 236.709 134.607 239.083 122.719C239.572 120.272 236.959 118.391 234.784 119.614L222.249 126.67L219.016 93.2882C218.878 91.8633 216.811 91.8302 216.627 93.25L209.587 147.592C209.383 149.178 211.178 150.235 212.466 149.285L225.671 139.55L230.288 167.487C230.543 169.024 232.741 169.06 233.04 167.53L233.042 167.533Z" fill="#E66100"/>
<path d="M420.957 343.307L206.211 361.394C189.906 362.768 178.106 346.149 184.781 331.214L275.76 127.659C282.662 112.217 303.879 110.43 313.267 124.501L437.033 309.968C446.115 323.578 437.263 341.935 420.957 343.309V343.307Z" fill="#E6EFFF"/>
<path d="M421.643 351.428L206.898 369.516C196.337 370.405 186.367 365.779 180.233 357.138C174.098 348.497 173.017 337.564 177.341 327.891L268.321 124.335C272.79 114.333 281.979 107.812 292.9 106.892C303.82 105.972 313.971 110.864 320.052 119.979L443.818 305.447C449.701 314.261 450.466 325.222 445.863 334.765C441.261 344.309 432.207 350.538 421.646 351.428H421.643ZM294.269 123.132C289.353 123.545 285.218 126.481 283.206 130.983L192.227 334.538C190.281 338.892 190.768 343.814 193.529 347.701C196.291 351.591 200.778 353.674 205.531 353.273L420.277 335.186C425.029 334.786 429.106 331.982 431.177 327.687C433.247 323.392 432.906 318.457 430.256 314.49L306.49 129.023C303.752 124.921 299.185 122.719 294.269 123.132Z" fill="#E66100"/>
<path d="M289.236 312.166C289.004 309.4 289.279 306.8 290.072 304.368C290.862 301.939 292.086 299.788 293.746 297.917C295.406 296.048 297.461 294.521 299.917 293.344C302.369 292.169 305.187 291.442 308.366 291.175C311.543 290.907 314.465 291.149 317.122 291.894C319.781 292.64 322.086 293.8 324.034 295.365C325.985 296.933 327.551 298.85 328.736 301.111C329.922 303.377 330.631 305.89 330.865 308.658C331.097 311.424 330.817 314.004 330.024 316.392C329.231 318.783 328.004 320.911 326.344 322.782C324.685 324.653 322.607 326.18 320.11 327.36C317.614 328.54 314.776 329.267 311.597 329.535C308.417 329.802 305.518 329.56 302.905 328.811C300.289 328.061 298.007 326.901 296.056 325.334C294.108 323.769 292.54 321.875 291.36 319.65C290.177 317.427 289.47 314.931 289.236 312.166ZM322.436 273.327L291.502 275.932L278.216 170.64L317.913 167.296L322.436 273.327Z" fill="#E66100"/>
<path d="M155.886 279.783C155.886 279.783 156.559 278.269 156.995 277.553C157.431 276.837 159.295 274.736 159.611 275.21C159.927 275.687 161.197 278.886 160.524 279.783C159.851 280.68 160.567 282.238 157.217 283.184L155.888 279.783H155.886Z" fill="#FFB27D"/>
<path d="M118.642 270.224C118.642 270.224 135.799 284.542 142.487 283.217C147.719 282.179 155.987 279.559 155.987 279.559C155.987 279.559 158.17 281.634 157.553 284.122C157.553 284.122 147.018 294.032 139.511 294.096C127.777 294.195 122.244 288.284 122.244 288.284L118.642 270.227V270.224Z" fill="#ED7D2B"/>
<path d="M88.5518 421.237C88.5518 421.237 89.049 429.269 90.6043 429.384C90.8108 429.399 98.488 429.399 98.488 429.399L108.289 429.343C108.289 429.343 108.225 426.983 105.36 426.483C102.496 425.984 97.7002 423.972 95.9638 420.187C94.1382 416.206 88.5518 421.237 88.5518 421.237Z" fill="#113C68"/>
<path d="M87.9886 421.796C87.9886 421.796 90.9667 422.792 93.2946 422.792C95.8902 422.792 98.2462 422.086 98.2462 422.086C98.2462 422.086 98.8071 416.665 101.892 404.717C103.511 398.455 105.821 390.402 109.108 380.397C118.198 352.746 120.962 336.57 121.214 335.038C121.227 334.956 121.232 334.918 121.232 334.918L121.201 334.905L93.2538 322.64C93.2538 322.64 96.7087 360.75 92.3002 375.378C91.6832 377.423 91.1554 379.806 90.7015 382.386C87.9172 398.274 87.9835 421.798 87.9835 421.798L87.9886 421.796Z" fill="#2A4E96"/>
<path d="M101.892 404.715C103.511 398.452 105.821 390.399 109.108 380.395C118.197 352.743 120.961 336.567 121.214 335.035C121.211 334.989 121.209 334.946 121.203 334.9L93.2559 322.634C93.2559 322.634 96.7108 360.744 92.3023 375.373C91.6853 377.417 101.889 404.715 101.889 404.715H101.892Z" fill="#233862"/>
<path d="M110.38 421.237C110.38 421.237 110.877 429.269 112.432 429.384C112.639 429.399 120.316 429.399 120.316 429.399L130.117 429.343C130.117 429.343 130.054 426.983 127.188 426.483C124.324 425.984 119.528 423.972 117.792 420.187C115.966 416.206 110.38 421.237 110.38 421.237Z" fill="#15447C"/>
<path d="M126.224 323.534C126.224 323.534 126.586 348.229 122.313 378.552C118.039 408.875 119.488 421.745 119.488 421.745C119.488 421.745 116.55 422.695 115.367 422.792C112.348 423.037 109.253 422.084 109.253 422.084C109.253 422.084 103.136 391.751 104.891 376.574C106.645 361.397 96.5146 324.495 96.5146 324.495L126.227 323.532L126.224 323.534Z" fill="#2A4E96"/>
<path d="M106.408 265.743L111.862 269.32L116.831 267.915C117.739 266.62 117.981 264.122 117.994 261.961C118.007 259.814 117.797 257.994 117.797 257.994L110.436 254.747L107.69 253.536C107.698 253.579 107.905 255.789 107.933 256.113C108.445 261.846 106.405 265.743 106.405 265.743H106.408Z" fill="#FFB27D"/>
<path d="M126.349 330.399C119.559 336.952 93.8627 335.851 92.2793 328.63C90.6985 321.408 94.0055 267.16 105.604 263.752C108.011 263.046 120.88 267.204 120.88 267.204C120.88 267.204 122.899 272.485 124.222 279.207C124.48 280.515 125.229 294.379 125.79 307.348C126.053 313.415 126.275 319.285 126.387 323.585C126.489 327.613 126.494 330.258 126.349 330.401V330.399Z" fill="#F99746"/>
<path d="M108.488 256.215C109.983 258.739 115.22 260.949 117.996 261.961C118.009 259.814 117.8 257.994 117.8 257.994L110.439 254.747C108.812 254.727 107.82 255.088 108.486 256.215H108.488Z" fill="#FCA56B"/>
<path d="M120.577 257.546C120.577 257.546 108.718 261.244 106.528 253.827C104.338 246.409 101.331 241.89 108.81 239.216C116.288 236.542 118.603 238.935 119.937 241.235C121.27 243.534 123.606 256.396 120.577 257.548V257.546Z" fill="#FFB27D"/>
<path d="M119.471 240.516C119.471 240.516 118.713 249.149 116.928 248.775C115.144 248.4 113.178 247.597 113.438 250.2C113.7 252.802 111.701 257.263 109.126 257.253C103.604 257.23 97.6041 243.062 99.116 240.376C103.479 232.624 125.776 231.059 119.471 240.516Z" fill="#292929"/>
<path d="M117.726 263.939C117.573 263.875 108.899 259.985 107.884 260.319C106.869 260.653 105.604 263.753 105.604 263.753L120.88 267.204C120.88 267.204 119.676 264.759 117.726 263.939Z" fill="#ED7D2B"/>
<path d="M171.734 305.954L123.106 351.726C122.152 352.623 120.951 352.909 120.433 352.361L118.791 350.617C118.276 350.069 118.633 348.886 119.587 347.989L168.215 302.217C169.169 301.32 170.37 301.034 170.888 301.582L172.53 303.326C173.045 303.874 172.688 305.056 171.734 305.954Z" fill="#1F4D84"/>
<path d="M144.444 331.64L123.106 351.726C122.152 352.624 120.951 352.909 120.433 352.361L118.791 350.617C118.276 350.069 118.633 348.887 119.587 347.989L140.926 327.903L144.444 331.638V331.64Z" fill="#739AF0"/>
<path d="M160.557 288.672C162.423 294.822 165.88 300.583 170.901 305.304C186.232 319.723 210.355 318.987 224.779 303.662C239.012 288.536 238.484 264.856 223.731 250.378C223.535 250.184 223.336 249.99 223.132 249.802C207.803 235.382 183.683 236.114 169.259 251.441C159.557 261.749 156.712 276.036 160.554 288.672H160.557ZM171.452 253.503C179.845 244.584 191.806 241.028 203.038 242.973C209.583 244.105 215.876 247.102 221.074 251.991C235.195 265.272 235.87 287.481 222.586 301.6C217.696 306.797 211.597 310.17 205.136 311.702C194.042 314.327 181.885 311.511 172.964 303.117C158.843 289.834 158.165 267.624 171.452 253.506V253.503Z" fill="#1F4D84"/>
<g opacity="0.5">
<path d="M222.586 301.6C217.696 306.797 211.594 310.17 205.136 311.702C194.042 314.325 181.887 311.508 172.963 303.114C158.843 289.834 158.164 267.622 171.451 253.503C179.845 244.584 191.806 241.028 203.037 242.973C209.582 244.105 215.878 247.102 221.074 251.991C235.194 265.272 235.873 287.484 222.586 301.6Z" fill="#B3CFF9"/>
</g>
<path d="M126.387 323.585C99.5923 304.498 101.821 279.026 101.821 279.026C111.614 284.547 121.331 296.757 125.791 307.348C126.053 313.415 126.275 319.285 126.387 323.585Z" fill="#ED7D2B"/>
<path d="M152.834 314.891C154.723 314.455 155.993 313.027 156.255 312.777C156.255 312.777 157.061 312.834 156.123 314.552C156.044 314.694 155.87 315.064 155.738 315.326C155.684 315.434 155.758 315.558 155.878 315.566C156.969 315.65 158.066 315.217 160.164 315.655C160.455 315.716 160.539 316.41 160.526 316.705C160.508 317.205 160.544 317.768 159.963 318.536C159.624 318.982 158.68 319.461 156.577 320.307C155.776 320.628 153.484 320.386 151.337 319.65L149.621 318.854L150.154 315.668L150.585 315.757C151.268 315.9 152.117 315.066 152.831 314.891H152.834Z" fill="#FFB27D"/>
<path d="M110.139 267.204C110.139 267.204 86.064 271.787 117.222 306.642C122.204 312.217 149.129 319.474 149.129 319.474C149.129 319.474 151.86 317.151 150.483 315.27C150.483 315.27 131.944 301.812 127.867 299.673C126.031 298.709 120.745 278.193 117.755 273.253C114.764 268.313 110.139 267.204 110.139 267.204Z" fill="#F99746"/>
<path d="M156.538 280.206C156.538 280.206 157.326 278.702 157.479 277.907C157.632 277.114 158.623 274.8 159.031 274.392C159.195 274.229 159.735 274.441 159.799 275.142C159.827 275.447 159.676 276.003 159.411 276.663C158.98 277.741 159.052 279.202 158.901 279.689C158.529 280.902 156.535 280.206 156.535 280.206H156.538Z" fill="#FFB27D"/>
<path d="M166.12 220.488C165.709 220.957 165.658 221.48 165.86 222.041C165.86 222.041 165.86 222.046 165.865 222.048C166.24 223.083 167.476 224.241 168.914 225.395C169.098 225.543 169.261 225.678 169.404 225.803C169.442 225.836 169.478 225.869 169.513 225.903C169.541 225.928 169.569 225.953 169.598 225.979C170.939 227.215 170.434 227.498 172.841 230.006C175.587 232.864 177.476 232.917 178.014 232.655C178.471 232.433 177.545 230.919 176.52 229.214C176.472 229.132 176.421 229.048 176.372 228.966C176.234 228.74 176.099 228.51 175.964 228.283C174.763 226.234 175.072 225.273 175.357 222.222C175.589 219.744 179.22 208.376 179.22 208.376L173.958 207.468C173.958 207.468 172.369 216.52 170.622 217.914C169.689 218.656 168.644 218.666 167.746 219.216C167.683 219.255 167.621 219.293 167.56 219.334C167.05 219.673 166.53 220.019 166.12 220.491V220.488Z" fill="#FFB27D"/>
<path d="M166.12 220.488C165.709 220.957 165.658 221.48 165.86 222.041C165.86 222.041 165.86 222.046 165.865 222.048C166.324 223.083 167.53 224.233 168.919 225.385C169.1 225.535 169.261 225.673 169.404 225.803C169.442 225.836 169.478 225.869 169.513 225.902C169.541 225.928 169.569 225.953 169.598 225.979C170.939 227.215 170.434 227.498 172.841 230.006C175.587 232.864 177.476 232.917 178.014 232.655C178.471 232.433 177.545 230.919 176.52 229.214C175.985 229.017 173.501 228.008 171.625 225.604C170.031 223.57 168.95 220.98 167.866 219.387C167.746 219.364 167.675 219.352 167.558 219.329C167.048 219.668 166.528 220.014 166.117 220.486L166.12 220.488Z" fill="#233862"/>
<path d="M208.563 217.216C208.886 218.839 211.204 218.569 213.789 217.939C216.377 217.307 215.763 218.059 219.445 217.654C223.127 217.249 224.243 215.875 224.356 215.329C224.458 214.842 222.637 214.672 220.686 214.447C220.442 214.419 220.194 214.389 219.947 214.358C217.744 214.08 216.13 212.658 214.129 211.49C212.234 210.384 209.406 205.878 209.406 205.878L204.355 206.275C204.355 206.275 207.005 210.3 208.03 212.049C208.631 213.078 208.601 214.44 208.524 215.49C208.486 216.061 208.448 216.645 208.563 217.218V217.216Z" fill="#FFB27D"/>
<path d="M213.789 217.939C216.377 217.307 215.763 218.059 219.444 217.654C223.126 217.249 224.243 215.875 224.355 215.329C224.457 214.842 222.637 214.672 220.686 214.447L220.668 214.486C220.668 214.486 218.46 216.051 215.396 216.122C212.897 216.183 210.253 215.464 208.527 215.492C208.488 216.063 208.45 216.647 208.565 217.221C208.889 218.844 211.206 218.574 213.792 217.944L213.789 217.939Z" fill="#233862"/>
<path d="M189.221 184.93L184.496 197.626L178.328 214.205C178.328 214.205 176.656 214.366 175.054 213.904C173.581 213.479 171.888 212.362 171.888 212.362C171.888 212.362 173.606 194.557 176.801 184.338C177.619 181.716 178.537 179.595 179.55 178.399C184.501 172.554 189.221 184.925 189.221 184.925V184.93Z" fill="#233862"/>
<path d="M184.427 164.76C181.74 163.893 174.728 164.742 167.122 166.116C165.021 166.496 162.902 165.535 161.796 163.709L142.657 162.208C142.657 162.208 136.337 176.207 139.792 185.131C140.299 186.444 141.413 187.262 143.137 187.29C143.137 187.29 154.702 187.311 158.402 187.311C167.92 187.313 178.547 180.778 179.922 180.502C182.171 180.054 183.071 184.553 185.319 189.276C187.568 193.999 206.462 210.201 206.462 210.201C206.462 210.201 209.366 210.231 210.567 209.78C211.857 209.296 212.329 208.669 212.329 208.669C212.329 208.669 191.403 167.01 184.427 164.757V164.76Z" fill="#2A4E96"/>
<path d="M159.784 107.522C158.363 106.676 156.976 106.546 156.127 106.569C155.536 106.586 154.947 106.546 154.363 106.462C147.058 105.388 142.657 115.995 142.397 119.199C141.923 125.082 138.807 125.979 134.424 129.663C125.633 137.05 128.208 145.635 133.011 148.828C135.895 150.743 140.977 148.828 140.977 148.828C141.048 148.879 154.878 141.108 161.693 137.358C171.91 135.91 163.886 109.964 159.784 107.519V107.522Z" fill="#292929"/>
<path d="M155.982 134.164C156.013 134.184 152.629 135.337 150.368 134.335C148.239 133.394 146.63 129.892 146.661 129.892C147.629 129.849 148.693 129.002 149.511 123.451L149.924 123.598L156.854 126.094C156.854 126.094 156.352 128.317 156.026 130.435C155.75 132.211 155.605 133.914 155.982 134.167V134.164Z" fill="#FFB27D"/>
<path d="M156.854 126.091C156.854 126.091 156.576 127.292 156.173 129.532C152.193 128.814 150.485 125.747 149.924 123.596L156.854 126.091Z" fill="#ED975D"/>
<path d="M157.886 128.299C157.886 128.299 148.404 127.022 149.289 121.131C150.173 115.24 149.546 111.106 155.64 111.672C161.731 112.238 162.568 114.662 162.751 116.701C162.935 118.74 160.378 128.48 157.889 128.299H157.886Z" fill="#FFB27D"/>
<path d="M162.405 113.471C162.405 113.471 156.331 118.699 152.203 119.12C148.073 119.54 146.51 118.215 146.51 118.215C146.51 118.215 148.945 116.196 150.411 112.936C150.842 111.975 151.755 111.315 152.805 111.226C155.753 110.973 161.344 110.859 162.405 113.471Z" fill="#292929"/>
<path d="M158.611 113.002C158.611 113.002 160.641 114.965 161.281 116.423C161.898 117.827 162.082 121.19 161.589 122.523C161.589 122.523 164.756 116.372 162.966 113.385C161.067 110.214 158.611 113.002 158.611 113.002Z" fill="#292929"/>
<path d="M163.963 148.132C163.67 167.324 163.879 163.314 161.778 165.134C161.271 165.573 159.85 165.833 157.976 165.958C152.089 166.345 141.742 165.374 141.35 164.285C139.993 160.521 140.952 159.353 139.822 153.592C139.705 152.981 139.56 152.315 139.386 151.594C138.443 147.638 137.525 146.29 140.878 139.935C143.92 134.177 147.076 129.504 147.362 129.673C155.378 134.434 156.026 130.435 156.026 130.435C156.026 130.435 164.108 138.773 163.963 148.135V148.132Z" fill="#F99746"/>
<path d="M184.496 197.626L178.328 214.205C178.328 214.205 176.656 214.366 175.054 213.904C173.581 213.479 171.888 212.362 171.888 212.362C171.888 212.362 173.606 194.557 176.801 184.339L184.496 197.624V197.626Z" fill="#2A4E96"/>
<path d="M156.025 130.432C156.025 130.432 164.274 131.834 165.243 135.385C166.209 138.936 169.391 160.49 169.391 160.49C169.391 160.49 167.063 162.761 165.128 160.824C163.19 158.887 159.037 140.656 159.037 140.656L156.025 130.435V130.432Z" fill="#F99746"/>
<path d="M157.978 165.958C152.091 166.345 141.744 165.374 141.352 164.285C139.995 160.521 140.954 159.353 139.824 153.592L142.667 145.601C142.667 145.601 142.195 154.502 144.819 156.842C147.44 159.185 155.566 161.364 156.844 163.322C157.458 164.26 157.864 165.203 157.981 165.958H157.978Z" fill="#ED7D2B"/>
<path d="M151.235 162.211C151.235 162.211 157.043 160.921 157.979 161.436C158.915 161.951 161.204 163.829 161.493 164.482C161.778 165.134 159.407 163.985 158.634 163.778C158.135 163.643 156.819 164.099 156.166 164.319C153.425 165.231 151.745 164.76 151.745 164.76L151.232 162.211H151.235Z" fill="#FFB27D"/>
<path d="M147.356 129.668C147.356 129.668 139.559 130.144 136.857 133.909C133.055 139.206 125.508 161.785 129.827 164.798C134.692 168.191 151.969 165.693 151.969 165.693C151.969 165.693 152.545 163.006 151.745 161.706C150.944 160.406 137.945 158.303 137.346 157.701C136.747 157.102 144.85 146.007 144.85 144.207C144.85 142.407 147.351 129.668 147.351 129.668H147.356Z" fill="#F99746"/>
<path d="M158.262 163.052C158.262 163.052 159.478 164.622 159.876 164.808C160.273 164.997 160.534 164.948 160.534 164.948L159.715 163.472L158.262 163.049V163.052Z" fill="#FFB27D"/>
<path d="M157.981 161.436L161.518 163.154C161.518 163.154 161.367 163.401 160.931 163.381C160.495 163.36 159.396 162.958 159.396 162.958L157.979 161.436H157.981Z" fill="#FFB27D"/>
<path d="M188.19 165.484L151.234 165.471V166.287L187.861 166.299L188.19 165.484Z" fill="#233862"/>
<path d="M159.876 166.289L187.862 166.299L196.286 145.374L168.344 145.364L159.876 166.289Z" fill="#233862"/>
<path d="M180.801 155.833C181.013 155.096 180.587 154.5 179.85 154.5C179.113 154.5 178.346 155.096 178.134 155.83C177.923 156.567 178.349 157.164 179.085 157.164C179.822 157.164 180.59 156.567 180.801 155.833Z" fill="white"/>
<path d="M370.197 245.211C366.426 243.96 363.818 245.54 363.818 245.54C352.964 245.986 352.561 257.11 353.833 261.249C355.623 267.064 349.29 271.647 356.314 274C364.463 276.73 371.301 273.49 370.835 274.897C396.605 276.926 378.772 248.058 370.197 245.211Z" fill="#292929"/>
<path d="M358.938 299.311C358.938 299.311 357.905 301.353 356.036 303.698C353.782 306.522 341.947 299.821 342.966 299.311C343.986 298.801 349.932 281.672 351.35 279.521C352.768 277.369 357.592 276.25 357.592 276.25L358.938 299.311Z" fill="#F99746"/>
<path d="M398.877 414.834C398.877 414.834 402.143 417.814 401.505 419.932C400.868 422.051 397.921 423.463 397.523 426.05C397.125 428.637 395.531 430.049 394.096 430.049H387.258C387.258 430.049 386.202 428.227 388.752 427.679C391.301 427.131 392.263 424.09 392.102 421.266C391.941 418.441 392.342 414.679 392.342 414.679L397.76 413.425L398.877 414.837V414.834Z" fill="#1F447F"/>
<path d="M371.231 416.099C371.231 416.099 372.406 428.724 370.973 429.43L352.62 429.392C352.62 429.392 352.62 427.273 355.568 426.804C358.515 426.333 363.694 424.607 364.571 420.766C365.448 416.924 371.231 416.099 371.231 416.099Z" fill="#1C3154"/>
<path d="M385.348 290.795C385.348 290.795 385.62 294.649 385.348 299.275C385.167 302.342 382.064 306.448 381.622 307.465C380.518 310.014 379.272 310.427 379.272 310.427L369.636 312.788L366.248 313.616L355.562 310.425C355.562 310.425 350.694 296.846 352.65 289.202C354.603 281.557 357.589 276.248 357.589 276.248C357.589 276.248 364.85 274.616 377.66 275.524L385.345 290.792L385.348 290.795Z" fill="#F99746"/>
<path d="M386.266 299.382C386.085 302.449 382.064 306.448 381.623 307.465C380.519 310.014 379.272 310.427 379.272 310.427L369.636 312.788L367.897 307.802C367.897 307.802 381.977 304.103 379.713 291.075L386.266 299.38V299.382Z" fill="#ED7D2B"/>
<path d="M356.243 312.49C356.243 312.49 350.952 328.953 350.611 334.561C350.271 340.167 360.725 414.197 361.146 416.779C361.541 419.213 364.568 420.766 364.568 420.766C364.568 420.766 365.96 421.587 367.944 421.026C370.697 420.248 371.569 419.318 371.569 419.318C371.569 419.318 375.687 366.521 373.14 347.661C370.59 328.801 370.562 312.49 370.562 312.49H356.246H356.243Z" fill="#233862"/>
<path d="M378.662 311.997C378.662 311.997 386.735 322.823 387.487 330.144C388.239 337.462 388.668 363.169 390.271 370.303C391.875 377.438 397.765 391.169 397.765 413.422C397.765 413.422 397.153 414.697 395.264 415.377C394.659 415.594 393.849 415.805 393.063 415.986C391.505 416.343 389.904 415.581 389.193 414.151C385.21 406.137 372.528 380.285 371.878 374.919C371.419 371.121 367.413 345.988 358.675 331.242C356.577 327.702 359.963 313.621 359.963 313.621L378.665 312L378.662 311.997Z" fill="#2A4E96"/>
<path d="M355.399 309.948C355.399 309.948 357.523 311.628 361.743 311.712C366.784 311.814 379.272 310.427 379.272 310.427C379.272 310.427 379.828 311.977 379.805 313.614C379.805 313.614 364.55 317.46 355.713 314.174C355.713 314.174 354.573 312.031 355.399 309.946V309.948Z" fill="#233862"/>
<path d="M360.534 316.055C359.267 316.055 358.234 314.888 358.234 313.453C358.234 312.018 359.267 310.85 360.534 310.85C361.801 310.85 362.834 312.018 362.834 313.453C362.834 314.888 361.801 316.055 360.534 316.055ZM360.534 311.612C359.685 311.612 358.997 312.438 358.997 313.453C358.997 314.467 359.688 315.293 360.534 315.293C361.381 315.293 362.072 314.467 362.072 313.453C362.072 312.438 361.383 311.612 360.534 311.612Z" fill="white"/>
<path d="M371.554 320.789L348.627 321.003L337.345 294.496L360.272 294.282L371.554 320.789Z" fill="#B5453C"/>
<path d="M368.556 308.811L366.876 306.746C366.876 306.746 365.738 305.732 364.912 305.561C364.086 305.388 362.345 304.384 362.176 304.667C362.008 304.949 363.515 306.968 363.515 306.968L363.592 306.978C361.86 308.281 357.49 307.131 356.952 307.662C356.299 308.304 357.852 309.696 358.686 310.478C359.52 311.258 361.904 312.561 363.762 311.985C365.121 311.562 367.258 311.131 367.258 311.131L368.556 308.811Z" fill="#FFB27D"/>
<path d="M339.068 299.161C339.068 299.161 340.509 297.524 341.427 298.309C342.345 299.094 341.187 302.959 340.313 302.566C339.438 302.174 338.566 299.642 339.068 299.161Z" fill="#FFB27D"/>
<path d="M377.664 275.529C377.664 275.529 384.227 276.253 388.936 284.807C392.651 291.554 399 303.991 396.603 307.504C395.552 309.046 385.468 314.534 366.021 311.398C366.021 311.398 366.327 308.944 367.896 307.804C367.896 307.804 384.262 302.551 384.234 301.506C384.181 299.53 382.024 297.822 372.88 288.679C370.394 286.194 377.661 275.526 377.661 275.526L377.664 275.529Z" fill="#F99746"/>
<path d="M372.613 275.876C372.837 275.572 372.549 274.609 372.187 272.814C371.86 271.188 371.307 268.672 371.317 265.843L370.833 265.924L362.699 267.293C362.699 267.293 362.885 269.467 362.89 271.517C362.89 271.535 362.89 271.55 362.89 271.568C362.901 273.347 362.411 276.036 363.01 276.385C366.093 278.19 371.743 277.041 372.613 275.876Z" fill="#FFB27D"/>
<path d="M362.699 267.291C362.699 267.291 362.86 270.357 362.868 272.404C367.419 272.294 369.849 267.877 370.835 265.922L362.702 267.291H362.699Z" fill="#E8945B"/>
<path d="M362.209 270.948C362.209 270.948 372.872 269.429 371.824 262.804C370.776 256.179 371.447 251.522 364.593 252.213C357.739 252.901 356.821 255.639 356.633 257.936C356.444 260.232 359.407 271.173 362.209 270.948Z" fill="#FFB27D"/>
<path d="M359.723 252.822C359.723 252.822 363.874 260.128 368.525 260.566C373.178 261.002 374.925 259.498 374.925 259.498C374.925 259.498 371.062 257.321 369.593 252.682C369.593 252.682 361.33 248.775 359.721 252.822H359.723Z" fill="#292929"/>
<path d="M360.547 253.337C360.547 253.337 358.517 254.49 357.877 256.205C357.252 257.882 356.837 260.041 357.408 262.514C357.408 262.514 354.371 257.581 356.362 254.201C358.471 250.618 360.547 253.337 360.547 253.337Z" fill="#292929"/>
<path d="M4.37321 429.096H595.487C595.895 429.096 596.226 429.427 596.226 429.835V430.261C596.226 430.669 595.895 431 595.487 431H4.37321C3.96525 431 3.63379 430.669 3.63379 430.261V429.835C3.63379 429.427 3.96525 429.096 4.37321 429.096Z" fill="#233862"/>
</g>
<defs>
<clipPath id="clip0_14415_77326">
<rect width="599" height="431" fill="white"/>
</clipPath>
</defs>
</svg>
