<svg width="14" height="18" viewBox="0 0 14 18" fill="none" xmlns="http://www.w3.org/2000/svg">
<path d="M8.4123 17.75L7.7498 16.7875C8.11105 16.3149 8.27625 15.7212 8.21106 15.1299C8.14588 14.5386 7.85533 13.9951 7.3998 13.6125C6.6341 12.9726 6.10941 12.0907 5.9123 11.1125C3.9623 13.9 4.9748 15.4375 5.9123 16.8L5.2248 17.75C3.9193 17.504 2.74695 16.7938 1.92437 15.7507C1.10178 14.7075 0.684564 13.4019 0.749805 12.075C0.749805 12.075 0.487305 9.375 3.5998 6.7375C3.5998 6.7375 7.1248 3.475 5.8998 1.0625L6.7873 0.25C8.14129 1.19941 9.17713 2.53545 9.75924 4.08329C10.3414 5.63113 10.4426 7.31865 10.0498 8.925C10.3462 8.63578 10.5839 8.29197 10.7498 7.9125L11.8373 7.825C11.9248 7.975 14.1373 11.4875 12.9498 14.45C12.5268 15.3335 11.8906 16.0978 11.0984 16.6739C10.3063 17.25 9.38312 17.6198 8.4123 17.75ZM5.9123 9.0625L6.9998 9.55C6.94183 10.1202 7.01534 10.6962 7.2147 11.2336C7.41406 11.771 7.73395 12.2555 8.1498 12.65C8.6856 13.0403 9.0914 13.583 9.31436 14.2073C9.53732 14.8316 9.5671 15.5086 9.39981 16.15C9.91645 15.969 10.3911 15.6852 10.795 15.3156C11.1989 14.9461 11.5237 14.4986 11.7498 14C12.1742 12.4783 11.9904 10.8512 11.2373 9.4625C11.0006 9.84649 10.6567 10.1529 10.248 10.3439C9.83935 10.5349 9.38375 10.6022 8.9373 10.5375L8.4998 9.6875C9.04734 8.50345 9.23383 7.1843 9.03597 5.89487C8.83811 4.60544 8.26467 3.4029 7.38731 2.4375C7.21231 5.0875 4.4998 7.5375 4.4123 7.675C1.8248 9.875 1.9998 11.9125 1.9998 12C1.95099 12.772 2.10953 13.5431 2.45899 14.2332C2.80845 14.9233 3.33612 15.5074 3.9873 15.925C3.2498 14.175 3.2498 12.075 5.9498 9.0625H5.9123Z" fill="#E66100"/>
</svg>
