<svg width="95" height="109" viewBox="0 0 95 109" fill="none" xmlns="http://www.w3.org/2000/svg">
<mask id="mask0_10432_73749" style="mask-type:luminance" maskUnits="userSpaceOnUse" x="0" y="0" width="95" height="109">
<path d="M83.1877 0H11.4158L0 20.0853V32.5507C0 37.5056 2.30511 41.9212 5.9039 44.8051V90.9934C5.9039 100.403 13.5562 108.039 23.004 108.039H71.5995C81.0394 108.039 88.6996 100.411 88.6996 90.9934V44.8051C92.2984 41.9212 94.6035 37.5134 94.6035 32.5507V20.0853L83.1877 0Z" fill="white"/>
</mask>
<g mask="url(#mask0_10432_73749)">
<path d="M17.124 19.632H77.4959C83.6821 19.632 88.7078 24.6416 88.7078 30.8078V90.9934C88.7078 100.395 81.0476 108.039 71.6077 108.039H23.0122C13.5801 108.039 5.91211 100.403 5.91211 90.9934V30.8078C5.91211 24.6416 10.9379 19.632 17.124 19.632Z" fill="url(#paint0_linear_10432_73749)"/>
<path d="M17.124 19.632H77.4959C83.6821 19.632 88.7078 24.6416 88.7078 30.8078V90.9934C88.7078 100.395 81.0476 108.039 71.6077 108.039H23.0122C13.5801 108.039 5.91211 100.403 5.91211 90.9934V30.8078C5.91211 24.6416 10.9379 19.632 17.124 19.632Z" fill="url(#paint1_linear_10432_73749)"/>
<path style="mix-blend-mode:multiply" d="M5.91211 67.4068V30.8078C5.91211 24.6337 10.93 19.632 17.124 19.632H77.4959C83.6899 19.632 88.7078 24.6337 88.7078 30.8078V67.4068H5.91211Z" fill="url(#paint2_linear_10432_73749)"/>
<path d="M31.5345 20.0853H0.0078125L11.4157 0H35.345L31.5345 20.0853Z" fill="#FE5A3E"/>
<path d="M63.0697 20.0853H31.5352L35.3456 0H59.267L63.0697 20.0853Z" fill="url(#paint3_linear_10432_73749)"/>
<path d="M94.6028 20.0853H63.0683L59.2656 0H83.187L94.6028 20.0853Z" fill="#FE5A3E"/>
<path d="M0.0078125 20.0853H31.5423V32.5507C31.5423 41.2257 24.478 48.2673 15.7751 48.2673C7.0721 48.2673 0.0078125 41.2257 0.0078125 32.5507V20.0853Z" fill="#FE5A3E"/>
<path d="M47.3024 48.2595C38.5916 48.2595 31.5352 41.2257 31.5352 32.5429V20.0775H63.0697V32.5429C63.0697 41.2257 56.0132 48.2595 47.3024 48.2595Z" fill="url(#paint4_linear_10432_73749)"/>
<path d="M78.8356 48.2595C70.1248 48.2595 63.0684 41.2257 63.0684 32.5429V20.0775H94.6029V32.5429C94.6029 41.2257 87.5464 48.2595 78.8356 48.2595Z" fill="#FE5A3E"/>
<path d="M71.1911 55.3635H23.4111C20.2414 55.3635 17.6719 57.9248 17.6719 61.0843V78.278C17.6719 81.4375 20.2414 83.9988 23.4111 83.9988H71.1911C74.3608 83.9988 76.9304 81.4375 76.9304 78.278V61.0843C76.9304 57.9248 74.3608 55.3635 71.1911 55.3635Z" fill="url(#paint5_linear_10432_73749)"/>
</g>
<defs>
<linearGradient id="paint0_linear_10432_73749" x1="19.9466" y1="108.914" x2="73.6135" y2="15.6684" gradientUnits="userSpaceOnUse">
<stop stop-color="#F0F0F0"/>
<stop offset="0.79" stop-color="#EAEAEA"/>
</linearGradient>
<linearGradient id="paint1_linear_10432_73749" x1="5.91211" y1="19.632" x2="91.6253" y2="101.974" gradientUnits="userSpaceOnUse">
<stop stop-color="#A9CF4B"/>
<stop offset="1" stop-color="#AAD47F"/>
</linearGradient>
<linearGradient id="paint2_linear_10432_73749" x1="47.4354" y1="43.7265" x2="46.9602" y2="63.1163" gradientUnits="userSpaceOnUse">
<stop stop-color="#A6A6A6"/>
<stop offset="0.17" stop-color="#B2B2B2" stop-opacity="0.86"/>
<stop offset="0.54" stop-color="#D2D2D2" stop-opacity="0.5"/>
<stop offset="1" stop-color="white" stop-opacity="0"/>
</linearGradient>
<linearGradient id="paint3_linear_10432_73749" x1="31.5352" y1="10.0426" x2="63.0697" y2="10.0426" gradientUnits="userSpaceOnUse">
<stop stop-color="#F0F0F0"/>
<stop offset="0.79" stop-color="#EAEAEA"/>
</linearGradient>
<linearGradient id="paint4_linear_10432_73749" x1="31.5352" y1="34.1763" x2="63.0697" y2="34.1763" gradientUnits="userSpaceOnUse">
<stop stop-color="#D7D7D7"/>
<stop offset="1" stop-color="#E2E2E2"/>
</linearGradient>
<linearGradient id="paint5_linear_10432_73749" x1="34.725" y1="91.3998" x2="59.756" y2="47.9004" gradientUnits="userSpaceOnUse">
<stop stop-color="#F0F0F0"/>
<stop offset="0.79" stop-color="#EAEAEA"/>
</linearGradient>
</defs>
</svg>
