<svg width="25" height="24" viewBox="0 0 25 24" fill="none" xmlns="http://www.w3.org/2000/svg">
<path d="M18.5077 1.9502H18.1484V1.5002C18.1484 1.12745 17.8462 0.825195 17.4734 0.825195C17.1007 0.825195 16.7984 1.12745 16.7984 1.5002V1.9502H8.20195V1.5002C8.20195 1.12745 7.8997 0.825195 7.52695 0.825195C7.1542 0.825195 6.85195 1.12745 6.85195 1.5002V1.9502H6.4927C3.9532 1.9502 1.8877 4.0157 1.8877 6.55519V8.81269V18.5702C1.8877 21.1097 3.9532 23.1752 6.4927 23.1752H18.5077C21.0472 23.1752 23.1134 21.1097 23.1134 18.5702V8.81269V6.55519C23.1127 4.0157 21.0472 1.9502 18.5077 1.9502ZM13.1752 19.1544C13.1752 19.5272 12.8729 19.8294 12.5002 19.8294C12.1274 19.8294 11.8252 19.5272 11.8252 19.1544V18.6174C11.8252 18.2447 12.1274 17.9424 12.5002 17.9424C12.8729 17.9424 13.1752 18.2447 13.1752 18.6174V19.1544ZM13.1752 16.0547C13.1752 16.4274 12.8729 16.7297 12.5002 16.7297C12.1274 16.7297 11.8252 16.4274 11.8252 16.0547V12.1562C11.8252 11.7834 12.1274 11.4812 12.5002 11.4812C12.8729 11.4812 13.1752 11.7834 13.1752 12.1562V16.0547ZM21.7627 8.13769H3.2377V6.55519C3.2377 4.76044 4.69795 3.3002 6.4927 3.3002H6.85195V3.7487C6.85195 4.12145 7.1542 4.42369 7.52695 4.42369C7.8997 4.42369 8.20195 4.12145 8.20195 3.7487V3.3002H16.7977V3.7487C16.7977 4.12145 17.0999 4.42369 17.4727 4.42369C17.8454 4.42369 18.1477 4.12145 18.1477 3.7487V3.3002H18.5069C20.3024 3.3002 21.7619 4.76044 21.7619 6.55519L21.7627 8.13769Z" fill="#DDFC74"/>
</svg>
