<svg width="24" height="24" viewBox="0 0 24 24" fill="none" xmlns="http://www.w3.org/2000/svg">
<path d="M18.0077 1.9502H17.6484V1.5002C17.6484 1.12745 17.3462 0.825195 16.9734 0.825195C16.6007 0.825195 16.2984 1.12745 16.2984 1.5002V1.9502H7.70195V1.5002C7.70195 1.12745 7.3997 0.825195 7.02695 0.825195C6.6542 0.825195 6.35195 1.12745 6.35195 1.5002V1.9502H5.9927C3.4532 1.9502 1.3877 4.0157 1.3877 6.55519V8.81269V18.5702C1.3877 21.1097 3.4532 23.1752 5.9927 23.1752H18.0077C20.5472 23.1752 22.6134 21.1097 22.6134 18.5702V8.81269V6.55519C22.6127 4.0157 20.5472 1.9502 18.0077 1.9502ZM12.6752 19.1544C12.6752 19.5272 12.3729 19.8294 12.0002 19.8294C11.6274 19.8294 11.3252 19.5272 11.3252 19.1544V18.6174C11.3252 18.2447 11.6274 17.9424 12.0002 17.9424C12.3729 17.9424 12.6752 18.2447 12.6752 18.6174V19.1544ZM12.6752 16.0547C12.6752 16.4274 12.3729 16.7297 12.0002 16.7297C11.6274 16.7297 11.3252 16.4274 11.3252 16.0547V12.1562C11.3252 11.7834 11.6274 11.4812 12.0002 11.4812C12.3729 11.4812 12.6752 11.7834 12.6752 12.1562V16.0547ZM21.2627 8.13769H2.7377V6.55519C2.7377 4.76044 4.19795 3.3002 5.9927 3.3002H6.35195V3.7487C6.35195 4.12145 6.6542 4.42369 7.02695 4.42369C7.3997 4.42369 7.70195 4.12145 7.70195 3.7487V3.3002H16.2977V3.7487C16.2977 4.12145 16.5999 4.42369 16.9727 4.42369C17.3454 4.42369 17.6477 4.12145 17.6477 3.7487V3.3002H18.0069C19.8024 3.3002 21.2619 4.76044 21.2619 6.55519L21.2627 8.13769Z" fill="#E66100"/>
</svg>
