<svg width="2157" height="1019" viewBox="0 0 2157 1019" fill="none" xmlns="http://www.w3.org/2000/svg">
<path d="M1901.96 846.957H1959.82V828.564H1901.96V846.957Z" fill="#F1F1F1"/>
<path d="M2065.21 535.402C2074.85 535.238 2099.16 534.827 2108.47 534.729L2123.07 534.663H2123.81V535.419L2123.88 553.812V554.634H2123.05L2094.12 554.519C2086.91 554.453 2072.4 554.306 2065.19 554.207H2064.8V553.812L2065.19 535.419L2065.21 535.402ZM2065.21 535.402L2065.6 553.796L2065.21 553.401C2072.43 553.303 2086.91 553.138 2094.14 553.089L2123.07 552.974L2122.25 553.796L2122.31 535.402L2123.07 536.159L2108.74 536.093C2099.57 535.994 2074.7 535.567 2065.21 535.419V535.402Z" fill="#F1F1F1"/>
<path d="M2097.48 512.209C2107.12 512.045 2131.43 511.634 2140.74 511.535L2155.34 511.469H2156.08V512.226L2156.15 530.619V531.441H2155.33L2126.39 531.326C2119.19 531.26 2104.67 531.112 2097.46 531.013H2097.07V530.619L2097.46 512.226L2097.48 512.209ZM2097.48 512.209L2097.88 530.603L2097.48 530.208L2111.95 530.027C2121.13 529.896 2145.85 529.814 2155.34 529.781L2154.52 530.603L2154.59 512.209L2155.34 512.965L2141.01 512.899C2131.84 512.801 2106.98 512.373 2097.48 512.226V512.209Z" fill="#F1F1F1"/>
<path d="M1677.39 675.844H1735.26V657.45H1677.39V675.844Z" fill="#F1F1F1"/>
<path d="M1709.68 1018.01H1767.54V999.612H1709.68V1018.01Z" fill="#F1F1F1"/>
<path d="M1677.41 976.419C1687.06 976.254 1711.36 975.843 1720.68 975.745L1735.27 975.679H1736.01V976.435L1736.08 994.828V995.65H1735.26L1706.33 995.535C1699.12 995.47 1684.6 995.322 1677.4 995.223H1677V994.828L1677.4 976.435L1677.41 976.419ZM1677.41 976.419L1677.81 994.812L1677.41 994.418C1684.64 994.319 1699.12 994.155 1706.34 994.105L1735.27 993.99L1734.45 994.812L1734.52 976.419L1735.27 977.175L1720.94 977.109C1711.77 977.01 1686.91 976.583 1677.41 976.435V976.419Z" fill="#F1F1F1"/>
<path d="M286.043 846.957H228.181V828.564H286.043V846.957Z" fill="#F1F1F1"/>
<path d="M122.792 535.402C113.149 535.238 88.842 534.827 79.5275 534.729L64.9304 534.663H64.1898V535.419L64.124 553.812V554.634H64.9469L93.8778 554.519C101.086 554.453 115.601 554.306 122.809 554.207H123.204V553.812L122.809 535.419L122.792 535.402ZM122.792 535.402L122.397 553.796L122.792 553.401C115.568 553.303 101.086 553.138 93.8613 553.089L64.9304 552.974L65.7532 553.796L65.6874 535.402L64.9304 536.159L79.2642 536.093C88.4306 535.994 113.297 535.567 122.792 535.419V535.402Z" fill="#F1F1F1"/>
<path d="M90.5198 512.209C80.8762 512.045 56.5696 511.634 47.2551 511.535L32.658 511.469H31.9174V512.226L31.8516 530.619V531.441H32.6744L61.6053 531.326C68.8134 531.26 83.3282 531.112 90.5363 531.013H90.9312V530.619L90.5363 512.226L90.5198 512.209ZM90.5198 512.209L90.1249 530.603L90.5198 530.208L76.0544 530.027C66.8715 529.896 42.1535 529.814 32.658 529.781L33.4808 530.603L33.4149 512.209L32.658 512.965L46.9918 512.899C56.1582 512.801 81.0243 512.373 90.5198 512.226V512.209Z" fill="#F1F1F1"/>
<path d="M58.3804 553.796H0.518555V535.402H58.3804V553.796Z" fill="#F1F1F1"/>
<path d="M510.605 675.844H452.743V657.45H510.605V675.844Z" fill="#F1F1F1"/>
<path d="M478.317 1018.01H420.455V999.612H478.317V1018.01Z" fill="#F1F1F1"/>
<path d="M510.588 976.419C500.945 976.254 476.638 975.843 467.323 975.745L452.726 975.679H451.986V976.435L451.92 994.828V995.65H452.743L481.674 995.535C488.882 995.47 503.397 995.322 510.605 995.223H511V994.828L510.605 976.435L510.588 976.419ZM510.588 976.419L510.193 994.812L510.588 994.418C503.364 994.319 488.882 994.155 481.657 994.105L452.726 993.99L453.549 994.812L453.483 976.419L452.726 977.175L467.06 977.109C476.227 977.01 501.093 976.583 510.588 976.435V976.419Z" fill="#F1F1F1"/>
<path d="M259.043 190.488H201.181V172.094H259.043V190.488Z" fill="#F1F1F1"/>
<path d="M483.605 19.374H425.743V0.98056H483.605V19.374Z" fill="#F1F1F1"/>
<path d="M451.317 361.536H393.455V343.142H451.317V361.536Z" fill="#F1F1F1"/>
<path d="M483.588 319.949C473.945 319.784 449.638 319.374 440.323 319.275L425.726 319.209H424.986V319.965L424.92 338.359V339.181H425.743L454.674 339.066C461.882 339 476.397 338.852 483.605 338.753H484V338.359L483.605 319.965L483.588 319.949ZM483.588 319.949L483.193 338.342L483.588 337.948C476.364 337.849 461.882 337.685 454.657 337.636L425.726 337.52L426.549 338.342L426.483 319.949L425.726 320.705L440.06 320.639C449.227 320.541 474.093 320.113 483.588 319.965V319.949Z" fill="#F1F1F1"/>
</svg>
