<svg width="611" height="613" viewBox="0 0 611 613" fill="none" xmlns="http://www.w3.org/2000/svg">
<g clip-path="url(#clip0_14978_78130)">
<path d="M499.33 509.925H154.155C140.646 509.925 129.653 498.939 129.653 485.439V226.401C129.653 212.9 140.646 201.915 154.155 201.915H499.313C512.822 201.915 523.815 212.9 523.815 226.401V485.439C523.815 498.939 512.822 509.925 499.313 509.925H499.33ZM154.155 203.433C141.491 203.433 131.173 213.727 131.173 226.401V485.439C131.173 498.095 141.474 508.406 154.155 508.406H499.313C511.978 508.406 522.295 498.112 522.295 485.439V226.401C522.295 213.744 511.978 203.433 499.313 203.433H154.155Z" fill="#B3DCFF"/>
<path d="M575.674 236.053C575.674 236.053 581.973 238.888 584.793 239.884C587.596 240.863 597.913 239.766 599.045 240.643C600.193 241.521 600.244 244.862 598.589 245.453C596.934 246.044 584.624 249.064 580.335 248.642C576.046 248.204 568.497 251.106 566.69 250.735C564.884 250.364 564.732 240.238 565.12 237.91C565.508 235.581 575.691 236.07 575.691 236.07L575.674 236.053Z" fill="#484E7D"/>
<path d="M574.221 232.003L575.674 236.053C575.674 236.053 568.075 238.753 565.103 237.893L564.106 233.758L574.221 231.986V232.003Z" fill="#EEA886"/>
<path d="M558.703 239.665C558.703 239.665 564.647 243.276 567.332 244.626C570.017 245.959 580.368 246.162 581.398 247.191C582.445 248.221 582.107 251.528 580.402 251.899C578.696 252.271 566.133 253.722 561.928 252.743C557.723 251.764 549.905 253.688 548.149 253.081C546.393 252.473 547.355 242.415 547.997 240.154C548.638 237.893 558.686 239.665 558.686 239.665H558.703Z" fill="#5B639E"/>
<path d="M557.808 235.446L558.703 239.665C558.703 239.665 550.868 241.386 548.014 240.154L547.49 235.918L557.825 235.446H557.808Z" fill="#EEA886"/>
<path d="M498.283 159.625C498.283 159.625 525.369 159.861 528.679 160.333C532.275 160.84 546.376 161.295 548.064 163.877C565.238 189.933 576.45 232.577 576.45 232.577L562.874 235.243C562.874 235.243 549.753 209.829 544.248 196.615C539.317 184.752 535.096 181.714 524.727 181.968C514.359 182.221 481.211 179.943 462.096 177.58L498.283 159.625Z" fill="#292C47"/>
<path d="M495.413 96.8819C495.413 96.8819 503.451 114.162 502.792 120.592C502.15 127.004 495.227 144.808 494.737 148.386C494.248 151.963 497.743 159.034 497.743 159.034L461.556 175.774C461.556 175.774 460.103 165.194 461.556 153.01C463.008 140.825 464.089 127.713 465.693 120.828C471.181 97.3206 485.703 87.5835 485.703 87.5835L495.396 96.8987L495.413 96.8819Z" fill="#FF7E55"/>
<path d="M497.76 159.017C497.76 159.017 524.846 159.253 528.156 159.726C531.752 160.232 546.156 160.485 547.541 163.27C557.386 183.132 559.598 236.138 559.598 236.138L546.933 237.673C546.933 237.673 541.546 210.622 538.76 197.949C537.291 191.232 531.685 183.081 524.002 183.537C513.65 184.145 473.038 194.169 461.556 175.758L497.743 159.017H497.76Z" fill="#323657"/>
<path d="M474.373 113.201C474.457 109.859 476.399 95.4139 484.555 96.3927C492.711 97.3883 491.766 107.159 491.006 114.534C490.212 122.246 486.21 141.163 487.493 142.142C488.76 143.121 498.436 146.023 500.513 146.428C502.59 146.85 515.136 149.922 516.166 150.208C517.18 150.495 515.153 155.355 515.153 155.355C515.153 155.355 480.435 154.343 474.626 151.592C468.817 148.842 474.39 113.201 474.39 113.201H474.373Z" fill="#EEA886"/>
<path d="M516.149 150.208C516.149 150.208 518.733 150.85 519.966 150.951C521.215 151.052 527.092 148.707 528.932 149.061C530.756 149.398 542.543 155.085 543.066 155.474C543.59 155.879 542.745 156.655 542.745 156.655L515.119 155.659L516.132 150.208H516.149Z" fill="#EEA886"/>
<path d="M550.769 156.772L504.825 154.919L504.656 159.118L550.6 160.97L550.769 156.772Z" fill="#807066"/>
<path d="M562.145 116.323L546.607 159.571L550.565 160.991L566.103 117.742L562.145 116.323Z" fill="#807066"/>
<path d="M516.487 69.662C516.487 69.662 517.348 76.7665 515.423 77.0534C513.836 77.3066 514.393 84.1411 514.393 85.238C514.393 86.3349 511.404 85.9468 510.593 86.318C509.783 86.6893 505.156 93.4732 502.826 92.8151C500.512 92.1569 491.799 84.7318 490.178 80.7998C488.557 76.8847 491.343 63.1312 495.294 58.4061C499.246 53.6978 514.883 57.2248 516.47 69.6451L516.487 69.662Z" fill="#EEA886"/>
<path d="M498.367 87.8028C498.367 87.8028 498.131 88.4272 497.793 89.3891C497.54 90.0978 497.219 90.9922 496.898 91.971C496.02 94.6036 495.041 97.8099 494.973 99.3793C494.838 102.299 485.736 87.5665 485.736 87.5665C485.736 87.5665 489.012 78.69 491.056 68.3117C493.099 57.9333 498.384 87.7859 498.384 87.7859L498.367 87.8028Z" fill="#EEA886"/>
<path d="M516.622 71.1804C516.622 71.1804 522.33 66.1178 518.311 59.1314C514.292 52.1449 500.243 56.1444 498.909 55.9925C497.574 55.8238 490.567 53.6131 489.199 67.0966C487.848 80.58 488.692 78.555 488.692 78.555C488.692 78.555 492.137 72.7667 494.586 73.6949C497.034 74.623 501.34 75.0786 501.34 75.0786C501.34 75.0786 501.425 68.7841 504.954 69.2735C508.483 69.7629 513.819 68.6997 516.622 71.1804Z" fill="#D88A51"/>
<path d="M473.747 113.841L492.356 114.517C492.356 114.517 495.243 95.1604 484.554 95.5316C473.848 95.9029 473.747 113.841 473.747 113.841Z" fill="#FF7E55"/>
<path d="M499.127 70.5898C499.127 69.7291 499.482 66.1346 495.953 66.9447C492.423 67.7547 494.551 75.6186 495.007 75.8887C495.463 76.1587 499.043 77.8631 499.127 70.5898Z" fill="#EEA886"/>
<path d="M485.72 87.5664C485.72 87.5664 501.694 116.407 501.272 112.323C500.951 109.133 494.028 93.6922 494.028 93.6922L485.72 87.5664Z" fill="#EEA886"/>
<path d="M497.794 89.3889C497.541 90.0977 497.22 90.9921 496.899 91.9709C493.674 87.9714 491.445 83.4319 490.786 82.0312C492.103 84.4276 497.794 89.3889 497.794 89.3889Z" fill="#A77860"/>
<path d="M497.76 159.017L462.18 180.5L461.572 175.758L497.76 159.017Z" fill="#D6C5BF"/>
<path d="M400.596 145.601C400.596 145.601 405.273 181.698 379.184 209.407C353.077 237.117 294.245 227.244 294.245 227.244C294.245 227.244 303.972 194.489 325.316 180.989C346.644 167.489 388.556 162.848 400.612 145.601H400.596Z" fill="#869135"/>
<path d="M370.234 77.1377C370.234 77.1377 391.747 117.605 373.274 161.835C354.783 206.049 281.057 220.444 281.057 220.444C281.057 220.444 278.018 177.53 297.184 152.183C316.35 126.836 363.699 102.805 370.251 77.1546L370.234 77.1377Z" fill="#A9CF4B"/>
<path d="M193.687 242.551H54.4922V244.238H193.687V242.551Z" fill="#78C2FF"/>
<path d="M35.8496 313.681L8.00391 270.209L22.1378 276.605L35.8496 313.681Z" fill="#D6D6D6"/>
<path d="M35.8498 313.68L34.1442 287.473L24.0293 281.718L35.8498 313.68Z" fill="#E8E8E8"/>
<path d="M14.4044 280.2L10.9258 284.79L35.8501 313.681L14.4044 280.2Z" fill="#C2C2C2"/>
<path d="M171.008 180.55H516.166C529.269 180.55 539.908 191.182 539.908 204.277V463.315C539.908 476.41 529.269 487.042 516.166 487.042H171.008C157.904 487.042 147.266 476.41 147.266 463.315V204.277C147.266 191.182 157.904 180.55 171.008 180.55Z" fill="#E3F2FF"/>
<path d="M539.925 204.277V210.994H147.266V204.277C147.266 191.165 157.887 180.55 171.008 180.55H516.166C529.286 180.55 539.908 191.165 539.908 204.277H539.925Z" fill="#4DA8F2"/>
<path d="M302.689 251.815H191.88C186.816 251.815 182.711 255.918 182.711 260.978V290.004C182.711 295.065 186.816 299.167 191.88 299.167H302.689C307.753 299.167 311.858 295.065 311.858 290.004V260.978C311.858 255.918 307.753 251.815 302.689 251.815Z" fill="#B3DCFF"/>
<path d="M302.688 362.805H191.879C186.408 362.805 181.95 358.35 181.95 352.882V323.856C181.95 318.389 186.408 313.934 191.879 313.934H302.688C308.159 313.934 312.617 318.389 312.617 323.856V352.882C312.617 358.35 308.159 362.805 302.688 362.805ZM191.879 315.452C187.236 315.452 183.47 319.216 183.47 323.856V352.882C183.47 357.523 187.236 361.286 191.879 361.286H302.688C307.315 361.286 311.097 357.523 311.097 352.882V323.856C311.097 319.232 307.332 315.452 302.688 315.452H191.879Z" fill="#B3DCFF"/>
<path d="M443.724 377.571H343.283C341.968 377.571 340.902 378.636 340.902 379.95V382.836C340.902 384.15 341.968 385.215 343.283 385.215H443.724C445.038 385.215 446.104 384.15 446.104 382.836V379.95C446.104 378.636 445.038 377.571 443.724 377.571Z" fill="#B3DCFF"/>
<path d="M343.284 405.314H443.707C445.024 405.314 446.088 406.377 446.088 407.693V410.562C446.088 411.879 445.024 412.959 443.69 412.959H343.267C341.95 412.959 340.886 411.895 340.886 410.579V407.71C340.886 406.394 341.95 405.331 343.267 405.331L343.284 405.314Z" fill="#B3DCFF"/>
<path d="M491.765 362.805H353.956C346.34 362.805 340.143 356.611 340.143 349.001V264.86C340.143 257.249 346.34 251.056 353.956 251.056H491.765C499.381 251.056 505.578 257.249 505.578 264.86V349.001C505.578 356.611 499.381 362.805 491.765 362.805ZM353.956 252.574C347.184 252.574 341.662 258.093 341.662 264.86V349.001C341.662 355.768 347.167 361.286 353.956 361.286H491.765C498.537 361.286 504.059 355.768 504.059 349.001V264.86C504.059 258.093 498.537 252.574 491.765 252.574H353.956Z" fill="#B3DCFF"/>
<path d="M485.855 387.629L477.124 380.018C476.415 379.393 476.331 378.313 476.956 377.588C477.58 376.879 478.661 376.795 479.387 377.419L485.568 382.802L494.365 372.998C495.007 372.289 496.088 372.238 496.797 372.863C497.506 373.487 497.557 374.584 496.932 375.293L485.872 387.629H485.855Z" fill="#4DA8F2"/>
<path d="M485.855 417.093L477.124 409.482C476.415 408.858 476.331 407.778 476.956 407.052C477.58 406.343 478.661 406.259 479.387 406.883L485.568 412.267L494.365 402.462C495.007 401.753 496.088 401.703 496.797 402.327C497.506 402.968 497.557 404.048 496.932 404.757L485.872 417.093H485.855Z" fill="#4DA8F2"/>
<path d="M343.283 434.795H443.707C445.024 434.795 446.088 435.859 446.088 437.175V440.044C446.088 441.36 445.024 442.423 443.707 442.423H343.283C341.966 442.423 340.902 441.36 340.902 440.044V437.175C340.902 435.859 341.966 434.795 343.283 434.795Z" fill="#B3DCFF"/>
<path d="M485.855 446.558L477.124 438.947C476.415 438.322 476.331 437.242 476.956 436.517C477.58 435.808 478.661 435.724 479.387 436.348L485.568 441.731L494.365 431.91C495.007 431.201 496.088 431.15 496.797 431.775C497.506 432.399 497.557 433.496 496.932 434.205L485.872 446.541L485.855 446.558Z" fill="#4DA8F2"/>
<g opacity="0.83">
<path d="M83.267 62.3716H290.294C301.084 62.3716 309.832 71.1131 309.832 81.8965V202.1C309.832 212.884 301.084 221.625 290.294 221.625H83.267C72.4766 221.625 63.7295 212.884 63.7295 202.1V81.8965C63.7295 71.1131 72.4766 62.3716 83.267 62.3716Z" fill="#E0F1FF"/>
</g>
<path d="M109.829 154.916C113.409 156.132 117.242 156.807 121.227 156.857C133.301 157.009 144.108 151.373 150.981 142.513C155.743 136.37 158.631 128.692 158.732 120.322C158.732 119.495 158.732 118.668 158.681 117.841C158.479 114.129 157.736 110.551 156.52 107.21C151.42 93.1524 138.029 83.044 122.173 82.8415C113.628 82.7234 105.742 85.5078 99.41 90.2836C90.5784 96.9494 84.8033 107.463 84.6513 119.377C84.4487 135.83 95.0027 149.921 109.812 154.916H109.829ZM93.9388 119.495C94.057 110.635 98.3124 102.788 104.864 97.7931C109.626 94.148 115.604 92.0217 122.072 92.1061C133.943 92.258 143.99 99.8351 147.823 110.382C148.735 112.897 149.292 115.58 149.444 118.364C149.478 118.972 149.478 119.596 149.478 120.221C149.394 126.498 147.232 132.253 143.669 136.86C138.519 143.509 130.413 147.728 121.362 147.626C118.373 147.593 115.503 147.069 112.801 146.175C101.707 142.429 93.7868 131.865 93.9388 119.529V119.495Z" fill="#78C2FF"/>
<path d="M143.669 136.843L150.998 142.513C144.125 151.373 133.318 157.009 121.244 156.857C117.259 156.806 113.426 156.131 109.846 154.916L112.818 146.141C115.503 147.052 118.373 147.559 121.362 147.592C130.413 147.711 138.519 143.475 143.669 136.843Z" fill="#1A598C"/>
<path d="M156.536 107.209L147.823 110.382C148.971 113.572 149.512 116.913 149.478 120.22C149.393 126.498 147.232 132.253 143.669 136.86L150.998 142.53C155.76 136.387 158.647 128.709 158.748 120.339C158.799 115.799 158.056 111.395 156.536 107.226V107.209Z" fill="#2273B5"/>
<path d="M99.4434 90.2836C105.776 85.5078 113.662 82.7234 122.206 82.8415C138.046 83.044 151.437 93.1693 156.553 107.21L147.84 110.382C144.007 99.8351 133.976 92.2411 122.088 92.0892C115.621 92.0049 109.66 94.1312 104.881 97.7763L99.4434 90.2667V90.2836Z" fill="#4DA8F2"/>
<path d="M221.212 275.677C221.212 275.441 221.212 275.222 221.212 274.985C221.212 274.901 221.212 274.833 221.212 274.749C221.144 273.365 220.857 272.049 220.401 270.8C218.51 265.586 213.528 261.822 207.635 261.738C204.46 261.704 201.522 262.734 199.175 264.506C195.899 266.986 193.754 270.885 193.687 275.323C193.602 281.432 197.537 286.663 203.042 288.536C204.376 288.992 205.794 289.245 207.28 289.262C208.969 289.279 210.573 289.009 212.076 288.469C214.575 287.574 216.737 285.988 218.341 283.929C219.895 281.921 220.925 279.457 221.161 276.774C221.195 276.42 221.212 276.048 221.212 275.677ZM197.132 275.373C197.165 272.083 198.753 269.163 201.184 267.307C202.958 265.957 205.17 265.164 207.584 265.198C211.992 265.248 215.724 268.066 217.159 271.981C217.497 272.927 217.699 273.905 217.767 274.952C217.767 275.188 217.784 275.407 217.767 275.643C217.767 276.639 217.598 277.601 217.311 278.512C216.939 279.727 216.365 280.841 215.605 281.82C215.335 282.174 215.031 282.512 214.71 282.832C212.819 284.706 210.202 285.853 207.314 285.819C206.554 285.819 205.811 285.718 205.102 285.549C204.781 285.482 204.444 285.381 204.14 285.279C200.019 283.879 197.081 279.964 197.132 275.373Z" fill="#E3F2FF"/>
<path d="M270.402 82.8413H199.901C190.407 82.8413 182.711 90.5327 182.711 100.02V182.913C182.711 192.4 190.407 200.092 199.901 200.092H270.402C279.896 200.092 287.592 192.4 287.592 182.913V100.02C287.592 90.5327 279.896 82.8413 270.402 82.8413Z" fill="#78C2FF"/>
<path d="M158.445 173.074H89.7513C87.597 173.074 85.8506 174.82 85.8506 176.972V177.479C85.8506 179.632 87.597 181.377 89.7513 181.377H158.445C160.599 181.377 162.346 179.632 162.346 177.479V176.972C162.346 174.82 160.599 173.074 158.445 173.074Z" fill="#B3DCFF"/>
<path d="M158.445 191.789H89.7513C87.597 191.789 85.8506 193.534 85.8506 195.687V196.194C85.8506 198.346 87.597 200.092 89.7513 200.092H158.445C160.599 200.092 162.346 198.346 162.346 196.194V195.687C162.346 193.534 160.599 191.789 158.445 191.789Z" fill="#B3DCFF"/>
<g opacity="0.78">
<path d="M436.293 247.056H574.103C581.314 247.056 587.156 252.895 587.156 260.101V344.242C587.156 351.448 581.314 357.286 574.103 357.286H436.293C429.083 357.286 423.24 351.448 423.24 344.242V260.118C423.24 252.912 429.083 247.073 436.293 247.073V247.056Z" fill="#4DA8F2"/>
</g>
<path d="M444.686 260.236H489.907C492.626 260.236 494.838 262.447 494.838 265.163V302.019C494.838 304.736 492.626 306.947 489.907 306.947H444.686C441.967 306.947 439.755 304.736 439.755 302.019V265.163C439.755 262.447 441.967 260.236 444.686 260.236Z" fill="#E3F2FF"/>
<path d="M506.929 260.236H572.026C573.613 260.236 574.913 261.536 574.913 263.122V269.804C574.913 271.391 573.613 272.69 572.026 272.69H506.929C505.341 272.69 504.041 271.391 504.041 269.804V263.105C504.041 261.519 505.341 260.219 506.929 260.219V260.236Z" fill="#E3F2FF"/>
<path d="M506.929 279.71H572.026C573.613 279.71 574.913 281.01 574.913 282.596V289.279C574.913 290.865 573.613 292.165 572.026 292.165H506.929C505.341 292.165 504.041 290.865 504.041 289.279V282.596C504.041 281.01 505.341 279.71 506.929 279.71Z" fill="#E3F2FF"/>
<path d="M572.296 335.771H547.186C545.74 335.771 544.568 336.942 544.568 338.386V339.584C544.568 341.029 545.74 342.2 547.186 342.2H572.296C573.741 342.2 574.913 341.029 574.913 339.584V338.386C574.913 336.942 573.741 335.771 572.296 335.771Z" fill="#E3F2FF"/>
<path d="M555.612 384.085C555.612 384.085 552.995 379.511 557.149 367.243C561.168 355.379 575.049 356.459 579.473 364.053C583.88 371.647 582.394 376.373 575.893 384.945C569.392 393.518 558.314 388 555.612 384.068V384.085Z" fill="#EEA886"/>
<path d="M587.883 595.061C587.883 595.061 588.575 600.09 588.66 600.85C588.744 601.609 596.309 600.411 596.309 600.411L596.917 594.42C596.917 594.42 588.828 594.353 587.883 595.061Z" fill="#EEA886"/>
<path d="M588.574 600.208C588.574 600.208 586.177 603.246 583.863 604.562C581.55 605.878 577.902 606.402 576.534 607.785C575.538 608.781 572.938 613.034 582.563 612.949C592.188 612.865 596.832 613.557 597.862 611.92C598.892 610.283 596.376 599.888 596.376 599.888C596.376 599.888 594.012 600.546 588.591 600.225L588.574 600.208Z" fill="#5377B3"/>
<path d="M535.518 595.061C535.518 595.061 536.21 600.09 536.294 600.85C536.379 601.609 543.944 600.411 543.944 600.411L544.552 594.42C544.552 594.42 536.463 594.353 535.518 595.061Z" fill="#EEA886"/>
<path d="M536.21 600.209C536.21 600.209 533.812 603.246 531.498 604.562C529.185 605.879 520.657 606.976 519.29 608.343C518.293 609.338 516.655 613.304 530.198 612.933C539.823 612.663 544.467 613.54 545.497 611.903C546.527 610.266 544.011 599.871 544.011 599.871C544.011 599.871 541.022 600.411 536.227 600.209H536.21Z" fill="#5B83C2"/>
<path d="M585.332 469.66C585.332 469.66 589.216 481.692 588.693 492.071C588.186 502.449 590.702 513.789 591.716 524.64C592.864 536.723 597.558 565.327 597.727 571.79C597.896 578.253 597.001 598.892 597.001 598.892L587.612 599.111C587.612 599.111 579.726 549.109 577.683 543.996C575.64 538.9 565.508 502.516 565.17 498.433C564.832 494.349 585.316 469.643 585.316 469.643L585.332 469.66Z" fill="#2F4563"/>
<path d="M546.409 468.411C546.409 468.411 540.719 500.238 540.026 506.584C539.351 512.929 538.895 537.314 538.557 541.279C538.219 545.245 536.294 593.205 534.471 599.112H544.94C544.94 599.112 555.697 564.247 555.697 547.743C555.697 531.239 562.806 511.882 567.416 500.998C572.009 490.113 582.529 489.86 585.349 469.66C585.349 469.66 550.243 461.999 546.426 468.411H546.409Z" fill="#354C70"/>
<path d="M559.412 387.325C559.412 387.325 560.594 390.768 559.412 393.214C558.23 395.661 574.492 394.193 574.492 394.193C574.492 394.193 573.749 389.131 575.876 384.962C578.004 380.794 559.395 387.325 559.395 387.325H559.412Z" fill="#EEA886"/>
<path d="M586.092 472.276C586.092 472.276 580.25 478.283 545.886 471.347L546.409 468.411L585.467 469.879L586.092 472.292V472.276Z" fill="#2B3B57"/>
<path d="M556.946 393.991C556.946 393.991 550.935 394.598 549.212 394.936C547.49 395.256 535.94 392.877 533.576 392.624C531.211 392.371 521.097 385.452 520.776 384.642C520.455 383.832 514.629 369.099 514.291 365.91C513.97 362.721 508.617 364.374 509.073 366.568C509.935 370.669 511.032 380.642 511.64 383.528C512.299 386.65 514.038 393.721 515.017 394.581C515.997 395.459 525.099 402.378 534.015 405.314C542.931 408.25 549.635 412.587 549.635 412.587H593.556C593.556 412.587 610.645 388.186 611 384.507C611.371 380.828 599.061 356.392 596.612 353.338C594.164 350.283 590.618 354.333 590.618 354.333C590.618 354.333 597.963 375.883 598.943 378.938C599.922 382.009 590.398 395.459 587.781 395.51C585.163 395.543 578.443 394.699 575.471 394.564C572.482 394.446 569.341 393.13 569.341 393.13L556.963 393.991H556.946Z" fill="#EEA886"/>
<path d="M538.017 410.292C538.017 410.292 543.387 413.87 543.877 419.996C544.367 426.121 546.325 435.808 547.305 439.115C548.284 442.423 546.444 466.454 546.207 468.158C545.954 469.879 580.183 473.946 585.451 469.879C585.451 469.879 586.92 447.452 587.528 441.073C588.136 434.694 591.091 419.253 592.071 417.177C593.05 415.085 604.938 398.412 605.445 396.218C605.445 396.218 599.298 386.414 594.874 386.295C594.874 386.295 587.866 394.514 585.569 394.868C583.273 395.223 569.274 392.674 569.274 392.641C569.274 392.641 567.737 394.716 559.615 392.269C559.615 392.269 549.939 393.366 548.352 393.569C546.444 393.805 533.188 391.898 533.188 391.898C533.188 391.898 527.869 400.876 528.797 405.398L538.017 410.275V410.292Z" fill="#FF7E55"/>
<path d="M514.595 367.817C514.595 367.817 513.396 362.13 514.849 360.51C515.676 359.582 517.652 357.118 517.838 356.763C518.023 356.409 520.134 355.177 520.134 354.603C520.134 354.03 518.057 353.287 516.25 354.958C514.443 356.628 513.312 356.983 512.586 356.814C511.86 356.628 510.83 350.621 510.728 349.136C510.644 347.651 510.07 343.719 509.124 343.989C508.195 344.259 508.246 345.98 508.246 345.98C508.246 345.98 507.165 342.993 506.439 343.584C505.713 344.174 505.814 345.609 505.814 345.609C505.814 345.609 504.463 343.938 504.092 345.153C503.737 346.368 504.092 347.465 504.092 347.465C504.092 347.465 502.69 346.689 502.606 348.596C502.522 350.486 503.011 356.038 504.008 358.029C505.004 360.02 508.719 365.218 509.158 367.243C509.597 369.268 514.595 367.817 514.595 367.817Z" fill="#EEA886"/>
<path d="M591.817 357.844C591.817 357.844 587.73 350.975 586.346 350.368C584.961 349.76 582.985 349.406 581.28 348.174C579.557 346.942 577.294 345.929 577.413 345.524C577.531 345.119 579.557 345.271 581.719 346.216C583.88 347.161 584.843 346.706 585.045 346.216C585.248 345.727 583.897 342.267 583.238 341.441C582.58 340.631 577.919 335.939 578.696 335.247C579.473 334.555 582.495 337.12 582.985 337.66C582.985 337.66 580.57 332.598 581.516 332.345C582.462 332.108 584.218 333.897 584.218 333.897C584.218 333.897 584.015 329.56 588.676 336.597C588.676 336.597 587.696 334.269 589.132 335.045C590.567 335.821 591.952 340.192 592.408 342.402C592.864 344.613 594.89 351.633 596.629 353.338C598.369 355.025 591.834 357.86 591.834 357.86L591.817 357.844Z" fill="#EEA886"/>
<path d="M575.893 384.946C575.893 384.946 573.732 385.131 569.156 383.562C564.579 381.975 564.242 373.977 563.245 374.922C561.219 376.862 559.311 375.512 558.551 374.382C558.551 374.382 560.78 371.445 559.75 370.028C558.72 368.61 557.031 367.581 557.031 367.581C557.031 367.581 560.257 352.072 574.897 359.143C592.071 367.429 575.876 384.962 575.876 384.962L575.893 384.946Z" fill="#353A3D"/>
<path d="M559.412 393.198L559.936 390.953C559.936 390.953 569.291 390.768 574.39 391.51L574.931 394.193C574.931 394.193 568.396 397.147 559.429 393.215L559.412 393.198Z" fill="#FF7E55"/>
<path d="M561.708 372.964C562.552 371.546 565.693 370.601 566.065 374.601C566.352 377.706 560.442 381.081 560.391 378.195C560.34 375.31 561.134 373.909 561.708 372.964Z" fill="#EEA886"/>
<path d="M514.375 366.534C514.375 366.534 510.998 366.619 509.36 368.087C509.36 368.087 509.259 369.032 509.63 369.774C509.63 369.774 512.552 368.407 514.798 368.154C514.798 368.154 514.764 366.922 514.375 366.534Z" fill="#E55353"/>
<path d="M510.391 367.378C510.087 368.121 510.424 368.964 511.167 369.268C511.91 369.589 512.755 369.234 513.076 368.492C513.38 367.749 513.042 366.906 512.299 366.585C511.556 366.281 510.711 366.619 510.391 367.361V367.378Z" fill="#353A3D"/>
<g style="mix-blend-mode:multiply" opacity="0.78">
<path d="M124.571 320.785H235.379C240.445 320.785 244.548 324.886 244.548 329.949V358.974C244.548 364.037 240.445 368.138 235.379 368.138H124.571C119.505 368.138 115.401 364.037 115.401 358.974V329.949C115.401 324.886 119.505 320.785 124.571 320.785Z" fill="#4DA8F2"/>
</g>
<path d="M15.0284 460.345C15.0284 460.345 15.535 463.113 17.0885 463.518C18.4057 463.872 19.8748 465.273 20.3138 465.694C20.9217 466.268 23.4209 467.365 22.6948 468.125C21.9687 468.884 18.4732 466.538 17.6458 466.184C16.8184 465.846 18.0004 469.694 17.6627 470.572C17.3249 471.449 10.8237 473.052 10.3171 470.318C9.8105 467.585 11.0601 464.311 10.8743 463.855C10.6886 463.399 10.4184 461.881 10.4184 461.881L14.9946 460.328L15.0284 460.345Z" fill="#EEA886"/>
<path d="M17.7307 469.913C17.7307 469.913 18.7439 478.401 18.3386 479.026C17.9333 479.65 17.4605 479.667 17.3423 478.891C17.2241 478.115 16.1265 470.723 16.1265 470.723C16.1265 470.723 15.6368 480.966 15.4173 481.557C15.2822 481.895 14.3872 482.013 14.2859 481.591C14.1845 481.169 14.0832 470.993 14.0832 470.993C14.0832 470.993 13.6104 480.561 13.2727 480.983C12.9856 481.355 12.1413 481.253 12.1244 480.545C12.1244 479.836 12.0569 470.926 12.0569 470.926C12.0569 470.926 11.2801 477.861 10.7735 478.064C10.4695 478.182 9.70966 478.317 9.96295 476.528C10.2162 474.739 10.3851 470.47 10.3851 470.47L17.7307 469.93V469.913Z" fill="#EEA886"/>
<path d="M106.232 356.223C106.232 356.223 107.634 353.625 108.107 351.549C108.58 349.473 111.18 346.706 112.227 346.047C113.291 345.389 120.94 339.905 121.835 339.905C122.73 339.905 122.207 341.609 121.447 342.099C120.687 342.588 114.456 347.431 114.456 347.431C114.456 347.431 122.207 342.099 123.001 342.234C123.811 342.369 124.385 343.398 123.524 344.461C123.524 344.461 125.297 345.626 123.457 347.026L119.792 349.844C119.792 349.844 121.954 348.731 121.143 350.452C120.721 351.363 116.212 354.063 115.503 354.873C114.777 355.7 109.103 358.451 109.103 358.451L106.249 356.173L106.232 356.223Z" fill="#EEA886"/>
<path d="M60.8581 594.066H62.7831C62.7831 594.066 62.1414 586.826 63.9145 586.759C65.6876 586.691 70.0949 592.648 72.7292 593.577C75.3635 594.505 88.8557 595.281 88.9232 592.8C88.9908 590.32 83.7391 589.324 82.1011 588.615C80.4632 587.906 72.5097 580.161 71.0912 579.232C69.6728 578.304 67.3256 573.63 67.3256 573.63H60.0813C60.0813 573.63 59.2876 577.562 58.8317 580.734C58.6628 581.916 58.5446 582.979 58.5278 583.705C58.4602 586.405 60.875 594.066 60.875 594.066H60.8581Z" fill="#EEA886"/>
<path d="M27.508 592.631H29.1122V585.881C30.4462 585.999 34.9211 590.235 36.3058 591.45C37.6905 592.682 39.5986 592.614 45.4244 592.986C51.2671 593.357 51.8075 589.864 50.8956 588.682C49.9669 587.501 46.9949 586.978 45.4244 586.236C43.8709 585.493 37.7411 578.591 36.1031 576.954C34.4652 575.317 33.4689 570.643 33.4689 570.643L26.6468 571.233C26.6468 571.233 26.6974 575.52 25.9207 579.114C25.9207 579.114 25.9207 579.131 25.9207 579.148C25.8531 579.452 25.7856 579.755 25.7011 580.042C24.688 583.772 27.508 592.631 27.508 592.631Z" fill="#EEA886"/>
<path d="M43.482 367.26C43.482 367.26 40.1554 374.28 41.9285 380.018C41.9285 380.018 31.6784 378.617 31.3745 377.419C31.0705 376.221 32.6578 365.454 31.4758 362.164C30.2937 358.856 43.482 367.26 43.482 367.26Z" fill="#EEA886"/>
<path d="M43.7189 377.689C43.7189 377.689 49.646 380.237 52.3479 381.014C55.0497 381.79 60.6053 384.861 59.4232 394.801C58.2243 404.74 55.894 413.263 54.9484 417.498C54.0196 421.734 53.6143 432.669 54.2391 438.053C54.2391 438.053 39.396 440.584 22.5096 435.757C22.5096 435.757 26.2077 426.932 26.2922 424.603C26.3766 422.257 17.7139 402.277 17.4775 399.205C17.2242 396.134 16.1772 382.583 20.9898 379.95C25.8025 377.318 29.5175 377.976 31.5607 376.795C33.604 375.613 40.9327 376.525 43.702 377.672L43.7189 377.689Z" fill="#FF7E55"/>
<path d="M43.6848 393.147C43.6848 393.147 41.4051 381.199 52.9892 381.233C63.1717 381.25 72.78 379.326 74.4011 378.432C76.0222 377.537 82.2364 374.483 85.5123 371.125C88.7883 367.766 106.502 354.3 106.502 354.3L111.399 359.244C111.399 359.244 92.7059 379.529 89.7002 381.503C86.6944 383.477 61.3817 397.602 58.1733 398.041C54.9649 398.48 45.9475 400.943 43.6848 393.164V393.147Z" fill="#FF7E55"/>
<path d="M7.29503 430.036C6.94041 434.238 9.23696 463.264 9.23696 463.264L17.4775 464.209C17.4775 464.209 16.8865 435.538 16.4306 428.923C16.2955 426.965 16.7514 423.995 17.4437 420.755C17.8828 418.696 18.44 416.536 18.9973 414.477C20.5508 408.79 22.2395 403.846 22.2395 403.846C22.2395 403.846 31.4594 379.866 19.8923 380.845C19.8923 380.845 15.5862 385.283 13.7794 392.539C11.9557 399.813 9.87864 410.697 9.79421 415.051C9.70978 419.388 7.54832 426.931 7.29503 430.02V430.036Z" fill="#FF7E55"/>
<path d="M52.263 437.833C52.263 437.833 54.9142 444.111 55.1506 445.697C55.387 447.283 63.712 468.006 64.303 474.082C64.894 480.207 66.6502 496.576 67.275 498.922C67.8998 501.268 65.8734 511.731 65.5526 514.076C65.2317 516.422 65.4006 554.695 68.2037 573.613C68.2037 573.613 61.6349 576.431 56.6366 573.613C56.6366 573.613 48.3454 544.081 48.8182 527.054C49.291 510.026 51.4525 502.837 48.8182 495.952C46.167 489.084 30.6991 468.445 29.1287 466.268C27.5582 464.074 17.7641 451.992 27.0516 438.896C36.3223 425.801 52.2799 437.833 52.2799 437.833H52.263Z" fill="#EDDAD3"/>
<path d="M20.2634 493.758C21.0909 499.226 20.2128 506.415 18.5072 526.412C16.7848 546.409 21.513 570.626 21.513 570.626C27.457 572.651 34.296 570.626 34.296 570.626C34.144 569.225 34.296 521.872 34.296 517.654C34.296 513.435 35.5118 508.642 35.8158 503.799C36.0353 500.491 37.572 494.416 39.2944 488.206C39.8179 486.35 40.3413 484.477 40.8648 482.671C41.1519 481.658 41.4389 480.663 41.726 479.684C44.1577 471.246 47.4336 438.66 47.4336 438.66C47.4336 438.66 29.2808 424.046 20.4492 437.799C11.6176 451.553 16.1431 461.543 16.464 463.264C16.7679 464.985 19.436 488.257 20.2634 493.724V493.758Z" fill="#EDDAD3"/>
<path d="M55.4206 413.246C55.4206 413.246 53.8163 439.132 58.629 453.696C58.629 453.696 39.4629 456.885 15.0283 448.65C15.0283 448.65 21.7491 431.252 21.5127 428.535C21.2763 425.818 14.2009 394.126 17.5951 387.038C20.9892 379.95 54.2047 390.008 55.4037 413.246H55.4206Z" fill="#FF7E55"/>
<path d="M39.7676 338.403C44.1412 338.234 55.3368 339.922 53.2429 356.764C51.1659 373.605 45.0699 372.154 39.0415 369.91C33.013 367.665 26.63 354.047 26.8833 350.537C27.1366 347.026 27.2548 338.892 39.7507 338.386L39.7676 338.403Z" fill="#EEA886"/>
<path d="M53.1921 348.967C53.1921 348.967 47.8391 354.857 42.8238 355.987C42.8238 355.987 38.5516 362.484 31.8139 363.733C31.8139 363.733 18.6932 349.237 31.2904 339.972C43.8708 330.708 53.6649 343.803 53.209 348.967H53.1921Z" fill="#353A3D"/>
<path d="M43.9043 353.743C43.803 352.815 41.8948 350.773 40.1555 352.764C38.4162 354.755 40.9492 359.868 42.0468 359.953C43.1444 360.037 44.2758 357.287 43.9043 353.743Z" fill="#EEA886"/>
<path d="M27.7776 464.378C27.9127 464.682 36.9638 484.747 39.2773 488.223C39.8007 486.367 40.3242 484.493 40.8477 482.688C40.8477 482.688 28.0647 464.834 27.7607 464.378H27.7776Z" fill="#C9B9B3"/>
<path d="M17.0384 400.201C17.0384 400.201 16.3967 412.942 17.4436 420.755C17.8827 418.696 18.4399 416.536 18.9972 414.477C18.9465 414.19 17.2072 402.209 17.0384 400.201Z" fill="#BA5C3D"/>
<path d="M36.3901 337.306C36.3901 337.306 21.1417 336.952 23.4383 363.125C25.1945 383.241 17.7982 393.181 18.8452 396.117C19.8921 399.053 23.4552 403.947 31.4593 399.526C39.4635 395.104 34.1949 372.053 38.5009 363.075C42.807 354.097 52.2296 349.946 52.2296 349.946C52.2296 349.946 50.5747 334.673 36.3901 337.289V337.306Z" fill="#353A3D"/>
<path d="M56.958 390.312C56.958 390.312 60.4366 402.732 61.264 405.669C62.3447 409.483 57.3464 416.655 52.9221 414.461C48.4979 412.25 56.958 390.312 56.958 390.312Z" fill="#FF7E55"/>
<path d="M27.508 592.631H29.1122V585.881C30.4462 585.999 34.9211 590.235 36.3058 591.45C37.6905 592.682 39.5986 592.614 45.4244 592.986C51.2671 593.357 51.8075 589.864 50.8956 588.682C49.9669 587.501 46.9949 586.978 45.4244 586.235C39.1765 586.573 31.5607 577.798 27.8964 577.814C25.9544 577.814 25.9713 578.895 25.9207 579.097C25.9207 579.097 25.9207 579.114 25.9207 579.131C25.8531 579.435 25.7856 579.738 25.7011 580.025C24.688 583.755 27.508 592.614 27.508 592.614V592.631Z" fill="#DBCAC3"/>
<path d="M60.8581 594.066H62.7831C62.7831 594.066 62.1414 586.826 63.9145 586.759C65.6876 586.691 70.0949 592.648 72.7292 593.576C75.3635 594.505 88.8557 595.281 88.9232 592.8C88.9908 590.32 83.7391 589.324 82.1011 588.615C76.5286 588.615 67.4775 582.472 64.6744 581.241C61.8713 579.992 58.8317 580.751 58.8317 580.751C58.6628 581.932 58.5446 582.996 58.5278 583.721C58.4602 586.421 60.875 594.083 60.875 594.083L60.8581 594.066Z" fill="#DBCAC3"/>
<path d="M451.474 73.4925L451.119 72.0074C453.821 71.3831 455.223 70.8262 455.239 70.8262L455.797 72.2437C455.797 72.2437 454.277 72.8343 451.474 73.4925Z" fill="#C2BEBC"/>
<path d="M10.6719 254.515C9.72627 251.883 8.83129 249.081 7.98697 246.196L9.45609 245.774C10.2835 248.626 11.1785 251.393 12.1073 253.992L10.6719 254.498V254.515ZM5.77486 237.758C5.11629 234.99 4.50838 232.122 3.96802 229.219L5.4709 228.932C6.01127 231.801 6.61918 234.653 7.27775 237.404L5.79175 237.758H5.77486ZM2.51579 220.629C2.09363 217.794 1.72213 214.875 1.40129 211.989L2.92106 211.82C3.2419 214.706 3.6134 217.592 4.01867 220.41L2.4989 220.629H2.51579ZM0.624511 203.298C0.421875 200.413 0.253011 197.493 0.151693 194.591L1.67147 194.54C1.77279 197.426 1.92476 200.328 2.1274 203.197L0.607625 203.298H0.624511ZM1.53638 185.883H0.0166016C0.0166016 182.98 0.0672607 180.061 0.168579 177.158L1.68835 177.209C1.58704 180.078 1.53638 182.997 1.53638 185.866V185.883ZM2.17806 168.569L0.658284 168.451C0.877807 165.548 1.14799 162.629 1.45194 159.777L2.97172 159.945C2.65088 162.797 2.3807 165.7 2.17806 168.569ZM4.08622 151.356L2.56645 151.136C3.00549 148.251 3.4952 145.365 4.03556 142.53L5.53845 142.817C4.99809 145.618 4.50838 148.504 4.08622 151.356ZM7.34529 134.345L5.85929 133.991C6.51786 131.156 7.26086 128.304 8.03763 125.536L9.50675 125.941C8.72998 128.692 8.00386 131.51 7.34529 134.328V134.345ZM12.0397 117.672L10.5875 117.2C11.4993 114.432 12.4956 111.665 13.5257 108.982L14.9611 109.522C13.9479 112.188 12.9685 114.922 12.0566 117.672H12.0397ZM18.237 101.523L16.8354 100.898C18.0175 98.2319 19.2671 95.5656 20.5673 93.0005L21.9351 93.6924C20.6518 96.2406 19.4022 98.8731 18.237 101.523ZM26.0216 86.0816L24.6876 85.3222C26.1398 82.7909 27.6596 80.2764 29.23 77.8632L30.5134 78.6901C28.9599 81.0864 27.4401 83.5671 26.0047 86.0816H26.0216ZM434.064 75.4332V73.8975C437.002 73.8638 439.89 73.695 442.643 73.3912L442.811 74.91C440.008 75.2138 437.07 75.3825 434.064 75.4163V75.4332ZM425.317 75.1969C422.48 75.0113 419.542 74.7244 416.621 74.3363L416.823 72.8175C419.728 73.2056 422.615 73.4925 425.418 73.6781L425.317 75.1969ZM407.992 72.9019C405.189 72.345 402.318 71.7037 399.481 70.9781L399.852 69.493C402.672 70.2187 405.509 70.8599 408.296 71.3999L408.009 72.9019H407.992ZM35.4442 71.5687L34.2115 70.6743C35.9339 68.3286 37.7408 66.0167 39.5814 63.7891L40.7634 64.7679C38.9397 66.9786 37.1498 69.2568 35.4442 71.5856V71.5687ZM391.072 68.5986C388.353 67.7549 385.567 66.8098 382.797 65.8142L383.321 64.3798C386.056 65.3754 388.826 66.3036 391.527 67.1473L391.072 68.5986ZM374.658 62.6585C372.024 61.5784 369.322 60.3972 366.654 59.1821L367.295 57.7983C369.947 59.0134 372.615 60.1778 375.232 61.2578L374.658 62.6753V62.6585ZM46.4542 58.254L45.3397 57.2077C47.3154 55.0814 49.3924 53.0057 51.4863 50.9975L52.5333 52.1113C50.4562 54.0858 48.413 56.1446 46.4542 58.254ZM358.802 55.402C356.252 54.1195 353.651 52.7526 351.085 51.3519L351.811 50.0188C354.361 51.4194 356.944 52.7695 359.477 54.052L358.785 55.4189L358.802 55.402ZM343.503 47.0487C342.506 46.4581 341.51 45.8674 340.497 45.2599C339.078 44.3993 337.575 43.5217 336.022 42.6442L336.782 41.3111C338.335 42.2054 339.855 43.083 341.29 43.9605C342.287 44.568 343.3 45.1586 344.279 45.7493L343.503 47.0656V47.0487ZM58.967 46.3568L57.9876 45.1924C59.5073 43.9099 61.0778 42.6442 62.6651 41.4123C63.3912 40.8554 64.1004 40.2985 64.8265 39.7585L65.7384 40.9735C65.0292 41.5136 64.3031 42.0536 63.5938 42.6105C62.0234 43.8255 60.4699 45.0743 58.967 46.3399V46.3568ZM328.406 38.4591C325.907 37.1428 323.306 35.8097 320.672 34.5271L321.348 33.1602C323.999 34.4596 326.599 35.7928 329.115 37.1091L328.406 38.4591ZM72.7631 35.9278L71.9019 34.6621C74.2998 33.0083 76.7483 31.4052 79.1969 29.8695L80.0074 31.1689C77.5758 32.6877 75.1441 34.2909 72.7631 35.9109V35.9278ZM312.837 30.8145C310.236 29.6164 307.568 28.4351 304.9 27.3044L305.508 25.9038C308.176 27.0513 310.861 28.2326 313.479 29.4307L312.837 30.8145ZM87.4374 26.7644L86.6944 25.4313C89.2105 24.0137 91.811 22.63 94.3946 21.3137L95.087 22.6806C92.5202 23.98 89.9535 25.3469 87.4543 26.7644H87.4374ZM296.879 23.9969C294.211 22.9337 291.476 21.8874 288.774 20.8918L289.297 19.4574C292.016 20.453 294.752 21.5162 297.436 22.5793L296.879 23.9969ZM102.888 18.9511L102.264 17.5504C104.898 16.3692 107.6 15.2216 110.302 14.1585L110.859 15.576C108.191 16.6392 105.506 17.7698 102.888 18.9511ZM280.601 17.9892C277.865 17.0611 275.096 16.1498 272.36 15.2891L272.816 13.8379C275.569 14.6985 278.355 15.6098 281.107 16.5379L280.618 17.9892H280.601ZM264.035 12.8085C261.249 12.0153 258.429 11.2559 255.66 10.5471L256.031 9.06211C258.817 9.77087 261.654 10.5303 264.441 11.3403L264.018 12.8085H264.035ZM118.981 12.5722L118.491 11.1209C121.227 10.1759 124.013 9.28149 126.8 8.45459L127.239 9.92275C124.486 10.7328 121.7 11.6272 118.998 12.5553L118.981 12.5722ZM247.233 8.50522C244.413 7.86395 241.559 7.25643 238.739 6.71642L239.027 5.21451C241.847 5.7714 244.717 6.37891 247.554 7.02018L247.216 8.50522H247.233ZM135.597 7.66144L135.226 6.17641C138.029 5.48451 140.883 4.84325 143.737 4.25261L144.041 5.75452C141.221 6.32829 138.367 6.96955 135.597 7.66144ZM230.212 5.16388C227.358 4.69137 224.47 4.25261 221.634 3.88135L221.836 2.36256C224.69 2.75069 227.578 3.18946 230.465 3.66197L230.212 5.16388ZM152.551 4.21886L152.315 2.71694C155.152 2.26131 158.073 1.8563 160.961 1.51879L161.146 3.03758C158.276 3.37509 155.388 3.76322 152.568 4.21886H152.551ZM213.021 2.85195C210.134 2.56507 207.229 2.31193 204.376 2.10943L204.477 0.59064C207.348 0.793145 210.269 1.04628 213.173 1.33316L213.021 2.85195ZM169.759 2.19381L169.64 0.675017C172.511 0.455637 175.432 0.286882 178.354 0.168754L178.404 1.68754C175.517 1.80567 172.612 1.97443 169.759 2.19381ZM195.73 1.67067C192.96 1.56941 190.157 1.53566 187.422 1.53566H187.067V0H187.422C190.174 0 192.994 0.0506263 195.797 0.151879L195.747 1.67067H195.73Z" fill="#C2BEBC"/>
<path d="M15.8222 266.615C15.1805 265.349 14.5389 263.999 13.9141 262.616L15.3156 261.991C15.9235 263.358 16.5652 264.674 17.19 265.923L15.8222 266.615Z" fill="#C2BEBC"/>
<path d="M185.361 401.196H173.608V443.857H185.361V401.196Z" fill="#78C2FF"/>
<path d="M202.079 396.893H190.326V443.857H202.079V396.893Z" fill="#78C2FF"/>
<path d="M219.033 405.837H207.28V443.875H219.033V405.837Z" fill="#78C2FF"/>
<path d="M235.97 388.202H224.217V443.857H235.97V388.202Z" fill="#78C2FF"/>
<path d="M253.769 393.754H242.016V443.874H253.769V393.754Z" fill="#78C2FF"/>
<path d="M271.786 401.196H260.033V443.857H271.786V401.196Z" fill="#78C2FF"/>
<path d="M288.504 396.893H276.751V443.857H288.504V396.893Z" fill="#78C2FF"/>
<path d="M305.458 405.837H293.705V443.875H305.458V405.837Z" fill="#78C2FF"/>
<path d="M155.49 342.959C155.49 342.959 155.49 342.824 155.49 342.757C155.422 341.373 155.135 340.057 154.679 338.808C152.788 333.594 147.807 329.83 141.913 329.746C138.739 329.712 135.8 330.742 133.453 332.513C130.177 334.994 128.033 338.892 127.965 343.331C127.881 349.44 131.815 354.671 137.32 356.544C138.654 357 140.073 357.253 141.559 357.27C143.298 357.287 144.97 356.983 146.506 356.409C148.938 355.515 151.049 353.945 152.619 351.937C154.173 349.946 155.186 347.499 155.439 344.849C155.473 344.461 155.49 344.09 155.507 343.702C155.507 343.466 155.507 343.213 155.507 342.976L155.49 342.959ZM131.427 343.364C131.461 340.074 133.048 337.154 135.48 335.298C137.253 333.948 139.465 333.155 141.88 333.189C146.287 333.239 150.019 336.057 151.454 339.972C151.792 340.901 151.995 341.896 152.062 342.926C152.062 343.162 152.079 343.381 152.062 343.618C152.062 344.613 151.893 345.575 151.606 346.486C151.235 347.701 150.66 348.815 149.901 349.794C149.63 350.148 149.326 350.486 149.006 350.806C147.114 352.68 144.497 353.827 141.609 353.793C140.85 353.793 140.107 353.692 139.397 353.523C139.076 353.456 138.756 353.355 138.435 353.253C134.314 351.853 131.376 347.938 131.427 343.348V343.364Z" fill="#E3F2FF"/>
<g opacity="0.74">
<path d="M459.36 455.468H367.346C360.865 455.468 355.61 460.719 355.61 467.196V533.955C355.61 540.433 360.865 545.684 367.346 545.684H459.36C465.842 545.684 471.096 540.433 471.096 533.955V467.196C471.096 460.719 465.842 455.468 459.36 455.468Z" fill="#4DA8F2"/>
</g>
<path d="M415.793 464.699H457.013C460.981 464.699 464.189 467.905 464.189 471.871V527.627C464.189 531.593 460.981 534.799 457.013 534.799H415.793C411.825 534.799 408.616 531.593 408.616 527.627V471.871C408.616 467.905 411.825 464.699 415.793 464.699Z" fill="#E3F2FF"/>
<path d="M371.889 464.699H392.997C395.429 464.699 397.405 466.673 397.405 469.103V470.301C397.405 472.731 395.429 474.689 393.014 474.689H371.906C369.474 474.689 367.516 472.715 367.516 470.301V469.103C367.516 466.673 369.491 464.699 371.923 464.699H371.889Z" fill="#E3F2FF"/>
<path d="M371.888 483.363H392.996C395.428 483.363 397.387 485.337 397.387 487.75V488.949C397.387 491.379 395.411 493.336 392.996 493.336H371.888C369.457 493.336 367.498 491.362 367.498 488.949V487.75C367.498 485.32 369.474 483.363 371.888 483.363Z" fill="#E3F2FF"/>
</g>
<defs>
<clipPath id="clip0_14978_78130">
<rect width="611" height="613" fill="white"/>
</clipPath>
</defs>
</svg>
