<svg width="512" height="512" viewBox="0 0 512 512" fill="none" xmlns="http://www.w3.org/2000/svg">
<path d="M256 501.76C391.729 501.76 501.76 391.73 501.76 256C501.76 120.271 391.729 10.24 256 10.24C120.27 10.24 10.24 120.271 10.24 256C10.24 391.73 120.27 501.76 256 501.76Z" fill="url(#paint0_linear_64_2)"/>
<path d="M121.815 183.695H390.195V375.265H121.815V183.695Z" fill="#DBDFE5"/>
<path d="M121.805 361.114H390.185V375.265H121.805V361.114Z" fill="#DBDFE5"/>
<path d="M402.097 375.265H109.865C109.275 375.265 108.796 375.742 108.796 376.334V393.315C108.796 393.906 109.275 394.385 109.865 394.385H402.097C402.687 394.385 403.166 393.906 403.166 393.315V376.334C403.166 375.742 402.688 375.265 402.097 375.265Z" fill="#545B66"/>
<path d="M247.957 269.412H164.055C161.738 269.412 159.86 271.291 159.86 273.608V345.095C159.86 347.412 161.737 349.291 164.055 349.291H247.957C250.275 349.291 252.154 347.414 252.154 345.095V273.608C252.154 271.291 250.275 269.412 247.957 269.412Z" fill="#545B66"/>
<path d="M165.612 275.169H246.385V329.677H165.612V275.169Z" fill="#5EB5E5"/>
<path d="M254.62 329.675H157.387C157.16 329.675 156.977 329.857 156.977 330.084V333.562C156.977 333.787 157.16 333.97 157.387 333.97H254.62C254.846 333.97 255.029 333.787 255.029 333.562V330.084C255.03 329.857 254.846 329.675 254.62 329.675Z" fill="#42474F"/>
<path d="M110.809 170.129V181.37C110.809 182.655 111.85 183.696 113.136 183.696H398.864C400.149 183.696 401.191 182.655 401.191 181.37V170.129C401.191 168.844 400.149 167.803 398.864 167.803H113.136C111.85 167.803 110.809 168.844 110.809 170.129Z" fill="#545B66"/>
<path d="M128.791 217.301L126.37 227.821C124.88 234.244 118.364 239.55 111.754 239.55H111.568C105.052 239.55 101.049 234.244 102.818 227.821L105.611 217.301H128.791Z" fill="#F0F1EE"/>
<path d="M174.964 217.301L173.475 227.821C172.543 234.244 166.493 239.55 159.883 239.55H159.697C153.088 239.55 148.711 234.244 149.923 227.821L151.878 217.301H174.964Z" fill="#F0F1EE"/>
<path d="M221.322 217.301L220.671 227.821C220.205 234.244 214.62 239.55 208.011 239.55H207.825C201.216 239.55 196.375 234.244 197.119 227.821L198.143 217.301H221.322Z" fill="#F0F1EE"/>
<path d="M267.775 227.821V228.193C267.775 234.43 262.563 239.55 256.045 239.55H255.952C249.436 239.55 244.222 234.43 244.222 228.193V227.821L244.408 217.301H267.588L267.775 227.821Z" fill="#F0F1EE"/>
<path d="M314.879 227.821C315.623 234.244 310.784 239.55 304.173 239.55H303.987C297.378 239.55 291.793 234.244 291.327 227.821L290.675 217.301H313.855L314.879 227.821Z" fill="#F0F1EE"/>
<path d="M362.077 227.821C363.287 234.244 358.911 239.55 352.302 239.55H352.116C345.507 239.55 339.456 234.244 338.525 227.821L337.035 217.301H360.121L362.077 227.821Z" fill="#F0F1EE"/>
<path d="M126.37 227.82C124.881 234.243 129.07 239.549 135.68 239.549H135.866C142.475 239.549 148.712 234.243 149.923 227.82L151.878 217.301H128.792L126.37 227.82Z" fill="#F05543"/>
<path d="M173.475 227.82C172.542 234.243 177.197 239.549 183.714 239.549H183.9C190.51 239.549 196.376 234.243 197.12 227.82L198.143 217.301H174.965L173.475 227.82Z" fill="#F05543"/>
<path d="M220.672 227.82C220.204 234.243 225.232 239.549 231.842 239.549H232.027C238.545 239.549 243.851 234.429 244.222 228.192V227.82L244.409 217.301H221.322L220.672 227.82Z" fill="#F05543"/>
<path d="M267.589 217.301L267.775 227.82V228.192C268.148 234.429 273.455 239.549 279.97 239.549H280.157C286.765 239.549 291.792 234.243 291.327 227.82L290.675 217.301H267.589Z" fill="#F05543"/>
<path d="M313.855 217.301L314.88 227.82C315.623 234.243 321.489 239.549 328.098 239.549H328.284C334.801 239.549 339.455 234.243 338.525 227.82L337.035 217.301H313.855Z" fill="#F05543"/>
<path d="M385.627 227.82L383.207 217.301H360.121L362.077 227.82C363.286 234.243 369.524 239.549 376.133 239.549H376.319C382.93 239.55 387.117 234.244 385.627 227.82Z" fill="#F05543"/>
<path d="M400.429 239.55H400.243C393.634 239.55 387.118 234.244 385.628 227.821L383.207 217.301H406.387L409.18 227.821C410.95 234.244 406.946 239.55 400.429 239.55Z" fill="#F0F1EE"/>
<path d="M151.892 217.326L158.13 183.695H136.38L128.756 217.326H151.892Z" fill="#F2755D"/>
<path d="M198.161 217.326L201.628 183.695H179.878L175.025 217.326H198.161Z" fill="#F2755D"/>
<path d="M244.432 217.326L245.125 183.695H223.376L221.296 217.326H244.432Z" fill="#F2755D"/>
<path d="M290.702 217.326L288.623 183.695H266.874L267.567 217.326H290.702Z" fill="#F2755D"/>
<path d="M336.973 217.326L332.121 183.695H310.373L313.839 217.326H336.973Z" fill="#F2755D"/>
<path d="M383.244 217.326L375.62 183.695H353.871L360.109 217.326H383.244Z" fill="#F2755D"/>
<path d="M120.975 133.949H391.004V167.844H120.975V133.949Z" fill="#F2755D"/>
<path d="M197.677 117.617H314.323C320.074 117.617 325.315 120.919 327.797 126.107L347.747 167.803H164.253L184.203 126.107C186.685 120.918 191.926 117.617 197.677 117.617Z" fill="#DBDFE5"/>
<path d="M327.798 126.107C325.316 120.918 320.074 117.617 314.323 117.617H197.677C191.926 117.617 186.684 120.918 184.202 126.107L164.253 167.803H347.747L327.798 126.107Z" fill="#42474F"/>
<path d="M287.478 262.216H359.875V375.265H287.478V262.216Z" fill="#42474F"/>
<path d="M350.13 312.554V271.966H297.234L297.23 312.554H350.13Z" fill="#5EB5E5"/>
<path d="M302.705 322.858H298.769C297.919 322.858 297.229 323.548 297.229 324.398C297.229 325.248 297.919 325.938 298.769 325.938H302.705C303.555 325.938 304.245 325.248 304.245 324.398C304.245 323.548 303.555 322.858 302.705 322.858Z" fill="#F0F1EE"/>
<defs>
<linearGradient id="paint0_linear_64_2" x1="68.6489" y1="68.649" x2="454.195" y2="454.195" gradientUnits="userSpaceOnUse">
<stop stop-color="#F3CB4B"/>
<stop offset="1" stop-color="#E9AB38"/>
</linearGradient>
</defs>
</svg>
