<svg width="541" height="530" viewBox="0 0 541 530" fill="none" xmlns="http://www.w3.org/2000/svg">
<g clip-path="url(#clip0_14406_76791)">
<path d="M89.8338 291.06C89.8338 291.06 78.4319 294.078 88.0256 318.742C97.6193 343.393 104.727 355.845 104.727 355.845C104.727 355.845 106.296 361.504 101.638 361.882C96.9789 362.271 87.0587 359.643 84.4594 365.051C81.7596 370.66 85.4263 376.572 93.5005 382.244C101.575 387.916 118.791 400.996 120.348 402.191C121.867 403.361 123.248 406.052 120.109 406.832C116.982 407.599 94.0781 407.687 94.7688 418.567C95.4594 429.446 120.536 441.558 123.248 442.929C125.961 444.299 126.513 445.57 126.137 447.104C125.747 448.639 118.05 447.934 111.533 448.224C105.015 448.513 97.5188 449.997 98.448 456.235C99.3773 462.473 113.504 476.824 150.56 484.27L167.964 486.596L178.952 472.787C200.663 441.784 201.002 421.636 197.373 416.479C193.744 411.322 187.29 415.435 182.38 419.711C177.47 424 172.372 429.823 171.041 428.981C169.71 428.138 169.233 426.842 170.25 423.962C171.267 421.095 181.074 394.997 174.08 386.646C167.085 378.295 150.447 394.054 147.647 395.651C144.847 397.261 143.98 394.356 144.282 392.457C144.583 390.52 148.049 369.151 149.983 359.467C151.916 349.782 150.497 342.966 144.683 340.777C139.083 338.664 133.709 347.418 130.067 350.348C126.425 353.291 123.675 348.11 123.675 348.11C123.675 348.11 120.247 334.187 110.214 309.712C100.181 285.237 89.6078 291.123 89.6078 291.123" fill="#FE5A3E"/>
<path d="M168.455 490.797C161.159 472.787 148.715 440.577 137.89 412.97C127.066 385.376 117.246 360.398 110.039 342.362C106.435 333.357 103.509 326.075 101.475 321.006C100.47 318.503 99.6916 316.541 99.1516 315.195C98.9005 314.541 98.6995 314.038 98.5614 313.674C98.4358 313.334 98.373 313.145 98.373 313.145C98.373 313.145 98.461 313.309 98.6116 313.648C98.7623 314.001 98.9758 314.504 99.2521 315.145C99.8171 316.491 100.621 318.428 101.676 320.918C103.773 325.936 106.749 333.206 110.39 342.211C117.686 360.221 127.568 385.174 138.38 412.769C149.204 440.375 161.586 472.611 168.794 490.646" fill="#E0E0E0"/>
<path d="M98.1719 369.277C98.1719 369.277 98.6114 369.415 99.3523 369.742C100.106 370.069 101.173 370.572 102.479 371.214C105.103 372.484 108.682 374.346 112.6 376.458C116.455 378.559 119.933 380.458 122.596 381.917C123.801 382.571 124.818 383.112 125.634 383.552C126.35 383.929 126.739 384.168 126.727 384.193C126.714 384.231 126.287 384.068 125.534 383.741C124.781 383.414 123.713 382.911 122.407 382.257C119.795 380.948 116.242 379.049 112.324 376.936C108.456 374.861 104.965 372.987 102.291 371.553C101.085 370.912 100.068 370.371 99.2392 369.931C98.5235 369.541 98.1342 369.315 98.1468 369.277H98.1719Z" fill="#E0E0E0"/>
<path d="M128.033 383.187C127.895 383.124 131.386 375.566 135.831 366.309C140.276 357.052 143.981 349.594 144.119 349.657C144.257 349.72 140.766 357.278 136.321 366.535C131.876 375.792 128.171 383.25 128.033 383.187Z" fill="#E0E0E0"/>
<path d="M142.75 426.327C142.75 426.327 143.014 425.937 143.566 425.321C144.194 424.616 144.985 423.736 145.914 422.692C147.898 420.478 150.623 417.397 153.511 413.888C156.4 410.391 158.911 407.134 160.707 404.757C161.548 403.638 162.264 402.694 162.841 401.952C163.344 401.286 163.645 400.934 163.67 400.959C163.695 400.984 163.469 401.374 163.005 402.078C162.553 402.782 161.875 403.776 161.008 404.996C159.288 407.436 156.827 410.731 153.926 414.253C151.038 417.762 148.25 420.818 146.203 422.969C145.174 424.038 144.32 424.906 143.717 425.484C143.114 426.063 142.775 426.377 142.75 426.339V426.327Z" fill="#E0E0E0"/>
<path d="M112.964 419.699C112.964 419.699 113.391 419.711 114.157 419.837C115.024 420 116.103 420.189 117.359 420.415C120.059 420.931 123.788 421.673 127.895 422.541C132.001 423.396 135.718 424.214 138.392 424.817C139.636 425.119 140.703 425.371 141.557 425.572C142.298 425.761 142.712 425.887 142.699 425.924C142.687 425.962 142.273 425.912 141.507 425.786C140.64 425.622 139.56 425.434 138.304 425.207C135.605 424.692 131.875 423.95 127.769 423.082C123.663 422.227 119.946 421.409 117.271 420.805C116.028 420.504 114.961 420.252 114.107 420.051C113.366 419.862 112.952 419.736 112.964 419.699Z" fill="#E0E0E0"/>
<path d="M121.126 459.43C121.126 459.43 121.678 459.468 122.645 459.618C123.713 459.807 125.094 460.059 126.752 460.348C130.217 460.989 135.002 461.907 140.276 462.964C145.55 464.02 150.321 465.001 153.762 465.731C155.407 466.096 156.776 466.398 157.843 466.636C158.797 466.863 159.325 467.001 159.325 467.039C159.325 467.077 158.772 467.001 157.805 466.85C156.738 466.662 155.357 466.41 153.699 466.121C150.233 465.479 145.449 464.561 140.175 463.505C134.901 462.448 130.129 461.467 126.689 460.738C125.044 460.373 123.675 460.071 122.608 459.832C121.653 459.606 121.126 459.468 121.126 459.43Z" fill="#E0E0E0"/>
<path d="M158.459 466.599C158.459 466.599 158.785 466.108 159.463 465.291C160.204 464.398 161.171 463.253 162.326 461.857C164.737 458.952 168.065 454.927 171.594 450.387C175.135 445.846 178.236 441.646 180.459 438.602C181.526 437.13 182.418 435.923 183.096 434.992C183.724 434.137 184.088 433.684 184.113 433.697C184.138 433.722 183.837 434.225 183.272 435.106C182.694 435.999 181.853 437.269 180.773 438.828C178.626 441.948 175.574 446.186 172.021 450.726C168.479 455.279 165.102 459.279 162.615 462.121C161.372 463.542 160.342 464.674 159.614 465.442C158.898 466.209 158.484 466.624 158.446 466.599H158.459Z" fill="#E0E0E0"/>
<path d="M318.134 299.87L406.298 246.518C410.769 243.812 416.597 245.252 419.298 249.73L506.482 394.259C509.184 398.737 507.746 404.574 503.275 407.28L415.111 460.632C410.64 463.338 404.812 461.898 402.111 457.42L314.927 312.891C312.225 308.413 313.663 302.576 318.134 299.87Z" fill="#EBEBEB"/>
<path d="M472.815 393.4C466.699 397.098 458.738 395.135 455.046 389.01C451.355 382.885 453.314 374.911 459.429 371.214C465.544 367.516 473.505 369.478 477.197 375.603C480.889 381.728 478.93 389.702 472.815 393.4Z" fill="white"/>
<path d="M474.208 409.272C473.116 409.272 472.023 409.134 470.931 408.87C467.415 408.002 464.439 405.813 462.568 402.707C458.7 396.293 460.76 387.916 467.164 384.042C473.568 380.169 481.931 382.231 485.799 388.646C489.666 395.06 487.607 403.436 481.203 407.31C479.055 408.606 476.657 409.272 474.208 409.272ZM474.158 383.338C471.936 383.338 469.763 383.942 467.817 385.124C465.004 386.822 463.02 389.526 462.229 392.721C461.438 395.915 461.94 399.236 463.648 402.053C467.164 407.876 474.748 409.75 480.562 406.228C486.376 402.707 488.247 395.11 484.731 389.287C483.036 386.47 480.336 384.483 477.147 383.69C476.155 383.451 475.163 383.326 474.171 383.326L474.158 383.338Z" fill="white"/>
<path d="M356.272 296.355L347.369 301.75L346.816 300.832L354.916 295.94L353.648 293.839L354.464 293.349L356.285 296.367L356.272 296.355Z" fill="white"/>
<path d="M353.71 310.429L352.894 310.919L349.114 304.656L349.767 304.266L355.631 305.775C357.226 306.178 357.942 306.014 358.557 305.637C359.587 305.008 359.788 303.901 358.959 302.543C358.331 301.499 357.528 300.883 356.498 300.706L356.661 299.713C357.892 299.902 359.022 300.744 359.838 302.103C360.931 303.914 360.705 305.612 359.21 306.517C358.356 307.033 357.44 307.234 355.544 306.743L350.734 305.511L353.698 310.416L353.71 310.429Z" fill="white"/>
<path d="M360.905 318.906L359.825 317.12L357.489 318.541L356.937 317.623L359.285 316.201L356.246 311.171L356.912 310.768L365.664 311.925L366.279 312.944L357.778 311.862L360.114 315.736L362.173 314.491L362.713 315.384L360.654 316.629L361.734 318.415L360.917 318.906H360.905Z" fill="white"/>
<path d="M369.156 332.589L368.076 330.803L365.74 332.225L365.188 331.307L367.536 329.885L364.497 324.855L365.163 324.452L373.915 325.609L374.53 326.628L366.029 325.546L368.365 329.42L370.424 328.175L370.964 329.068L368.905 330.313L369.985 332.099L369.168 332.589H369.156Z" fill="white"/>
<path d="M374.141 340.211C372.621 341.129 370.801 340.79 369.482 338.601C368.703 337.318 368.415 335.822 368.703 334.715H369.695C369.444 335.658 369.62 336.941 370.323 338.086C371.24 339.608 372.458 339.96 373.538 339.306C374.681 338.614 374.969 337.469 373.601 335.193L372.458 333.294L377.205 331.042L380.156 335.922L379.339 336.413L376.878 332.338L373.852 333.747L374.543 334.891C376.162 337.583 375.723 339.243 374.141 340.199V340.211Z" fill="white"/>
<path d="M379.503 349.015C377.833 350.021 375.974 349.355 374.932 347.619C373.5 345.255 374.367 342.966 377.18 341.268C380.206 339.431 382.78 340.136 384.249 342.563C384.739 343.368 385.053 344.198 385.04 344.965L384.073 345.041C384.099 344.399 383.847 343.72 383.446 343.054C382.29 341.129 380.306 340.639 377.883 342.098C377.682 342.224 377.431 342.387 377.18 342.576C378.423 342.425 379.603 343.142 380.356 344.374C381.424 346.148 381.122 348.009 379.503 349.003V349.015ZM378.925 348.122C380.093 347.418 380.319 346.097 379.49 344.714C378.674 343.355 377.267 342.928 376.162 343.594C375.183 344.186 374.743 345.569 375.673 347.103C376.451 348.386 377.732 348.827 378.925 348.11V348.122Z" fill="white"/>
<path d="M386.76 361.29C385.266 362.196 383.471 361.806 382.177 359.643C381.399 358.36 381.097 356.851 381.386 355.744H382.378C382.127 356.687 382.315 357.983 383.018 359.14C383.91 360.624 385.09 361.014 386.195 360.347C387.263 359.706 387.514 358.523 386.509 356.863L386.12 356.222L386.798 355.819L391.382 356.423L388.632 351.858L389.448 351.367L392.913 357.102L392.261 357.492L387.564 356.888C388.619 358.863 388.192 360.423 386.76 361.29Z" fill="white"/>
<path d="M380.597 371.822L376.728 374.163L419.852 445.652L423.721 443.311L380.597 371.822Z" fill="white"/>
<path d="M383.096 355.933L379.227 358.274L422.351 429.763L426.22 427.422L383.096 355.933Z" fill="white"/>
<path d="M393.882 411.321L390.013 413.662L412.13 450.327L415.999 447.986L393.882 411.321Z" fill="white"/>
<path d="M386.21 277.988L397.86 297.301C399.639 300.25 398.695 304.084 395.75 305.866L384.046 312.949C381.101 314.731 377.273 313.785 375.494 310.835L363.844 291.523C362.065 288.574 363.009 284.74 365.954 282.958L377.658 275.875C380.603 274.093 384.431 275.039 386.21 277.988Z" fill="#E0E0E0"/>
<path d="M366.795 282.432L368.226 281.564L377.544 297.009C378.624 298.795 380.947 299.361 382.717 298.292C384.5 297.21 385.078 294.858 383.998 293.11L374.681 277.665L376.112 276.797L385.43 292.242C386.987 294.82 386.158 298.178 383.584 299.738C381.009 301.298 377.657 300.468 376.1 297.889L366.782 282.444L366.795 282.432Z" fill="#EBEBEB"/>
<path d="M383.893 298.563L382.452 299.433L388.839 310.042L390.28 309.172L383.893 298.563Z" fill="#EBEBEB"/>
<path d="M450.088 342.188L403.555 265.047L396.945 269.047L443.479 346.188L450.088 342.188Z" fill="white"/>
<path d="M189.023 9.72212C191.233 23.1545 198.001 47.5541 196.117 61.0368C194.234 74.5195 190.843 88.7693 180.132 97.1457C166.935 107.472 148.852 108.729 133.997 116.464C110.716 128.601 98.2093 155.604 96.3509 181.815C94.4924 208.038 101.537 233.972 108.519 259.303L239.05 246.801C239.05 246.801 227.523 195.21 235.208 178.557C242.905 161.905 292.255 136.814 300.43 94.2655C307.788 55.9682 299.475 0 299.475 0L189.01 9.72212H189.023Z" fill="#F5F5F5"/>
<path d="M228.126 37.1277L225.777 34.4991C225.551 34.5494 225.325 34.5871 225.074 34.6122L222.688 34.8764L223.002 37.6936L222.061 37.7943L221.081 28.9022L224.409 28.5375C226.669 28.286 228.163 29.2795 228.377 31.1787C228.527 32.5748 227.9 33.6312 226.656 34.1972L229.155 37.0019L228.126 37.1151V37.1277ZM227.435 31.2919C227.272 29.8707 226.255 29.1663 224.471 29.355L222.111 29.6191L222.6 34.0714L224.961 33.8073C226.732 33.6061 227.586 32.6754 227.435 31.2793V31.2919Z" fill="#E0E0E0"/>
<path d="M237.431 35.2788L237.519 36.0963L231.24 36.7881L230.261 27.8961L236.351 27.2169L236.439 28.0344L231.29 28.6004L231.642 31.7572L236.238 31.2541L236.326 32.0591L231.73 32.5622L232.094 35.87L237.431 35.2788Z" fill="#E0E0E0"/>
<path d="M238.398 31.4931C238.109 28.8897 239.88 26.7515 242.554 26.4497C243.848 26.3113 245.066 26.6132 245.945 27.3804L245.417 28.047C244.614 27.393 243.697 27.1666 242.68 27.2798C240.533 27.5187 239.101 29.267 239.327 31.3799C239.566 33.4929 241.349 34.8889 243.484 34.65C244.501 34.5368 245.355 34.1217 245.995 33.2916L246.661 33.8199C245.97 34.7757 244.852 35.3417 243.546 35.4926C240.884 35.7819 238.687 34.084 238.398 31.4805V31.4931Z" fill="#E0E0E0"/>
<path d="M254.973 33.3294L255.061 34.1469L248.782 34.8386L247.803 25.9466L253.893 25.2675L253.981 26.085L248.832 26.6509L249.184 29.8204L253.78 29.3173L253.868 30.1222L249.272 30.6253L249.636 33.9331L254.973 33.342V33.3294Z" fill="#E0E0E0"/>
<path d="M256.292 25.0033L257.234 24.9027L258.213 33.7947L257.271 33.8954L256.292 25.0033Z" fill="#E0E0E0"/>
<path d="M267.404 26.8522C267.618 28.7513 266.375 30.0342 264.114 30.2857L261.728 30.5498L262.042 33.3545L261.101 33.4551L260.121 24.5631L263.449 24.1984C265.709 23.9468 267.203 24.9404 267.417 26.8396L267.404 26.8522ZM266.462 26.9528C266.299 25.5316 265.282 24.8272 263.499 25.0159L261.138 25.28L261.628 29.7323L263.989 29.4682C265.759 29.267 266.613 28.3488 266.462 26.9528Z" fill="#E0E0E0"/>
<path d="M270.632 24.2361L267.505 24.5757L267.417 23.7582L274.6 22.9658L274.688 23.7833L271.561 24.1355L272.452 32.21L271.511 32.3106L270.619 24.2361H270.632Z" fill="#E0E0E0"/>
<path d="M262.596 51.2141C262.608 51.3901 250.767 52.7107 236.138 54.1445C221.496 55.5783 209.63 56.5971 209.605 56.421C209.592 56.2449 221.433 54.9243 236.075 53.4905C250.704 52.0567 262.583 51.038 262.608 51.2141H262.596Z" fill="#E0E0E0"/>
<path d="M263.663 61.8543C263.676 62.0304 251.834 63.351 237.205 64.7848C222.563 66.2185 210.697 67.2373 210.672 67.0612C210.659 66.8851 222.501 65.5645 237.142 64.1307C251.771 62.697 263.651 61.6782 263.676 61.8543H263.663Z" fill="#E0E0E0"/>
<path d="M261.44 73.4756C261.453 73.6516 249.612 74.9722 234.983 76.406C220.341 77.8398 208.474 78.8586 208.449 78.6825C208.437 78.5064 220.278 77.1858 234.92 75.752C249.549 74.3182 261.428 73.2995 261.453 73.4756H261.44Z" fill="#E0E0E0"/>
<path d="M255.388 86.1156C255.4 86.2917 243.559 87.6123 228.93 89.0461C214.288 90.4798 202.422 91.4986 202.396 91.3225C202.384 91.1464 214.225 89.8258 228.867 88.392C243.496 86.9582 255.375 85.9395 255.4 86.1156H255.388Z" fill="#E0E0E0"/>
<path d="M244.262 99.9378C244.274 100.114 232.433 101.434 217.804 102.868C203.162 104.302 191.296 105.321 191.271 105.145C191.245 104.969 203.099 103.648 217.741 102.214C232.37 100.78 244.249 99.7617 244.274 99.9378H244.262Z" fill="#E0E0E0"/>
<path d="M286.429 49.1766C286.442 49.3526 283.541 49.7174 279.937 49.9689C276.346 50.233 273.42 50.2959 273.407 50.1073C273.395 49.9312 276.295 49.5665 279.899 49.3149C283.491 49.0508 286.416 48.9879 286.429 49.1766Z" fill="#E0E0E0"/>
<path d="M288.161 58.4711C288.174 58.6471 285.273 59.0119 281.669 59.2634C278.078 59.5275 275.152 59.5904 275.14 59.4018C275.127 59.2257 278.028 58.8609 281.632 58.6094C285.223 58.3453 288.149 58.2824 288.161 58.4711Z" fill="#E0E0E0"/>
<path d="M288.061 71.9286C288.061 72.1046 285.161 72.4442 281.557 72.6958C277.965 72.9473 275.002 73.0102 275.039 72.8593C274.964 72.6455 277.915 72.2933 281.519 72.0418C285.123 71.7902 288.049 71.7399 288.061 71.9286Z" fill="#E0E0E0"/>
<path d="M286.115 83.7511C286.115 83.9272 283.214 84.2667 279.61 84.5183C276.019 84.7698 273.056 84.8327 273.093 84.6818C273.018 84.468 275.969 84.1158 279.573 83.8643C283.177 83.6127 286.102 83.5624 286.115 83.7511Z" fill="#E0E0E0"/>
<path d="M278.882 96.2779C278.882 96.454 275.981 96.7936 272.377 97.0451C268.786 97.2966 265.822 97.3595 265.86 97.2086C265.784 96.9948 268.735 96.6426 272.339 96.3911C275.943 96.1395 278.869 96.0892 278.882 96.2779Z" fill="#E0E0E0"/>
<path d="M235.661 115.634C235.673 115.81 217.854 117.621 195.854 119.671C173.842 121.721 155.998 123.231 155.985 123.055C155.973 122.878 173.791 121.067 195.804 119.017C217.804 116.967 235.661 115.458 235.673 115.634H235.661Z" fill="#E0E0E0"/>
<path d="M229.294 128.576C229.294 128.576 228.992 128.639 228.427 128.714C227.787 128.777 226.958 128.865 225.916 128.966C223.656 129.167 220.529 129.444 216.686 129.783C208.826 130.412 198.089 131.28 186.223 132.236C174.319 133.154 163.544 133.946 155.734 134.462C151.891 134.701 148.752 134.902 146.492 135.041C145.399 135.091 144.558 135.141 143.968 135.154C143.39 135.154 143.089 135.154 143.089 135.141C143.089 135.116 143.39 135.078 143.968 135.028C144.608 134.965 145.437 134.89 146.479 134.789C148.74 134.6 151.866 134.336 155.709 134.009C163.57 133.38 174.319 132.525 186.185 131.582C198.052 130.701 208.8 129.909 216.661 129.318C220.504 129.066 223.643 128.853 225.903 128.702C226.946 128.651 227.774 128.601 228.415 128.563C228.992 128.538 229.294 128.538 229.294 128.563V128.576Z" fill="#E0E0E0"/>
<path d="M215.519 142.31C215.657 142.398 214.388 142.549 212.279 142.788C210.144 143.014 207.055 143.316 203.225 143.656C195.578 144.335 185.017 145.215 173.339 146.134C161.661 147.052 151.088 147.832 143.428 148.36C139.661 148.611 136.572 148.813 134.362 148.951C133.345 149.001 132.528 149.052 131.888 149.077C131.323 149.102 131.021 149.102 131.021 149.077C131.021 149.052 131.31 149.014 131.875 148.951C132.503 148.888 133.319 148.8 134.337 148.699C136.547 148.498 139.623 148.234 143.39 147.894C151.113 147.266 161.648 146.423 173.289 145.48C184.929 144.587 195.465 143.782 203.187 143.203C210.169 142.7 213.899 142.436 215.519 142.323V142.31Z" fill="#E0E0E0"/>
<path d="M266.174 114.653C266.174 114.829 263.273 115.169 259.669 115.42C256.078 115.672 253.114 115.735 253.152 115.584C253.076 115.37 256.027 115.018 259.631 114.766C263.235 114.515 266.161 114.464 266.174 114.653Z" fill="#E0E0E0"/>
<path d="M255.375 124.551C255.375 124.727 252.474 125.067 248.87 125.318C245.279 125.57 242.315 125.633 242.353 125.482C242.278 125.268 245.229 124.916 248.832 124.664C252.436 124.413 255.362 124.363 255.375 124.551Z" fill="#E0E0E0"/>
<path d="M241.386 140.235C241.386 140.411 238.486 140.751 234.882 141.002C231.291 141.254 228.327 141.317 228.365 141.166C228.289 140.952 231.24 140.6 234.844 140.348C238.448 140.097 241.374 140.046 241.386 140.235Z" fill="#E0E0E0"/>
<path d="M213.723 166.307C213.735 166.483 191.635 168.42 164.361 170.621C137.074 172.822 114.961 174.47 114.936 174.281C114.923 174.105 137.024 172.168 164.298 169.967C191.572 167.766 213.698 166.119 213.71 166.307H213.723Z" fill="#E0E0E0"/>
<path d="M206.414 192.505C206.427 192.682 199.194 193.361 190.253 194.015C181.313 194.669 174.055 195.046 174.042 194.87C174.029 194.694 181.262 194.015 190.203 193.361C199.144 192.707 206.402 192.329 206.414 192.505Z" fill="#E0E0E0"/>
<path d="M541 528.302C541 528.478 419.886 528.629 270.519 528.629C121.152 528.629 0.0126953 528.478 0.0126953 528.302C0.0126953 528.126 121.101 527.975 270.519 527.975C419.937 527.975 541 528.126 541 528.302Z" fill="#263238"/>
<path d="M485.51 77.4627L359.88 95.2365C355.217 95.8962 351.971 100.217 352.63 104.887L369.338 223.357C369.996 228.027 374.31 231.278 378.973 230.619L504.603 212.845C509.266 212.185 512.512 207.864 511.853 203.194L495.145 84.7242C494.487 80.0541 490.173 76.803 485.51 77.4627Z" fill="#A9D26A"/>
<path d="M458.989 171.061C458.989 171.061 458.663 171.149 458.035 171.263C457.357 171.376 456.44 171.527 455.285 171.715C452.823 172.093 449.37 172.621 445.088 173.288C436.374 174.57 424.356 176.331 410.82 178.331L410.543 178.369L410.468 178.092C409.953 176.319 409.413 174.432 408.861 172.52C404.202 156.195 400.033 141.618 397.308 132.098L397.534 132.248C393.667 132.764 390.578 133.179 388.393 133.468C387.376 133.594 386.559 133.695 385.957 133.77C385.404 133.833 385.115 133.858 385.115 133.833C385.115 133.808 385.391 133.758 385.944 133.657C386.547 133.556 387.35 133.418 388.368 133.255C390.552 132.915 393.629 132.437 397.484 131.846L397.66 131.821L397.71 131.997C400.485 141.505 404.73 156.057 409.489 172.357C410.041 174.269 410.581 176.155 411.096 177.929L410.732 177.702C424.268 175.79 436.311 174.105 445.025 172.873C449.32 172.294 452.786 171.829 455.247 171.502C456.402 171.363 457.331 171.25 458.01 171.162C458.637 171.087 458.976 171.061 458.976 171.087L458.989 171.061Z" fill="#EBEBEB"/>
<path d="M407.944 168.194C407.944 168.194 408.019 168.169 408.183 168.131C408.371 168.093 408.61 168.056 408.886 168.005C409.551 167.892 410.468 167.741 411.636 167.552C414.084 167.175 417.575 166.647 421.945 165.98C430.798 164.672 443.179 162.849 457.507 160.748L457.243 161.05C457.432 154.9 457.645 148.247 457.859 141.367C457.972 137.833 458.085 134.349 458.198 131.029L458.562 131.356C441.911 133.707 427.207 135.783 416.608 137.279C411.372 137.996 407.14 138.562 404.177 138.965C402.758 139.141 401.64 139.292 400.824 139.392C400.472 139.43 400.184 139.468 399.958 139.493C399.757 139.505 399.656 139.518 399.656 139.493C399.656 139.493 399.757 139.455 399.945 139.417C400.171 139.38 400.46 139.329 400.812 139.267C401.615 139.141 402.733 138.952 404.152 138.726C407.115 138.273 411.322 137.631 416.558 136.839C427.144 135.292 441.836 133.129 458.474 130.701L458.851 130.651V131.041C458.738 134.361 458.625 137.833 458.512 141.379C458.286 148.259 458.072 154.912 457.871 161.063V161.327L457.608 161.365C443.267 163.377 430.873 165.125 422.008 166.37C417.638 166.961 414.135 167.427 411.673 167.766C410.506 167.917 409.576 168.03 408.911 168.106C408.622 168.131 408.383 168.156 408.195 168.181C408.032 168.194 407.957 168.194 407.944 168.181V168.194Z" fill="#EBEBEB"/>
<path d="M424.708 189.374C424.708 189.374 424.583 188.959 424.269 188.267C423.955 187.588 423.314 186.644 422.134 186.016C420.991 185.387 419.258 185.198 417.726 186.041C416.207 186.833 415.077 188.732 415.378 190.719C415.642 192.707 417.262 194.216 418.944 194.543C420.64 194.92 422.259 194.254 423.176 193.323C424.13 192.392 424.482 191.298 424.583 190.556C424.696 189.801 424.633 189.374 424.696 189.374C424.721 189.374 424.871 189.789 424.846 190.594C424.809 191.373 424.52 192.581 423.515 193.65C422.548 194.719 420.765 195.524 418.831 195.134C416.923 194.794 415.039 193.084 414.738 190.808C414.386 188.531 415.705 186.368 417.45 185.5C419.196 184.582 421.142 184.859 422.36 185.601C423.628 186.343 424.243 187.424 424.495 188.166C424.746 188.921 424.721 189.374 424.696 189.374H424.708Z" fill="#EBEBEB"/>
<path d="M455.736 184.909C455.736 184.909 455.611 184.494 455.297 183.802C454.983 183.123 454.343 182.18 453.162 181.551C452.02 180.922 450.287 180.733 448.755 181.576C447.235 182.368 446.105 184.267 446.406 186.255C446.67 188.242 448.29 189.751 449.973 190.078C451.668 190.455 453.288 189.789 454.204 188.858C455.159 187.927 455.51 186.833 455.611 186.091C455.724 185.337 455.661 184.909 455.724 184.909C455.749 184.909 455.9 185.324 455.875 186.129C455.837 186.909 455.548 188.116 454.544 189.185C453.577 190.254 451.793 191.059 449.86 190.669C447.951 190.33 446.067 188.619 445.766 186.343C445.414 184.066 446.733 181.903 448.478 181.035C450.224 180.117 452.17 180.394 453.388 181.136C454.657 181.878 455.272 182.959 455.523 183.701C455.774 184.456 455.749 184.909 455.724 184.909H455.736Z" fill="#EBEBEB"/>
<path d="M466.782 134.214C471.017 127.8 469.259 119.162 462.856 114.921C456.452 110.679 447.828 112.439 443.593 118.853C439.358 125.266 441.116 133.904 447.519 138.146C453.923 142.388 462.547 140.627 466.782 134.214Z" fill="#FAFAFA"/>
<path d="M461.915 120.313C461.99 120.363 461.425 121.306 460.446 122.79C459.479 124.275 458.098 126.299 456.528 128.513C455.95 129.331 455.385 130.123 454.858 130.865L454.682 131.117L454.431 130.953C451.078 128.739 448.717 127.067 448.793 126.941C448.868 126.815 451.38 128.287 454.77 130.425L454.343 130.513C454.87 129.771 455.423 128.966 455.988 128.148C457.545 125.935 458.989 123.96 460.057 122.539C461.124 121.118 461.827 120.275 461.902 120.325L461.915 120.313Z" fill="#A9D26A"/>
<path d="M359.247 530L201.241 529.271C182.242 529.182 166.897 513.688 166.985 494.646L168.655 97.8878C168.73 78.846 184.213 63.4768 203.237 63.5648L361.244 64.2943C380.243 64.3823 395.588 79.8773 395.5 98.9191L393.83 495.677C393.754 514.719 378.271 530.088 359.247 530Z" fill="#292929"/>
<path d="M359.336 75.4376L328.697 75.2992C324.591 75.2866 321.238 78.7579 321.226 83.0593L321.2 88.631C321.188 92.9324 317.835 96.4036 313.729 96.3911L254.02 96.1144C249.913 96.1018 246.598 92.5928 246.611 88.2914L246.636 82.7197C246.649 78.4183 243.333 74.9093 239.227 74.8968L228.453 74.8464L201.644 74.7207C188.333 74.6578 177.484 85.4238 177.433 98.7681L175.801 486.03C175.738 499.362 186.487 510.216 199.798 510.279L357.491 511.008C370.801 511.071 381.651 500.305 381.701 486.961L383.333 99.6988C383.383 86.3671 372.647 75.513 359.336 75.4501V75.4376Z" fill="#FAFAFA"/>
<path d="M198.227 116.59C198.064 116.59 197.901 116.527 197.775 116.401L195.377 113.886C195.264 113.76 195.201 113.609 195.201 113.433C195.201 113.27 195.277 113.106 195.39 112.993L197.788 110.691C198.039 110.452 198.441 110.465 198.68 110.716C198.918 110.968 198.906 111.37 198.654 111.609L196.708 113.471L198.68 115.533C198.918 115.785 198.906 116.187 198.654 116.426C198.529 116.54 198.378 116.603 198.215 116.603L198.227 116.59Z" fill="#263238"/>
<path d="M347.13 443.872H216.762C205.582 443.872 196.52 452.949 196.52 464.146V467.781C196.52 478.978 205.582 488.055 216.762 488.055H347.13C358.31 488.055 367.372 478.978 367.372 467.781V464.146C367.372 452.949 358.31 443.872 347.13 443.872Z" fill="#A9D26A"/>
<path d="M261.628 460.838H265.596C268.71 460.838 270.82 462.851 270.82 465.718C270.82 468.586 268.723 470.598 265.596 470.598H261.628V460.826V460.838ZM265.546 469.718C268.133 469.718 269.803 468.07 269.803 465.731C269.803 463.392 268.133 461.744 265.546 461.744H262.658V469.73H265.546V469.718Z" fill="#FAFAFA"/>
<path d="M272.265 465.718C272.265 462.876 274.437 460.75 277.388 460.75C280.339 460.75 282.499 462.863 282.499 465.718C282.499 468.573 280.314 470.686 277.388 470.686C274.462 470.686 272.265 468.561 272.265 465.718ZM281.469 465.718C281.469 463.392 279.724 461.669 277.388 461.669C275.052 461.669 273.282 463.379 273.282 465.718C273.282 468.058 275.04 469.768 277.388 469.768C279.736 469.768 281.469 468.058 281.469 465.718Z" fill="#FAFAFA"/>
<path d="M292.958 460.838V470.611H292.104L285.838 462.687V470.611H284.809V460.838H285.662L291.941 468.762V460.838H292.958Z" fill="#FAFAFA"/>
<path d="M303.03 469.718V470.611H296.136V460.838H302.816V461.731H297.165V465.203H302.213V466.083H297.165V469.705H303.03V469.718Z" fill="#FAFAFA"/>
<path d="M222.136 308.777H216.837V306.262H230.411V308.777H225.112V322.285H222.136V308.777Z" fill="#A9D26A"/>
<path d="M244.4 315.28V322.285H241.537V315.644C241.537 313.468 240.457 312.412 238.636 312.412C236.602 312.412 235.233 313.644 235.233 316.097V322.285H232.37V305.293H235.233V311.469C236.175 310.462 237.606 309.909 239.302 309.909C242.227 309.909 244.4 311.582 244.4 315.267V315.28Z" fill="#A9D26A"/>
<path d="M258.251 315.129V322.298H255.551V320.814C254.861 321.87 253.542 322.461 251.709 322.461C248.921 322.461 247.163 320.927 247.163 318.801C247.163 316.676 248.532 315.166 252.236 315.166H255.388V314.978C255.388 313.305 254.383 312.324 252.349 312.324C250.98 312.324 249.561 312.777 248.645 313.531L247.527 311.444C248.833 310.437 250.729 309.934 252.688 309.934C256.204 309.934 258.238 311.607 258.238 315.129H258.251ZM255.388 318.474V317.053H252.437C250.491 317.053 249.963 317.782 249.963 318.675C249.963 319.707 250.83 320.373 252.299 320.373C253.768 320.373 254.911 319.732 255.388 318.474Z" fill="#A9D26A"/>
<path d="M273.922 315.279V322.285H271.059V315.644C271.059 313.468 269.979 312.412 268.159 312.412C266.124 312.412 264.756 313.644 264.756 316.097V322.285H261.893V310.06H264.617V311.645C265.559 310.525 267.041 309.922 268.824 309.922C271.75 309.922 273.922 311.594 273.922 315.279Z" fill="#A9D26A"/>
<path d="M282.536 317.053L280.414 319.065V322.298H277.551V305.306H280.414V315.569L286.328 310.073H289.756L284.658 315.204L290.234 322.298H286.755L282.523 317.053H282.536Z" fill="#A9D26A"/>
<path d="M309.835 310.06L304.121 323.266C303.004 326.033 301.447 326.888 299.412 326.888C298.207 326.888 296.926 326.473 296.147 325.769L297.29 323.668C297.843 324.197 298.621 324.511 299.387 324.511C300.392 324.511 300.982 324.033 301.534 322.813L301.735 322.335L296.411 310.06H299.387L303.23 319.103L307.097 310.06H309.835Z" fill="#A9D26A"/>
<path d="M310.263 316.172C310.263 312.513 313 309.922 316.755 309.922C320.509 309.922 323.272 312.513 323.272 316.172C323.272 319.832 320.547 322.448 316.755 322.448C312.962 322.448 310.263 319.832 310.263 316.172ZM320.384 316.172C320.384 313.833 318.827 312.349 316.755 312.349C314.683 312.349 313.138 313.833 313.138 316.172C313.138 318.512 314.695 319.996 316.755 319.996C318.814 319.996 320.384 318.512 320.384 316.172Z" fill="#A9D26A"/>
<path d="M337.825 310.06V322.285H335.1V320.725C334.183 321.845 332.752 322.449 331.17 322.449C328.043 322.449 325.908 320.725 325.908 317.04V310.06H328.771V316.65C328.771 318.877 329.826 319.921 331.634 319.921C333.618 319.921 334.974 318.688 334.974 316.235V310.06H337.838H337.825Z" fill="#A9D26A"/>
<path d="M341.039 320.663C341.039 319.682 341.818 318.902 342.885 318.902C343.952 318.902 344.693 319.682 344.693 320.663C344.693 321.644 343.94 322.448 342.885 322.448C341.83 322.448 341.039 321.644 341.039 320.663ZM341.202 306.262H344.58L344.003 316.977H341.742L341.19 306.262H341.202Z" fill="#A9D26A"/>
<path d="M283.076 282.277C301.232 282.277 315.95 267.535 315.95 249.35C315.95 231.165 301.232 216.423 283.076 216.423C264.92 216.423 250.201 231.165 250.201 249.35C250.201 267.535 264.92 282.277 283.076 282.277Z" fill="#A9D26A"/>
<path d="M299.262 235.453C299.677 235.792 293.536 244.068 285.55 253.928C283.842 256.004 282.21 257.991 280.703 259.814L280.037 260.619L279.322 259.89C273.081 253.45 268.811 248.659 269.113 248.357C269.414 248.055 274.186 252.318 280.628 258.582L279.259 258.657C280.741 256.808 282.335 254.796 284.018 252.708C292.017 242.848 298.835 235.126 299.262 235.478V235.453Z" fill="white"/>
<path d="M329.777 236.081C328.797 232.623 324.314 232.962 324.314 232.962L324.44 235.364C327.039 234.912 328.647 237.968 328.647 237.968L329.777 236.094V236.081Z" fill="#A9D26A"/>
<path d="M234.555 243.338C233.576 239.88 229.093 240.219 229.093 240.219L229.218 242.621C231.818 242.169 233.425 245.212 233.425 245.212L234.555 243.338Z" fill="#E0E0E0"/>
<path d="M287.006 195.482C292.218 197.067 295.457 191.043 295.457 191.043L292.293 189.232C290.748 192.917 285.55 192.489 285.55 192.489L287.019 195.47L287.006 195.482Z" fill="#E0E0E0"/>
<path d="M258.112 201.96C255.688 202.211 255.399 205.267 255.399 205.267L257.019 205.456C257.019 203.67 259.242 202.928 259.242 202.928L258.112 201.96Z" fill="#A9D26A"/>
<path d="M357.979 224.234C358.331 221.819 355.455 220.788 355.455 220.788L354.865 222.309C356.598 222.75 356.749 225.089 356.749 225.089L357.967 224.234H357.979Z" fill="#E0E0E0"/>
<path d="M272.252 170.177C272.603 167.762 269.728 166.731 269.728 166.731L269.138 168.253C270.871 168.693 271.021 171.032 271.021 171.032L272.239 170.177H272.252Z" fill="#A9D26A"/>
<path d="M212.379 209.129C211.939 212.914 216.95 213.832 216.95 213.832L217.854 211.355C214.853 211.078 214.413 207.544 214.413 207.544L212.379 209.141V209.129Z" fill="#A9D26A"/>
<path d="M323.836 195.407C326.272 195.545 327.051 192.59 327.051 192.59L325.481 192.137C325.192 193.91 322.882 194.262 322.882 194.262L323.836 195.407Z" fill="#A9D26A"/>
<path d="M337.122 205.343C337.122 205.456 336.218 205.544 335.113 205.544C334.008 205.544 333.104 205.456 333.104 205.343C333.104 205.23 334.008 205.142 335.113 205.142C336.218 205.142 337.122 205.23 337.122 205.343Z" fill="#E0E0E0"/>
<path d="M339.258 199.872C339.371 199.872 339.458 200.79 339.458 201.909C339.458 203.029 339.371 203.947 339.258 203.947C339.145 203.947 339.057 203.029 339.057 201.909C339.057 200.79 339.145 199.872 339.258 199.872Z" fill="#E0E0E0"/>
<path d="M341.529 205.205C341.529 205.091 342.433 205.003 343.538 205.003C344.643 205.003 345.548 205.091 345.548 205.205C345.548 205.318 344.643 205.406 343.538 205.406C342.433 205.406 341.529 205.318 341.529 205.205Z" fill="#E0E0E0"/>
<path d="M339.395 210.676C339.282 210.676 339.194 209.757 339.194 208.638C339.194 207.519 339.282 206.601 339.395 206.601C339.508 206.601 339.596 207.519 339.596 208.638C339.596 209.757 339.508 210.676 339.395 210.676Z" fill="#E0E0E0"/>
<path d="M342.647 208.336C342.559 208.412 342.182 208.085 341.781 207.607C341.391 207.129 341.14 206.689 341.215 206.626C341.303 206.55 341.68 206.877 342.082 207.355C342.471 207.833 342.722 208.273 342.647 208.336Z" fill="#E0E0E0"/>
<path d="M342.458 202.123C342.534 202.199 342.27 202.601 341.856 203.016C341.441 203.431 341.052 203.708 340.977 203.632C340.901 203.557 341.165 203.154 341.579 202.739C341.994 202.324 342.383 202.048 342.458 202.123Z" fill="#E0E0E0"/>
<path d="M337.85 203.708C337.775 203.796 337.41 203.595 337.021 203.268C336.632 202.941 336.368 202.614 336.444 202.526C336.519 202.438 336.883 202.639 337.272 202.966C337.662 203.293 337.925 203.62 337.85 203.708Z" fill="#E0E0E0"/>
<path d="M337.674 206.45C337.75 206.525 337.524 206.915 337.147 207.318C336.77 207.72 336.406 207.997 336.331 207.921C336.255 207.846 336.482 207.456 336.858 207.053C337.235 206.651 337.599 206.374 337.674 206.45Z" fill="#E0E0E0"/>
<path d="M227.737 194.124C227.737 194.237 226.833 194.325 225.728 194.325C224.623 194.325 223.719 194.237 223.719 194.124C223.719 194.011 224.623 193.923 225.728 193.923C226.833 193.923 227.737 194.011 227.737 194.124Z" fill="#A9D26A"/>
<path d="M229.871 188.653C229.984 188.653 230.072 189.571 230.072 190.691C230.072 191.81 229.984 192.728 229.871 192.728C229.758 192.728 229.67 191.81 229.67 190.691C229.67 189.571 229.758 188.653 229.871 188.653Z" fill="#A9D26A"/>
<path d="M232.132 193.998C232.132 193.885 233.036 193.797 234.141 193.797C235.246 193.797 236.15 193.885 236.15 193.998C236.15 194.111 235.246 194.2 234.141 194.2C233.036 194.2 232.132 194.111 232.132 193.998Z" fill="#A9D26A"/>
<path d="M230.01 199.469C229.896 199.469 229.809 198.551 229.809 197.432C229.809 196.313 229.896 195.394 230.01 195.394C230.123 195.394 230.21 196.313 230.21 197.432C230.21 198.551 230.123 199.469 230.01 199.469Z" fill="#A9D26A"/>
<path d="M233.25 197.117C233.162 197.193 232.785 196.866 232.383 196.388C231.994 195.91 231.743 195.47 231.818 195.407C231.906 195.331 232.283 195.658 232.684 196.136C233.074 196.614 233.325 197.055 233.25 197.117Z" fill="#A9D26A"/>
<path d="M233.061 190.917C233.136 190.992 232.873 191.395 232.458 191.81C232.044 192.225 231.655 192.502 231.579 192.426C231.504 192.351 231.768 191.948 232.182 191.533C232.596 191.118 232.986 190.841 233.061 190.917Z" fill="#A9D26A"/>
<path d="M228.452 192.502C228.377 192.59 228.013 192.388 227.624 192.061C227.234 191.734 226.971 191.407 227.046 191.319C227.121 191.231 227.486 191.433 227.875 191.76C228.264 192.087 228.528 192.414 228.452 192.502Z" fill="#A9D26A"/>
<path d="M228.277 195.231C228.352 195.306 228.126 195.696 227.75 196.099C227.373 196.501 227.009 196.778 226.933 196.702C226.858 196.627 227.084 196.237 227.461 195.835C227.837 195.432 228.202 195.155 228.277 195.231Z" fill="#A9D26A"/>
<path d="M366.706 109.861C366.706 110.037 362.738 110.188 357.841 110.188C352.944 110.188 348.976 110.037 348.976 109.861C348.976 109.685 352.944 109.534 357.841 109.534C362.738 109.534 366.706 109.685 366.706 109.861Z" fill="#263238"/>
<path d="M366.706 113.559C366.706 113.735 362.738 113.886 357.841 113.886C352.944 113.886 348.976 113.735 348.976 113.559C348.976 113.383 352.944 113.232 357.841 113.232C362.738 113.232 366.706 113.383 366.706 113.559Z" fill="#263238"/>
<path d="M366.706 117.257C366.706 117.433 362.738 117.584 357.841 117.584C352.944 117.584 348.976 117.433 348.976 117.257C348.976 117.08 352.944 116.93 357.841 116.93C362.738 116.93 366.706 117.08 366.706 117.257Z" fill="#263238"/>
<path d="M487.054 445.368C490.884 447.041 493.71 450.588 495.129 454.525C496.548 458.461 496.673 462.763 496.196 466.926C495.279 474.975 490.721 483.1 485.799 489.539C479.03 483.628 477.473 473.302 477.009 468.02C476.28 459.669 480.022 444.123 487.042 445.368" fill="#A9D26A"/>
<path d="M493.659 502.821C492.579 498.268 494.463 493.275 497.954 490.168C501.445 487.062 506.317 485.741 510.963 486.093C513.11 486.257 515.446 486.886 516.677 488.659C517.832 490.319 517.694 492.633 516.765 494.432C515.835 496.218 514.215 497.564 512.495 498.633C506.631 502.318 500.277 504.808 493.647 502.808" fill="#A9D26A"/>
<path d="M484.982 527.51C484.982 527.51 485.033 526.919 485.221 525.862C485.434 524.705 485.711 523.196 486.037 521.397C486.791 517.662 487.745 512.304 490.646 507.122C493.509 501.94 497.502 498.13 500.88 496.23C502.55 495.262 504.019 494.683 505.049 494.382C505.564 494.206 505.978 494.143 506.254 494.08C506.531 494.017 506.681 494.004 506.681 494.017C506.731 494.143 504.333 494.583 501.093 496.583C497.841 498.532 493.973 502.305 491.161 507.399C488.323 512.48 487.293 517.762 486.452 521.473C486.037 523.347 485.711 524.869 485.447 525.912C485.183 526.956 485.02 527.522 484.982 527.522V527.51Z" fill="#263238"/>
<path d="M485.246 457.455C485.246 457.455 485.296 457.707 485.334 458.172C485.372 458.713 485.41 459.392 485.46 460.247C485.56 462.046 485.661 464.662 485.761 467.882C485.975 474.334 486.138 483.251 486.088 493.099C486.037 502.947 485.799 511.864 485.535 518.316C485.41 521.536 485.271 524.152 485.158 525.95C485.096 526.805 485.058 527.485 485.02 528.025C484.983 528.503 485.045 528.025 485.02 528.025C485.108 527.308 484.907 528.491 484.907 528.025C484.907 527.485 484.92 526.805 484.932 525.95C484.983 524.076 485.045 521.485 485.121 518.316C485.284 511.864 485.46 502.959 485.497 493.111C485.535 483.276 485.435 474.359 485.334 467.907C485.284 464.737 485.246 462.146 485.221 460.272C485.221 459.417 485.221 458.725 485.209 458.197C485.209 457.719 485.221 457.468 485.246 457.468V457.455Z" fill="#263238"/>
<path d="M481.956 507.726C480.411 497.991 473.857 489.175 464.979 484.924C462.718 483.842 459.767 483.125 457.909 484.81C456.051 486.496 456.465 489.527 457.369 491.866C461.161 501.613 471.345 508.506 481.793 508.38" fill="#A9D26A"/>
<path d="M466.084 492.558C466.084 492.558 466.611 492.747 467.515 493.187C467.968 493.401 468.533 493.677 469.135 494.055C469.738 494.432 470.479 494.809 471.207 495.35C471.948 495.878 472.764 496.432 473.568 497.136C474.409 497.79 475.226 498.582 476.079 499.425C477.75 501.148 479.42 503.198 480.864 505.575C482.27 507.965 483.3 510.417 484.016 512.706C484.342 513.864 484.643 514.958 484.807 516.014C485.033 517.058 485.121 518.052 485.209 518.945C485.334 519.838 485.296 520.668 485.322 521.385C485.359 522.102 485.309 522.718 485.271 523.221C485.196 524.227 485.133 524.781 485.096 524.781C484.957 524.781 485.196 522.542 484.794 518.982C484.681 518.089 484.568 517.121 484.33 516.102C484.154 515.071 483.827 513.989 483.501 512.857C482.772 510.619 481.755 508.216 480.361 505.865C478.955 503.538 477.323 501.5 475.703 499.79C474.874 498.947 474.083 498.155 473.267 497.501C472.488 496.796 471.697 496.218 470.981 495.69C468.068 493.602 466.034 492.671 466.097 492.558H466.084Z" fill="#263238"/>
<path d="M279.468 362.671L253.955 357.3L256.624 360.837L251.808 364.898L279.989 367.551L279.468 362.671Z" fill="#FAB8B2"/>
<path d="M282.981 362.671L308.493 357.3L305.825 360.837L310.641 364.898L282.46 367.551L282.981 362.671Z" fill="#FAB8B2"/>
<path d="M261.638 348.61C262.198 348.24 262.883 348.114 263.537 348.26L268.032 349.266C268.623 349.398 269.14 349.757 269.473 350.266L278.912 364.702L280.572 363.129L270.764 345.834C270.002 344.489 268.61 343.631 267.073 343.557L263.002 343.363C260.121 343.226 257.454 344.895 256.302 347.555L254.77 351.097C254.025 352.819 254.775 354.824 256.463 355.625L276.862 365.291L277.643 364.604L261.887 353.509C260.841 352.773 260.324 351.487 260.564 350.225C260.691 349.563 261.079 348.981 261.638 348.611V348.61Z" fill="#FAB8B2"/>
<path d="M299.578 348.61C299.018 348.24 298.333 348.114 297.679 348.26L293.184 349.266C292.593 349.398 292.076 349.757 291.743 350.266L282.304 364.702L280.645 363.129L290.452 345.834C291.214 344.489 292.607 343.631 294.143 343.557L298.215 343.363C301.095 343.226 303.762 344.895 304.913 347.555L306.445 351.097C307.19 352.819 306.44 354.824 304.752 355.625L284.353 365.291L283.572 364.604L299.328 353.509C300.374 352.773 300.891 351.487 300.651 350.225C300.524 349.563 300.137 348.981 299.577 348.611L299.578 348.61Z" fill="#FAB8B2"/>
<path d="M252.163 369.624L254.593 420.691C254.653 421.954 255.713 422.871 256.96 422.871H304.185C305.432 422.871 306.492 421.954 306.552 420.691L308.982 369.624H252.163Z" fill="url(#paint0_linear_14406_76791)"/>
<path d="M285.912 368.245H274.947V422.871H285.912V368.245Z" fill="#FAB8B2"/>
<path d="M249.723 363.83H310.86C311.463 363.83 311.952 364.322 311.952 364.929V370.456C311.952 371.062 311.463 371.555 310.86 371.555H249.724C249.121 371.555 248.632 371.062 248.632 370.456V364.929C248.632 364.322 249.121 363.83 249.724 363.83H249.723Z" fill="url(#paint1_linear_14406_76791)"/>
<path d="M285.912 363.003H274.947V371.555H285.912V363.003Z" fill="#FAB8B2"/>
</g>
<defs>
<linearGradient id="paint0_linear_14406_76791" x1="275.202" y1="404.496" x2="307.894" y2="333.475" gradientUnits="userSpaceOnUse">
<stop stop-color="#FE7062"/>
<stop offset="1" stop-color="#FF928E"/>
</linearGradient>
<linearGradient id="paint1_linear_14406_76791" x1="305.826" y1="288.027" x2="294.733" y2="322.195" gradientUnits="userSpaceOnUse">
<stop stop-color="#FE7062"/>
<stop offset="1" stop-color="#FF928E"/>
</linearGradient>
<clipPath id="clip0_14406_76791">
<rect width="541" height="530" fill="white"/>
</clipPath>
</defs>
</svg>
