<svg width="40" height="30" viewBox="0 0 40 30" fill="none" xmlns="http://www.w3.org/2000/svg">
<g clip-path="url(#clip0_186_5201)">
<path d="M0 10.0223C0.28169 9.2694 0.74565 8.70052 1.57415 8.56667C1.75642 8.5332 1.93869 8.5332 2.12096 8.5332C14.0348 8.5332 25.9486 8.5332 37.8625 8.5332C39.2709 8.5332 40 9.28613 40 10.6916C40 16.4138 40 22.1361 40 27.8584C40 29.2471 39.2709 30 37.879 30C26.0315 30 14.1839 30 2.33637 30C1.17647 30 0.38111 29.6152 0 28.4774V10.0223H0ZM20 27.4735C24.4905 27.4735 28.1193 23.8093 28.1359 19.275C28.1359 14.7574 24.4905 11.0597 20.0166 11.0597C15.5427 11.0597 11.8973 14.7407 11.8807 19.2582C11.8807 23.7925 15.5261 27.4568 20 27.4568V27.4735ZM37.4979 19.3084C37.4979 17.4679 37.4979 15.6275 37.4979 13.787C37.4979 13.2014 37.3322 13.0173 36.7523 12.9504C36.1723 12.8835 35.7249 12.4484 35.6421 11.8628C35.5427 11.1935 35.4101 11.0597 34.7307 11.0597C32.2121 11.0597 29.6769 11.0597 27.1582 11.0597C27.0091 11.0597 26.86 11.0597 26.7274 11.0932C26.4126 11.1768 26.2303 11.3943 26.2635 11.729C26.28 12.0636 26.4789 12.2476 26.8103 12.3146C26.9428 12.3313 27.0754 12.3146 27.208 12.3146C29.478 12.3146 31.7647 12.3146 34.0348 12.3146C34.3165 12.3146 34.4822 12.3982 34.5982 12.6659C34.8467 13.3017 35.3107 13.7535 35.9403 14.0212C36.1889 14.1216 36.2717 14.2722 36.2717 14.5232C36.2717 17.6855 36.2717 20.831 36.2717 23.9933C36.2717 24.2778 36.1889 24.4283 35.9238 24.5287C35.3107 24.763 34.8633 25.198 34.6147 25.8171C34.4822 26.1517 34.2999 26.2186 33.9685 26.2186C31.6487 26.2186 29.3289 26.2186 27.0257 26.2186C26.5452 26.2186 26.2469 26.4864 26.2635 26.8712C26.2635 27.2393 26.5617 27.4735 27.0257 27.4735C29.6437 27.4735 32.2618 27.4735 34.8799 27.4735C35.3935 27.4735 35.5924 27.2895 35.6421 26.7875C35.7084 26.1183 36.1392 25.6832 36.7854 25.5828C37.3819 25.4992 37.5145 25.3486 37.5145 24.7463C37.5145 22.9392 37.5145 21.1155 37.5145 19.3084H37.4979ZM2.50207 19.2415C2.50207 21.082 2.50207 22.9225 2.50207 24.763C2.50207 25.3319 2.6512 25.5159 3.21458 25.5828C3.84424 25.6665 4.29163 26.0848 4.37448 26.6871C4.4739 27.3731 4.58989 27.4735 5.28583 27.4735C7.80447 27.4735 10.3397 27.4735 12.8583 27.4735C12.9743 27.4735 13.0903 27.4735 13.2063 27.4735C13.5211 27.4401 13.7034 27.2393 13.7531 26.9381C13.8028 26.6202 13.6537 26.386 13.3554 26.2856C13.2063 26.2354 13.024 26.2186 12.8583 26.2186C10.5717 26.2186 8.26843 26.2186 5.98177 26.2186C5.70008 26.2186 5.53438 26.1517 5.41839 25.8673C5.16984 25.2315 4.70588 24.7797 4.07622 24.5287C3.82767 24.4283 3.76139 24.2778 3.76139 24.0268C3.76139 20.8645 3.76139 17.7189 3.76139 14.5566C3.76139 14.2722 3.84424 14.1216 4.10936 14.0212C4.68931 13.787 5.1367 13.3854 5.38525 12.7998C5.53438 12.415 5.74979 12.3146 6.14747 12.3146C8.41756 12.3313 10.7042 12.3146 12.9743 12.3146C13.2726 12.3146 13.5543 12.2811 13.7034 11.9632C13.9354 11.4947 13.604 11.043 12.9743 11.043C10.3894 11.043 7.7879 11.043 5.20298 11.043C4.65617 11.043 4.45733 11.227 4.40762 11.7792C4.34134 12.3982 3.89395 12.85 3.29743 12.9336C2.66777 13.0173 2.53521 13.1679 2.53521 13.8204C2.53521 15.6275 2.53521 17.4178 2.53521 19.2248L2.50207 19.2415ZM7.50621 21.1657C8.53356 21.1657 9.36205 20.3291 9.37862 19.2917C9.37862 18.2376 8.53356 17.3843 7.48964 17.3843C6.47887 17.3843 5.6338 18.2376 5.61723 19.275C5.61723 20.3291 6.44573 21.1824 7.50621 21.1824V21.1657ZM32.4938 21.1657C33.5211 21.1657 34.3662 20.3291 34.3662 19.3084C34.3662 18.2543 33.5377 17.3843 32.4938 17.3843C31.483 17.3843 30.6214 18.2209 30.6214 19.2582C30.6214 20.3123 31.4499 21.1657 32.4938 21.1657Z" fill="#A9CF4B"/>
<path d="M11.6318 7.1277C12.0129 7.06077 12.4106 7.01057 12.7917 6.94365C16.5697 6.3915 20.3311 5.85608 24.1091 5.30394C27.9367 4.75179 31.7644 4.19964 35.5755 3.64749C36.5697 3.51364 37.4976 4.23311 37.6467 5.25374C37.7296 5.80589 37.7793 6.37477 37.8622 6.92691C37.8953 7.17789 37.7959 7.26155 37.5639 7.24482C37.481 7.24482 37.3816 7.24482 37.2988 7.24482C28.8978 7.24482 20.5134 7.24482 12.1124 7.24482H11.6484C11.6484 7.24482 11.6484 7.16116 11.6484 7.11096L11.6318 7.1277Z" fill="#A9CF4B"/>
<path d="M12.0469 5.67208C12.1629 5.62189 12.2623 5.57169 12.3783 5.55496C18.7743 3.7312 25.1869 1.90744 31.5829 0.100415C32.7925 -0.250951 33.7536 0.33466 34.0684 1.57281C34.1181 1.79032 34.1678 2.00783 34.2341 2.22535C34.3335 2.50979 34.2341 2.59344 33.9524 2.62691C32.544 2.82769 31.119 3.02847 29.7105 3.24598C26.1645 3.76467 22.602 4.26662 19.056 4.7853C16.819 5.1032 14.5821 5.43784 12.3451 5.75574C12.2457 5.75574 12.1629 5.75574 12.0634 5.75574C12.0634 5.72228 12.0634 5.70555 12.0469 5.67208Z" fill="#A9CF4B"/>
<path d="M19.983 26.2019C16.1885 26.2019 13.123 23.0731 13.123 19.2248C13.123 15.4267 16.2216 12.3146 19.9996 12.3146C23.7941 12.3146 26.8762 15.4434 26.8762 19.275C26.8762 23.1065 23.7776 26.2019 19.983 26.2019ZM22.5017 17.2672C22.5017 16.464 22.0211 15.5773 21.2589 15.2092C20.7784 14.9749 20.563 14.7407 20.6127 14.1885C20.6458 13.8539 20.3476 13.5862 20.0162 13.5862C19.7013 13.5862 19.4197 13.8204 19.3865 14.1718C19.3699 14.3224 19.4196 14.4897 19.3699 14.6403C19.3368 14.7741 19.2374 14.9415 19.1214 15.0084C17.9781 15.5438 17.3484 16.6146 17.5307 17.7524C17.7461 19.0073 18.674 19.7937 19.9996 19.9275C20.331 19.961 20.6955 20.145 20.9441 20.3793C21.3418 20.7306 21.3418 21.333 21.0767 21.8015C20.8115 22.27 20.2647 22.5209 19.7345 22.4038C19.2374 22.3034 18.8397 21.8684 18.7568 21.3497C18.7568 21.2995 18.7568 21.2493 18.7568 21.1991C18.7071 20.7976 18.4586 20.5299 18.1106 20.5466C17.7627 20.5466 17.4975 20.8478 17.5141 21.2493C17.5472 22.2365 18.0112 23.0062 18.8894 23.4244C19.2871 23.6085 19.4694 23.8093 19.3865 24.2443C19.3865 24.3112 19.3865 24.3782 19.3865 24.4451C19.4528 24.7463 19.6351 24.947 19.9333 24.9638C20.2647 24.9972 20.4801 24.8299 20.5796 24.512C20.6127 24.4116 20.6293 24.2778 20.6127 24.1606C20.563 23.8093 20.6955 23.6252 21.0435 23.4579C22.7502 22.6715 22.9988 20.3625 21.524 19.1913C21.0601 18.8232 20.5298 18.6894 19.9665 18.6559C19.1545 18.6057 18.5911 17.8528 18.79 17.0999C18.9391 16.5142 19.4859 16.1127 20.0659 16.1461C20.6955 16.1796 21.1761 16.6648 21.2424 17.3508C21.2921 17.8026 21.524 18.0368 21.8886 18.0368C22.2531 18.0368 22.4851 17.7357 22.4851 17.3006L22.5017 17.2672Z" fill="#A9CF4B"/>
<path d="M8.1197 19.275C8.1197 19.6263 7.83801 19.894 7.49004 19.894C7.14207 19.894 6.87695 19.6096 6.87695 19.2582C6.87695 18.9236 7.17521 18.6392 7.50661 18.6392C7.83801 18.6392 8.1197 18.9403 8.1197 19.275Z" fill="#A9CF4B"/>
<path d="M33.1236 19.275C33.1236 19.6263 32.8419 19.894 32.494 19.894C32.146 19.894 31.8809 19.6096 31.8809 19.2582C31.8809 18.9236 32.1791 18.6392 32.5105 18.6392C32.8419 18.6392 33.1236 18.9403 33.1236 19.275Z" fill="#A9CF4B"/>
</g>
<defs>
<clipPath id="clip0_186_5201">
<rect width="40" height="30" fill="white"/>
</clipPath>
</defs>
</svg>
