<svg width="325" height="246" viewBox="0 0 325 246" fill="none" xmlns="http://www.w3.org/2000/svg">
<rect width="325" height="246" rx="8" fill="#E6E6E6"/>
<path d="M210.827 78.1667H114.16C107.497 78.1667 102.077 83.5861 102.077 90.2501V162.75C102.077 169.414 107.497 174.833 114.16 174.833H210.827C217.491 174.833 222.91 169.414 222.91 162.75V90.2501C222.91 83.5861 217.491 78.1667 210.827 78.1667ZM129.265 96.2917C131.668 96.2917 133.973 97.2465 135.673 98.9461C137.372 100.646 138.327 102.951 138.327 105.354C138.327 107.758 137.372 110.063 135.673 111.762C133.973 113.462 131.668 114.417 129.265 114.417C126.861 114.417 124.556 113.462 122.856 111.762C121.157 110.063 120.202 107.758 120.202 105.354C120.202 102.951 121.157 100.646 122.856 98.9461C124.556 97.2465 126.861 96.2917 129.265 96.2917V96.2917ZM162.494 156.708H120.202L144.369 126.5L153.431 138.583L171.556 114.417L204.785 156.708H162.494Z" fill="#BABABA"/>
</svg>
