<svg width="58" height="58" viewBox="0 0 58 58" fill="none" xmlns="http://www.w3.org/2000/svg">
<g clip-path="url(#clip0_14012_76170)">
<circle cx="29" cy="29" r="29" fill="black"/>
<path d="M49.5062 8.49394C44.0287 3.01657 36.7462 0 29 0C21.2538 0 13.9713 3.01657 8.49383 8.49394C3.01657 13.9713 0 21.2538 0 29C0 36.7462 3.01657 44.0287 8.49383 49.5061C13.9713 54.9834 21.2538 58 29 58C36.7462 58 44.0287 54.9834 49.5062 49.5061C54.9834 44.0287 58 36.7462 58 29C58 21.2538 54.9834 13.9713 49.5062 8.49394ZM29 54.6016C21.425 54.6016 14.6091 51.2935 9.91755 46.0476C12.826 38.3369 20.2715 32.8516 29 32.8516C23.3692 32.8516 18.8047 28.287 18.8047 22.6562C18.8047 17.0255 23.3692 12.4609 29 12.4609C34.6308 12.4609 39.1953 17.0255 39.1953 22.6562C39.1953 28.287 34.6308 32.8516 29 32.8516C37.7285 32.8516 45.174 38.3369 48.0825 46.0476C43.3909 51.2935 36.575 54.6016 29 54.6016Z" fill="url(#paint0_linear_14012_76170)"/>
</g>
<defs>
<linearGradient id="paint0_linear_14012_76170" x1="1.5" y1="32.5" x2="61.5" y2="32" gradientUnits="userSpaceOnUse">
<stop stop-color="#D3D3D3"/>
<stop offset="1" stop-color="#4D4D4D"/>
</linearGradient>
<clipPath id="clip0_14012_76170">
<rect width="58" height="58" fill="white"/>
</clipPath>
</defs>
</svg>
