<svg width="512" height="512" viewBox="0 0 512 512" fill="none" xmlns="http://www.w3.org/2000/svg">
<g clip-path="url(#clip0_64_54)">
<path d="M256 512C397.385 512 512 397.385 512 256C512 114.615 397.385 0 256 0C114.615 0 0 114.615 0 256C0 397.385 114.615 512 256 512Z" fill="#B8C9EA"/>
<path d="M392.411 122.565L388.293 118.447L335.116 171.623L281.94 118.447L255.705 144.682L229.47 118.447L179.069 168.848L125.712 115.491L110.378 130.826L151.416 171.864L128.889 194.391L125.712 191.215L110.378 206.55L210.79 306.962L193.916 323.836L177.276 307.196L142.45 303.039L233.813 394.402L185.823 442.392L255.425 511.994C255.618 511.994 255.808 512.001 256.001 512.001C397.386 512.001 512.001 397.386 512.001 256.001C512.001 244.262 511.194 232.713 509.664 221.394L401.624 113.354L392.411 122.565Z" fill="#8FACE0"/>
<path d="M142.449 303.038L212.472 356.148L232.522 353.387L256 341.431L220.911 325.867L142.449 303.038Z" fill="#F8E883"/>
<path d="M256 341.876L228.884 374.227L185.822 442.391L256 389.163L260.108 369.15L256 341.876Z" fill="#F8E883"/>
<path d="M256 215.289L228.884 303.038L239.268 324.197L255.593 341.293L256 341.431L260.108 281.716L256 215.289Z" fill="#F8E883"/>
<path d="M142.449 303.038L255.593 341.293L228.884 303.038H142.449Z" fill="#EBB044"/>
<path d="M256 341.431L212.472 356.148L185.822 442.391L256 341.876V341.431Z" fill="#EBB044"/>
<path d="M299.528 356.148L369.551 303.038L303.057 322.166L256 341.431L279.812 352.852L299.528 356.148Z" fill="#EBB044"/>
<path d="M256 389.163L326.179 442.391L285.69 378.769L256 341.876V389.163Z" fill="#EBB044"/>
<path d="M283.116 303.038L256 215.289V341.431L256.407 341.293L275.805 320.791L283.116 303.038Z" fill="#EBB044"/>
<path d="M256 341.431V341.876L326.179 442.391L299.528 356.148L256 341.431Z" fill="#E18720"/>
<path d="M369.551 303.038H283.116L256.407 341.293L369.551 303.038Z" fill="#E18720"/>
<path d="M247.263 215.289C247.263 220.114 251.175 224.026 256 224.026L260.108 215.289L256 206.551C251.175 206.551 247.263 210.463 247.263 215.289Z" fill="#EBB044"/>
<path d="M264.737 215.289C264.737 210.463 260.825 206.552 256 206.552V224.027C260.825 224.026 264.737 220.114 264.737 215.289Z" fill="#E18720"/>
<path d="M127.852 125.003V194.901H256L260.369 159.952L256 125.003H127.852Z" fill="#FB7C82"/>
<path d="M256 125.003H384.148V194.902H256V125.003Z" fill="#FA455C"/>
<path d="M110.378 189.076V206.551H256L260.369 197.814L256 189.076H110.378Z" fill="#F8E883"/>
<path d="M256 189.076H401.622V206.551H256V189.076Z" fill="#EBB044"/>
<path d="M110.378 113.353V130.828H256L260.369 122.09L256 113.353H110.378Z" fill="#F8E883"/>
<path d="M256 113.353H401.622V130.828H256V113.353Z" fill="#EBB044"/>
</g>
<defs>
<clipPath id="clip0_64_54">
<rect width="512" height="512" fill="white"/>
</clipPath>
</defs>
</svg>
