<svg width="40" height="23" viewBox="0 0 40 23" fill="none" xmlns="http://www.w3.org/2000/svg">
<g clip-path="url(#clip0_186_5181)">
<path d="M19.9778 22.2222C13.6448 22.2222 7.32666 22.2222 0.993697 22.2222C0.148313 22.2222 0 22.0727 0 21.2203C0 19.4258 0 17.6163 0 15.8217C0 15.1638 0.11865 15.0292 0.786059 14.9245C2.68446 14.6553 4.07861 13.2047 4.18243 11.4252C4.28624 9.48108 3.14423 7.86601 1.31999 7.38747C1.11235 7.32765 0.889878 7.29774 0.68224 7.26783C0.177976 7.20802 0 7.02856 0 6.50516C0 5.23404 0 3.96291 0 2.69179C0 2.0338 0 1.3758 0 0.732765C0 0.224316 0.222469 0.0299088 0.726733 0C0.815721 0 0.91954 0 1.00853 0C13.6596 0 26.3256 0 38.9766 0C39.0953 0 39.2139 0 39.3474 0C39.7775 0.0299088 39.9852 0.254225 39.9852 0.732765C39.9852 1.80948 39.9852 2.8862 39.9852 3.96291C39.9852 4.77045 39.9852 5.57799 39.9852 6.37057C39.9852 7.08838 39.8369 7.25288 39.0953 7.25288C37.1672 7.28279 35.5803 8.71841 35.343 10.6475C35.1057 12.5168 36.3367 14.3263 38.1906 14.8048C38.5317 14.8946 38.8877 14.9095 39.2288 14.9245C39.733 14.9544 39.9703 15.1338 39.9703 15.6273C39.9703 17.5714 39.9703 19.5304 39.9703 21.4745C39.9703 21.953 39.7479 22.1624 39.2733 22.1923C39.1546 22.1923 39.036 22.1923 38.9025 22.1923C32.5844 22.1923 26.2662 22.1923 19.9629 22.1923L19.9778 22.2222ZM12.0727 11.1709C12.0727 10.8718 12.0727 10.5728 12.0727 10.2737C12.0727 10.2438 12.0727 10.2138 12.0727 10.1989C12.043 9.82503 11.776 9.57081 11.4498 9.58576C11.1383 9.58576 10.8565 9.83999 10.8417 10.1839C10.8268 10.812 10.8268 11.4401 10.8417 12.0682C10.8417 12.4421 11.1383 12.6963 11.4646 12.6813C11.7909 12.6813 12.043 12.4121 12.0727 12.0383C12.0727 11.7542 12.0727 11.47 12.0727 11.1859V11.1709ZM12.0727 6.37057C12.0727 6.05653 12.0727 5.74249 12.0727 5.42844C12.0578 5.03963 11.8057 4.81531 11.4498 4.81531C11.1235 4.81531 10.8565 5.05458 10.8417 5.39853C10.8268 6.04157 10.8268 6.66966 10.8417 7.3127C10.8417 7.65665 11.1383 7.89592 11.4646 7.88096C11.7909 7.88096 12.043 7.65665 12.0578 7.29774C12.0727 6.9837 12.0578 6.66966 12.0578 6.35562L12.0727 6.37057ZM12.0727 15.8816C12.0727 15.5825 12.0727 15.2834 12.0727 14.9843C12.0578 14.5955 11.8057 14.3562 11.4646 14.3562C11.1235 14.3562 10.8565 14.5955 10.8417 14.9693C10.8268 15.5825 10.8268 16.1956 10.8417 16.8087C10.8417 17.1826 11.1086 17.4368 11.4498 17.4368C11.7909 17.4368 12.043 17.2125 12.0727 16.8237C12.0875 16.5096 12.0727 16.1956 12.0727 15.8816ZM12.0727 1.98893C12.0727 1.77957 12.0875 1.58517 12.0727 1.3758C12.043 1.04681 11.8205 0.8524 11.5091 0.837446C11.168 0.807537 10.9158 1.0169 10.8713 1.3459C10.8268 1.76462 10.8268 2.1983 10.8713 2.60206C10.901 2.93106 11.1383 3.12547 11.4943 3.11051C11.8354 3.11051 12.043 2.90115 12.0727 2.5572C12.0875 2.36279 12.0727 2.18334 12.0727 1.98893ZM12.0727 20.2782C12.0727 20.0837 12.0727 19.8893 12.0727 19.7099C12.043 19.3659 11.8502 19.1566 11.5091 19.1416C11.1828 19.1117 10.8862 19.336 10.8565 19.68C10.8268 20.0688 10.8268 20.4726 10.8565 20.8614C10.8862 21.2053 11.1828 21.4595 11.4943 21.4296C11.8354 21.3997 12.043 21.2053 12.0727 20.8614C12.0875 20.667 12.0727 20.4875 12.0727 20.2931V20.2782Z" fill="#E66100"/>
</g>
<defs>
<clipPath id="clip0_186_5181">
<rect width="40" height="22.2222" fill="white"/>
</clipPath>
</defs>
</svg>
