<svg height="512pt" viewBox="0 0 512 512" width="512pt" xmlns="http://www.w3.org/2000/svg"><path d="m512 256c0 141.386719-114.613281 256-256 256s-256-114.613281-256-256 114.613281-256 256-256 256 114.613281 256 256zm0 0" fill="#a260e5"/><path d="m512 256c0-4.050781-.105469-8.078125-.292969-12.082031l-123.054687-123.058594-8.832032 8.875-58.621093-58.621094-197.851563 242.503907 87.25 87.25-45.097656 52.230468 56.675781 56.675782c11.070313 1.460937 22.355469 2.226562 33.824219 2.226562 141.386719 0 256-114.613281 256-256zm0 0" fill="#7a3eb5"/><path d="m346.496094 453.097656-90.496094-30-90.496094 30v-148.863281h180.992188zm0 0" fill="#ffce00"/><path d="m256 304.234375v118.863281l90.5 30v-148.863281zm0 0" fill="#fdba12"/><path d="m92.042969 217.238281c0-16.929687 16.339843-31.074219 21.300781-46.351562 5.140625-15.835938.414062-36.847657 10.007812-50.027344 9.6875-13.3125 31.195313-15.261719 44.507813-24.949219 13.179687-9.59375 21.628906-29.5 37.464844-34.640625 15.277343-4.960937 33.746093 6.015625 50.675781 6.015625 16.933594 0 35.398438-10.976562 50.679688-6.015625 15.832031 5.140625 24.285156 25.046875 37.464843 34.640625 13.308594 9.6875 34.820313 11.636719 44.507813 24.949219 9.589844 13.179687 4.863281 34.191406 10.003906 50.027344 4.960938 15.277343 21.300781 29.421875 21.300781 46.351562 0 16.933594-16.339843 31.078125-21.300781 46.355469-5.140625 15.835938-.414062 36.84375-10.003906 50.023438-9.6875 13.3125-31.199219 15.265624-44.507813 24.953124-13.179687 9.589844-21.632812 29.5-37.464843 34.640626-15.277344 4.960937-33.746094-6.015626-50.679688-6.015626-16.929688 0-35.398438 10.976563-50.675781 6.015626-15.835938-5.140626-24.285157-25.050782-37.464844-34.640626-13.3125-9.6875-34.820313-11.640624-44.507813-24.953124-9.59375-13.179688-4.867187-34.1875-10.007812-50.023438-4.960938-15.277344-21.300781-29.421875-21.300781-46.355469zm0 0" fill="#fff"/><path d="m398.65625 170.886719c-5.140625-15.835938-.414062-36.847657-10.007812-50.027344-9.6875-13.3125-31.195313-15.261719-44.507813-24.953125-13.179687-9.589844-21.628906-29.5-37.464844-34.640625-15.277343-4.960937-33.746093 6.015625-50.675781 6.015625v299.914062c16.929688 0 35.398438 10.976563 50.675781 6.015626 15.835938-5.140626 24.285157-25.050782 37.464844-34.640626 13.3125-9.6875 34.820313-11.640624 44.507813-24.953124 9.59375-13.179688 4.867187-34.191407 10.007812-50.023438 4.960938-15.277344 21.300781-29.421875 21.300781-46.355469 0-16.929687-16.339843-31.074219-21.300781-46.351562zm0 0" fill="#ffe4e0"/><path d="m380.152344 217.238281c0 68.570313-55.585938 124.152344-124.152344 124.152344s-124.152344-55.582031-124.152344-124.152344c0-68.566406 55.585938-124.152343 124.152344-124.152343s124.152344 55.585937 124.152344 124.152343zm0 0" fill="#ff6155"/><path d="m256 93.085938v248.304687c68.566406 0 124.152344-55.582031 124.152344-124.152344 0-68.566406-55.585938-124.152343-124.152344-124.152343zm0 0" fill="#ed2415"/><path d="m309.5625 182.4375c0-29.535156-24.027344-53.5625-53.5625-53.5625s-53.5625 24.027344-53.5625 53.5625c0 24.328125 16.308594 44.90625 38.5625 51.410156v30.253906h-17.371094v30h17.371094v14.023438h30v-14.023438h17.371094v-30h-17.371094v-30.253906c22.253906-6.503906 38.5625-27.082031 38.5625-51.410156zm-77.125 0c0-12.992188 10.570312-23.5625 23.5625-23.5625s23.5625 10.570312 23.5625 23.5625-10.570312 23.5625-23.5625 23.5625-23.5625-10.570312-23.5625-23.5625zm0 0" fill="#fff"/><path d="m309.5625 182.4375c0-29.535156-24.027344-53.5625-53.5625-53.5625v30c12.992188 0 23.5625 10.570312 23.5625 23.5625s-10.570312 23.5625-23.5625 23.5625v102.125h15v-14.023438h17.371094v-30h-17.371094v-30.253906c22.253906-6.503906 38.5625-27.082031 38.5625-51.410156zm0 0" fill="#ffe4e0"/></svg>